SplineFontDB: 3.2
FontName: lucide
FullName: lucide
FamilyName: lucide
Weight: Book
Version: 1.0
ItalicAngle: 0
UnderlinePosition: 10
UnderlineWidth: 0
Ascent: 1000
Descent: 0
InvalidEm: 0
sfntRevision: 0x00010000
LayerCount: 2
Layer: 0 1 "Back" 1
Layer: 1 1 "Fore" 0
XUID: [1021 773 -1091119528 28054]
StyleMap: 0x0040
FSType: 0
OS2Version: 4
OS2_WeightWidthSlopeOnly: 0
OS2_UseTypoMetrics: 1
CreationTime: 1716298698
ModificationTime: 1716390103
PfmFamily: 17
TTFWeight: 400
TTFWidth: 5
LineGap: 0
VLineGap: 0
Panose: 2 0 5 3 0 0 0 0 0 0
OS2TypoAscent: 1000
OS2TypoAOffset: 0
OS2TypoDescent: 0
OS2TypoDOffset: 0
OS2TypoLinegap: 90
OS2WinAscent: 1090
OS2WinAOffset: 0
OS2WinDescent: 6
OS2WinDOffset: 0
HheadAscent: 1000
HheadAOffset: 0
HheadDescent: 0
HheadDOffset: 0
OS2SubXSize: 634
OS2SubYSize: 700
OS2SubXOff: 0
OS2SubYOff: 140
OS2SupXSize: 634
OS2SupYSize: 700
OS2SupXOff: 0
OS2SupYOff: 480
OS2StrikeYSize: 49
OS2StrikeYPos: 258
OS2Vendor: 'PfEd'
OS2CodePages: 00000001.00000000
OS2UnicodeRanges: 00000000.00000000.00000000.00000000
Lookup: 4 0 1 "'liga' Standard Ligatures in Latin lookup 0" { "'liga' Standard Ligatures in Latin lookup 0 subtable"  } [' RQD' ('DFLT' <'dflt' > 'latn' <'dflt' > ) 'liga' ('DFLT' <'dflt' > 'latn' <'dflt' > ) ]
DEI: 91125
ShortTable: maxp 16
  1
  0
  1460
  369
  16
  0
  0
  2
  0
  10
  10
  0
  255
  0
  0
  0
EndShort
LangName: 1033 "" "" "Regular" "lucide" "" "Version 1.0" "" "" "" "" "Generated by svg2ttf from Fontello project." "http://fontello.com"
Encoding: UnicodeFull
UnicodeInterp: none
NameList: AGL For New Fonts
DisplaySize: -48
AntiAlias: 1
FitToEm: 0
WinInfo: 57408 39 14
BeginChars: 1114113 68

StartChar: airplay
Encoding: 57401 57401 1
Width: 1000
GlyphClass: 1
Flags: W
LayerCount: 2
Fore
SplineSet
141 914 m 0,0,1
 107 907 107 907 81.5 882.5 c 128,-1,2
 56 858 56 858 46 825 c 0,3,4
 44 815 44 815 43 802 c 0,5,6
 42 785 42 785 41 736 c 2,7,-1
 42 390 l 2,8,9
 43 355 43 355 44 349 c 0,10,11
 53 310 53 310 80.5 284.5 c 128,-1,12
 108 259 108 259 146 252 c 0,13,14
 157 250 157 250 185.5 250 c 128,-1,15
 214 250 214 250 220 252 c 0,16,17
 235 256 235 256 243 268.5 c 128,-1,18
 251 281 251 281 250 295.5 c 128,-1,19
 249 310 249 310 238 320 c 0,20,21
 229 329 229 329 219.5 331.5 c 128,-1,22
 210 334 210 334 183 334 c 0,23,24
 167 334 167 334 161.5 334.5 c 128,-1,25
 156 335 156 335 152 336 c 0,26,27
 137 342 137 342 129 357 c 2,28,-1
 126 364 l 1,29,-1
 126 802 l 1,30,-1
 129 809 l 2,31,32
 138 829 138 829 160 832 c 0,33,34
 169 834 169 834 500 834 c 128,-1,35
 831 834 831 834 840 832 c 0,36,37
 862 829 862 829 871 809 c 2,38,-1
 874 802 l 1,39,-1
 874 364 l 1,40,-1
 871 357 l 2,41,42
 863 342 863 342 848 336 c 0,43,44
 844 335 844 335 838.5 334.5 c 128,-1,45
 833 334 833 334 817 334 c 0,46,47
 793 334 793 334 785 332 c 0,48,49
 770 330 770 330 760.5 319 c 128,-1,50
 751 308 751 308 750 293.5 c 128,-1,51
 749 279 749 279 758 267.5 c 128,-1,52
 767 256 767 256 780 252 c 0,53,54
 786 250 786 250 814.5 250 c 128,-1,55
 843 250 843 250 854 252 c 0,56,57
 892 259 892 259 919.5 284.5 c 128,-1,58
 947 310 947 310 956 349 c 0,59,60
 957 355 957 355 958 390 c 2,61,-1
 959 736 l 2,62,63
 958 785 958 785 957 802 c 0,64,65
 956 815 956 815 954 825 c 0,66,67
 944 859 944 859 918 883 c 128,-1,68
 892 907 892 907 858 914 c 0,69,70
 850 916 850 916 800 916 c 2,71,-1
 499 916 l 1,72,-1
 201 916 l 2,73,74
 149 915 149 915 141 914 c 0,0,1
486 414 m 0,75,76
 480 412 480 412 473.5 406.5 c 128,-1,77
 467 401 467 401 361.5 273.5 c 128,-1,78
 256 146 256 146 253 140.5 c 128,-1,79
 250 135 250 135 250.5 124.5 c 128,-1,80
 251 114 251 114 254 107 c 0,81,82
 262 92 262 92 277 86 c 2,83,-1
 284 84 l 1,84,-1
 721 84 l 1,85,-1
 726 87 l 2,86,87
 740 95 740 95 746 107 c 0,88,89
 749 114 749 114 749.5 124.5 c 128,-1,90
 750 135 750 135 747 141 c 0,91,92
 745 145 745 145 639 273 c 128,-1,93
 533 401 533 401 528 406 c 0,94,95
 524 409 524 409 518 412 c 128,-1,96
 512 415 512 415 502.5 416 c 128,-1,97
 493 417 493 417 486 414 c 0,75,76
560 238 m 0,98,99
 619 168 619 168 619 167 c 128,-1,100
 619 166 619 166 500 166 c 128,-1,101
 381 166 381 166 381 167 c 128,-1,102
 381 168 381 168 440 238.5 c 128,-1,103
 499 309 499 309 500 309 c 128,-1,104
 501 309 501 309 560 238 c 0,98,99
EndSplineSet
Validated: 9
EndChar

StartChar: arrow-down-to-line
Encoding: 58457 58457 2
Width: 1000
GlyphClass: 1
Flags: W
LayerCount: 2
Fore
SplineSet
489 915 m 0,0,1
 471 909 471 909 462 893 c 2,2,-1
 459 887 l 1,3,-1
 459 392 l 1,4,-1
 367 484 l 2,5,6
 274 576 274 576 269 579 c 0,7,8
 261 583 261 583 250 583 c 128,-1,9
 239 583 239 583 231 579 c 0,10,11
 225 576 225 576 219.5 569.5 c 128,-1,12
 214 563 214 563 211.5 556 c 128,-1,13
 209 549 209 549 209 540 c 128,-1,14
 209 531 209 531 213 524 c 0,15,16
 214 520 214 520 239 494.5 c 128,-1,17
 264 469 264 469 346 387 c 128,-1,18
 428 305 428 305 453.5 280 c 128,-1,19
 479 255 479 255 483 254 c 0,20,21
 490 250 490 250 500 250 c 128,-1,22
 510 250 510 250 517 253 c 0,23,24
 521 255 521 255 546.5 280 c 128,-1,25
 572 305 572 305 654 387 c 128,-1,26
 736 469 736 469 761 494.5 c 128,-1,27
 786 520 786 520 787 524 c 0,28,29
 791 531 791 531 791 540 c 128,-1,30
 791 549 791 549 788.5 556 c 128,-1,31
 786 563 786 563 780.5 569.5 c 128,-1,32
 775 576 775 576 769 579 c 0,33,34
 761 583 761 583 750 583 c 128,-1,35
 739 583 739 583 731 579 c 0,36,37
 726 576 726 576 633 484 c 2,38,-1
 541 392 l 1,39,-1
 541 887 l 1,40,-1
 538 893 l 2,41,42
 531 906 531 906 518 912 c 0,43,44
 512 915 512 915 502 915.5 c 128,-1,45
 492 916 492 916 489 915 c 0,0,1
195 164 m 0,46,47
 178 158 178 158 170.5 141 c 128,-1,48
 163 124 163 124 170 108 c 0,49,50
 174 101 174 101 180 95 c 128,-1,51
 186 89 186 89 193 86 c 2,52,-1
 200 84 l 1,53,-1
 800 84 l 1,54,-1
 807 86 l 2,55,56
 814 89 814 89 820 95 c 128,-1,57
 826 101 826 101 829.5 108.5 c 128,-1,58
 833 116 833 116 833 125 c 128,-1,59
 833 134 833 134 830 142 c 0,60,61
 823 156 823 156 809 163 c 2,62,-1
 803 166 l 1,63,-1
 501 166 l 2,64,65
 199 166 199 166 195 164 c 0,46,47
EndSplineSet
Validated: 553
EndChar

StartChar: axis-3d
Encoding: 58109 58109 3
Width: 1000
GlyphClass: 1
Flags: W
LayerCount: 2
Fore
SplineSet
157 874 m 0,0,1
 151 872 151 872 144 867.5 c 128,-1,2
 137 863 137 863 134 858 c 2,3,-1
 132 856 l 2,4,5
 128 852 128 852 127 841 c 0,6,7
 126 825 126 825 125 768 c 2,8,-1
 125 159 l 1,9,-1
 128 152 l 2,10,11
 130 144 130 144 137 137 c 128,-1,12
 144 130 144 130 152 128 c 2,13,-1
 159 125 l 1,14,-1
 765 125 l 2,15,16
 824 126 824 126 839 127 c 0,17,18
 851 128 851 128 855 131 c 2,19,-1
 857 133 l 2,20,21
 872 143 872 143 874.5 159.5 c 128,-1,22
 877 176 877 176 867.5 190.5 c 128,-1,23
 858 205 858 205 840 207 c 0,24,25
 832 209 832 209 550 209 c 2,26,-1
 268 209 l 1,27,-1
 380 321 l 2,28,29
 456 397 456 397 474.5 416.5 c 128,-1,30
 493 436 493 436 496 441 c 0,31,32
 503 457 503 457 497 473 c 128,-1,33
 491 489 491 489 474 497 c 0,34,35
 468 499 468 499 458 499 c 2,36,-1
 455 499 l 2,37,38
 447 500 447 500 441 496 c 0,39,40
 433 491 433 491 411 470 c 0,41,42
 396 455 396 455 341 400 c 2,43,-1
 209 268 l 1,44,-1
 209 551 l 2,45,46
 209 833 209 833 207 841 c 0,47,48
 205 853 205 853 196 862 c 0,49,50
 189 870 189 870 178 873 c 128,-1,51
 167 876 167 876 157 874 c 0,0,1
EndSplineSet
Validated: 553
EndChar

StartChar: box
Encoding: 57447 57447 4
Width: 1000
GlyphClass: 1
Flags: W
LayerCount: 2
Fore
SplineSet
475 956 m 0,0,1
 459 952 459 952 444 945 c 0,2,3
 434 940 434 940 289.5 857 c 128,-1,4
 145 774 145 774 139 770 c 0,5,6
 97 742 97 742 86 693 c 0,7,8
 84 685 84 685 84 658 c 2,9,-1
 84 500 l 1,10,-1
 84 347 l 2,11,12
 84 316 84 316 86 309 c 0,13,14
 91 284 91 284 105 263.5 c 128,-1,15
 119 243 119 243 140 229 c 0,16,17
 153 221 153 221 297.5 138.5 c 128,-1,18
 442 56 442 56 449 53 c 0,19,20
 463 47 463 47 474 44.5 c 128,-1,21
 485 42 485 42 500.5 42 c 128,-1,22
 516 42 516 42 528.5 45 c 128,-1,23
 541 48 541 48 556 56 c 0,24,25
 567 61 567 61 708 141.5 c 128,-1,26
 849 222 849 222 859 229 c 0,27,28
 881 243 881 243 895 263.5 c 128,-1,29
 909 284 909 284 914 309 c 0,30,31
 916 316 916 316 916 347 c 2,32,-1
 916 500 l 1,33,-1
 916 653 l 2,34,35
 916 684 916 684 914 691 c 0,36,37
 909 714 909 714 895.5 735 c 128,-1,38
 882 756 882 756 863 769 c 0,39,40
 854 775 854 775 709 858 c 128,-1,41
 564 941 564 941 553 946 c 0,42,43
 540 952 540 952 530 954.5 c 128,-1,44
 520 957 520 957 503 957 c 0,45,46
 483 957 483 957 475 956 c 0,0,1
516 871 m 0,47,48
 523 868 523 868 656.5 791.5 c 128,-1,49
 790 715 790 715 790 714.5 c 128,-1,50
 790 714 790 714 646 631.5 c 128,-1,51
 502 549 502 549 500 549 c 128,-1,52
 498 549 498 549 354 631.5 c 128,-1,53
 210 714 210 714 210 714.5 c 128,-1,54
 210 715 210 715 343 791 c 128,-1,55
 476 867 476 867 481.5 870 c 128,-1,56
 487 873 487 873 491 874 c 128,-1,57
 495 875 495 875 503.5 874 c 128,-1,58
 512 873 512 873 516 871 c 0,47,48
314 559 m 1,59,-1
 459 476 l 1,60,-1
 459 309 l 2,61,62
 459 142 459 142 458 143 c 2,63,-1
 321 221 l 2,64,65
 184 299 184 299 179.5 303.5 c 128,-1,66
 175 308 175 308 171 316 c 2,67,-1
 167 324 l 1,68,-1
 167 614 l 2,69,70
 167 644 167 644 168 643 c 2,71,-1
 314 559 l 1,59,-1
833 463 m 2,72,-1
 833 324 l 1,73,-1
 829 316 l 2,74,75
 825 308 825 308 820.5 303.5 c 128,-1,76
 816 299 816 299 679 221 c 2,77,-1
 542 143 l 2,78,79
 541 142 541 142 541 309 c 2,80,-1
 541 476 l 1,81,-1
 833 643 l 1,82,-1
 833 623 l 2,83,84
 834 602 834 602 833 463 c 2,72,-1
EndSplineSet
Validated: 41
EndChar

StartChar: boxes
Encoding: 58063 58063 5
Width: 1000
GlyphClass: 1
Flags: W
LayerCount: 2
Fore
SplineSet
480 943 m 0,0,1
 464 940 464 940 451 934 c 0,2,3
 444 931 444 931 377.5 891.5 c 128,-1,4
 311 852 311 852 302 846 c 0,5,6
 288 836 288 836 275.5 819.5 c 128,-1,7
 263 803 263 803 257 786 c 1,8,-1
 257 786 l 1,9,10
 252 772 252 772 251.5 758.5 c 128,-1,11
 251 745 251 745 250 678 c 2,12,-1
 249 586 l 1,13,-1
 172 539 l 2,14,15
 95 492 95 492 89 488 c 0,16,17
 53 459 53 459 44 412 c 0,18,19
 42 403 42 403 42 322.5 c 128,-1,20
 42 242 42 242 44 233 c 0,21,22
 49 210 49 210 61 190 c 128,-1,23
 73 170 73 170 90 157 c 0,24,25
 97 152 97 152 163 112 c 128,-1,26
 229 72 229 72 238 68 c 0,27,28
 262 56 262 56 290.5 56 c 128,-1,29
 319 56 319 56 343 67 c 0,30,31
 352 71 352 71 425.5 115 c 128,-1,32
 499 159 499 159 500 159 c 128,-1,33
 501 159 501 159 574.5 115 c 128,-1,34
 648 71 648 71 657 67 c 0,35,36
 681 56 681 56 708 56 c 128,-1,37
 735 56 735 56 759 67 c 0,38,39
 766 70 766 70 829.5 107.5 c 128,-1,40
 893 145 893 145 904 153 c 0,41,42
 912 158 912 158 921.5 167.5 c 128,-1,43
 931 177 931 177 936 184 c 0,44,45
 951 206 951 206 956 233 c 0,46,47
 958 242 958 242 958 322.5 c 128,-1,48
 958 403 958 403 956 412 c 0,49,50
 951 436 951 436 938.5 456.5 c 128,-1,51
 926 477 926 477 908 490 c 0,52,53
 902 495 902 495 826 540 c 2,54,-1
 751 586 l 1,55,-1
 750 678 l 2,56,57
 749 745 749 745 748.5 758.5 c 128,-1,58
 748 772 748 772 743 786 c 1,59,-1
 743 786 l 1,60,61
 737 803 737 803 724.5 819.5 c 128,-1,62
 712 836 712 836 698 846 c 0,63,64
 690 851 690 851 626 889.5 c 128,-1,65
 562 928 562 928 553.5 932 c 128,-1,66
 545 936 545 936 534 940 c 0,67,68
 527 942 527 942 521.5 942.5 c 128,-1,69
 516 943 516 943 503 943 c 0,70,71
 483 944 483 944 480 943 c 0,0,1
516 858 m 0,72,73
 521 855 521 855 573.5 823.5 c 128,-1,74
 626 792 626 792 624 790 c 128,-1,75
 622 788 622 788 561.5 752 c 128,-1,76
 501 716 501 716 500 716 c 128,-1,77
 499 716 499 716 438.5 752 c 128,-1,78
 378 788 378 788 376 790 c 128,-1,79
 374 792 374 792 426 823 c 2,80,-1
 482 857 l 2,81,82
 489 860 489 860 498.5 860.5 c 128,-1,83
 508 861 508 861 516 858 c 0,72,73
397 680 m 2,84,85
 458 643 458 643 458.5 642 c 128,-1,86
 459 641 459 641 458 576 c 2,87,-1
 458 512 l 1,88,-1
 334 586 l 1,89,-1
 334 652 l 2,90,91
 334 718 334 718 335 717 c 2,92,-1
 397 680 l 2,84,85
665 586 m 256,93,94
 664 585 664 585 603 548 c 2,95,-1
 542 512 l 1,96,-1
 542 577 l 2,97,98
 541 642 541 642 542.5 643.5 c 128,-1,99
 544 645 544 645 605 681 c 2,100,-1
 666 718 l 1,101,-1
 666 652 l 2,102,103
 666 587 666 587 665 586 c 256,93,94
355 476 m 0,104,105
 418 438 418 438 418 437.5 c 128,-1,106
 418 437 418 437 355 399 c 2,107,-1
 292 361 l 1,108,-1
 228 399 l 2,109,110
 165 437 165 437 165 437.5 c 128,-1,111
 165 438 165 438 227.5 475.5 c 128,-1,112
 290 513 290 513 290.5 513.5 c 128,-1,113
 291 514 291 514 355 476 c 0,104,105
772 476 m 2,114,115
 835 438 835 438 835 437.5 c 128,-1,116
 835 437 835 437 772 399 c 2,117,-1
 708 361 l 1,118,-1
 645 399 l 2,119,120
 582 437 582 437 582.5 437.5 c 128,-1,121
 583 438 583 438 645.5 476 c 128,-1,122
 708 514 708 514 709 513 c 2,123,-1
 772 476 l 2,114,115
193 323 m 1,124,-1
 249 289 l 1,125,-1
 250 223 l 2,126,127
 250 158 250 158 249.5 158 c 128,-1,128
 249 158 249 158 195.5 190 c 128,-1,129
 142 222 142 222 137 227 c 128,-1,130
 132 232 132 232 129 239 c 2,131,-1
 126 246 l 1,132,-1
 125 364 l 1,133,-1
 192 323 l 1,134,-1
 193 323 l 1,124,-1
458 233 m 0,135,136
 458 232 458 232 401 197.5 c 128,-1,137
 344 163 344 163 335 158 c 0,138,139
 334 157 334 157 334 223 c 2,140,-1
 334 289 l 1,141,-1
 458 364 l 1,142,-1
 458 299 l 2,143,144
 459 234 459 234 458 233 c 0,135,136
610 323 m 1,145,-1
 666 289 l 1,146,-1
 666 157 l 1,147,-1
 542 232 l 1,148,-1
 541 364 l 1,149,-1
 610 323 l 1,145,-1
875 291 m 2,150,-1
 874 246 l 1,151,-1
 871 239 l 2,152,153
 868 232 868 232 863 227 c 128,-1,154
 858 222 858 222 804.5 190 c 128,-1,155
 751 158 751 158 750.5 158 c 128,-1,156
 750 158 750 158 750 223 c 2,157,-1
 751 289 l 1,158,-1
 874 364 l 1,159,-1
 875 350 l 2,160,161
 875 337 875 337 875 291 c 2,150,-1
EndSplineSet
Validated: 41
EndChar

StartChar: building-2
Encoding: 57999 57999 6
Width: 1000
GlyphClass: 1
Flags: W
LayerCount: 2
Fore
SplineSet
321 957 m 0,0,1
 299 955 299 955 278 945 c 0,2,3
 255 933 255 933 238 913 c 128,-1,4
 221 893 221 893 213 867 c 2,5,-1
 209 856 l 1,6,-1
 209 541 l 1,7,-1
 181 541 l 2,8,9
 157 541 157 541 145.5 539.5 c 128,-1,10
 134 538 134 538 121 533 c 0,11,12
 94 522 94 522 74 500 c 128,-1,13
 54 478 54 478 46 450 c 0,14,15
 43 437 43 437 42 412.5 c 128,-1,16
 41 388 41 388 41 283 c 2,17,-1
 42 149 l 1,18,-1
 45 137 l 2,19,20
 50 119 50 119 58 105.5 c 128,-1,21
 66 92 66 92 79 79 c 128,-1,22
 92 66 92 66 105.5 58 c 128,-1,23
 119 50 119 50 137 45 c 2,24,-1
 149 42 l 1,25,-1
 851 42 l 1,26,-1
 863 45 l 2,27,28
 881 50 881 50 894.5 58 c 128,-1,29
 908 66 908 66 921 79 c 128,-1,30
 934 92 934 92 942 105.5 c 128,-1,31
 950 119 950 119 955 137 c 2,32,-1
 958 149 l 1,33,-1
 959 346 l 2,34,35
 959 499 959 499 958 530 c 128,-1,36
 957 561 957 561 954 575 c 0,37,38
 946 603 946 603 926 625 c 128,-1,39
 906 647 906 647 879 658 c 0,40,41
 866 663 866 663 854.5 664.5 c 128,-1,42
 843 666 843 666 819 666 c 2,43,-1
 791 666 l 1,44,-1
 791 856 l 1,45,-1
 787 867 l 2,46,47
 779 893 779 893 762 913 c 128,-1,48
 745 933 745 933 722 945 c 0,49,50
 701 955 701 955 677 957 c 0,51,52
 664 959 664 959 498.5 959 c 128,-1,53
 333 959 333 959 321 957 c 0,0,1
684 871 m 2,54,55
 704 861 704 861 708 838 c 0,56,57
 709 830 709 830 709 478 c 2,58,-1
 709 125 l 1,59,-1
 291 125 l 1,60,-1
 291 478 l 2,61,62
 291 832 291 832 293 840 c 0,63,64
 295 852 295 852 303.5 861.5 c 128,-1,65
 312 871 312 871 323 874 c 0,66,67
 328 875 328 875 502 875 c 2,68,-1
 677 874 l 1,69,-1
 684 871 l 2,54,55
402 789 m 0,70,71
 395 786 395 786 388.5 780 c 128,-1,72
 382 774 382 774 379.5 768.5 c 128,-1,73
 377 763 377 763 376.5 760 c 128,-1,74
 376 757 376 757 376 750 c 0,75,76
 376 739 376 739 379 732 c 0,77,78
 387 717 387 717 402 711 c 0,79,80
 407 709 407 709 420 709 c 2,81,-1
 500 709 l 1,82,-1
 580 709 l 2,83,84
 593 709 593 709 598 711 c 0,85,86
 613 717 613 717 621 732 c 0,87,88
 624 739 624 739 624 750 c 0,89,90
 624 757 624 757 623.5 760 c 128,-1,91
 623 763 623 763 621 768 c 0,92,93
 618 774 618 774 611.5 780 c 128,-1,94
 605 786 605 786 599 788.5 c 128,-1,95
 593 791 593 791 580 791 c 2,96,-1
 500 791 l 1,97,-1
 420 791 l 2,98,99
 406 790 406 790 402 789 c 0,70,71
407 624 m 0,100,101
 401 622 401 622 394 617.5 c 128,-1,102
 387 613 387 613 384 608 c 0,103,104
 374 596 374 596 375 580.5 c 128,-1,105
 376 565 376 565 388 554 c 0,106,107
 397 545 397 545 409 543 c 0,108,109
 417 541 417 541 500 541 c 128,-1,110
 583 541 583 541 591 543 c 0,111,112
 603 545 603 545 612 554 c 0,113,114
 628 570 628 570 624 591 c 128,-1,115
 620 612 620 612 599 622 c 2,116,-1
 593 624 l 1,117,-1
 503 625 l 2,118,119
 412 625 412 625 407 624 c 0,100,101
840 582 m 0,120,121
 862 579 862 579 871 559 c 2,122,-1
 874 552 l 1,123,-1
 874 157 l 1,124,-1
 872 151 l 2,125,126
 866 139 866 139 857 132 c 0,127,128
 850 128 850 128 842.5 126.5 c 128,-1,129
 835 125 835 125 815 125 c 2,130,-1
 791 125 l 1,131,-1
 791 584 l 1,132,-1
 812 584 l 2,133,134
 832 584 832 584 840 582 c 0,120,121
209 292 m 1,135,-1
 209 125 l 1,136,-1
 185 125 l 2,137,138
 165 125 165 125 157.5 126.5 c 128,-1,139
 150 128 150 128 143 132 c 0,140,141
 134 139 134 139 128 151 c 2,142,-1
 126 157 l 1,143,-1
 126 427 l 1,144,-1
 129 434 l 2,145,146
 133 443 133 443 141 449.5 c 128,-1,147
 149 456 149 456 159 457 c 0,148,149
 166 459 166 459 187 459 c 2,150,-1
 209 459 l 1,151,-1
 209 292 l 1,135,-1
409 457 m 0,152,153
 396 455 396 455 386 444 c 128,-1,154
 376 433 376 433 375 419 c 0,155,156
 375 409 375 409 379.5 399 c 128,-1,157
 384 389 384 389 393 383 c 2,158,-1
 394 382 l 2,159,160
 399 378 399 378 405 377 c 128,-1,161
 411 376 411 376 430 375 c 2,162,-1
 570 375 l 2,163,164
 589 376 589 376 595 377 c 128,-1,165
 601 378 601 378 606 382 c 2,166,-1
 607 383 l 2,167,168
 622 393 622 393 624.5 409.5 c 128,-1,169
 627 426 627 426 617.5 440.5 c 128,-1,170
 608 455 608 455 590 457 c 0,171,172
 582 459 582 459 499 459 c 128,-1,173
 416 459 416 459 409 457 c 0,152,153
402 289 m 0,174,175
 395 286 395 286 388.5 280 c 128,-1,176
 382 274 382 274 379.5 268.5 c 128,-1,177
 377 263 377 263 376.5 260 c 128,-1,178
 376 257 376 257 376 250 c 0,179,180
 376 239 376 239 379 232 c 0,181,182
 387 217 387 217 402 211 c 0,183,184
 407 209 407 209 420 209 c 2,185,-1
 500 209 l 1,186,-1
 580 209 l 2,187,188
 593 209 593 209 598 211 c 0,189,190
 613 217 613 217 621 232 c 0,191,192
 624 239 624 239 624 250 c 0,193,194
 624 257 624 257 623.5 260 c 128,-1,195
 623 263 623 263 621 268 c 0,196,197
 618 274 618 274 611.5 280 c 128,-1,198
 605 286 605 286 599 288.5 c 128,-1,199
 593 291 593 291 580 291 c 2,200,-1
 500 291 l 1,201,-1
 420 291 l 2,202,203
 406 290 406 290 402 289 c 0,174,175
EndSplineSet
Validated: 553
EndChar

StartChar: circle-minus
Encoding: 57472 57472 7
Width: 1000
GlyphClass: 1
LayerCount: 2
Fore
SplineSet
478 957 m 0,0,1
 395 954 395 954 319 921 c 128,-1,2
 243 888 243 888 183 830.5 c 128,-1,3
 123 773 123 773 87 698 c 0,4,5
 52 626 52 626 44 544 c 0,6,7
 42 530 42 530 42 500 c 128,-1,8
 42 470 42 470 44 456 c 0,9,10
 52 374 52 374 87 302 c 0,11,12
 134 202 134 202 222.5 135 c 128,-1,13
 311 68 311 68 419 49 c 0,14,15
 457 42 457 42 500 42 c 0,16,17
 554 42 554 42 602.5 53 c 128,-1,18
 651 64 651 64 699 87 c 0,19,20
 789 131 789 131 853.5 208.5 c 128,-1,21
 918 286 918 286 943 383 c 0,22,23
 964 463 964 463 956 544 c 128,-1,24
 948 625 948 625 913 699 c 0,25,26
 871 785 871 785 797.5 848 c 128,-1,27
 724 911 724 911 632 939 c 0,28,29
 560 961 560 961 478 957 c 0,0,1
547 872 m 0,30,31
 624 862 624 862 689.5 823.5 c 128,-1,32
 755 785 755 785 801 723 c 0,33,34
 860 644 860 644 873 541 c 0,35,36
 874 529 874 529 874 500 c 128,-1,37
 874 471 874 471 873 459 c 0,38,39
 863 376 863 376 821.5 307 c 128,-1,40
 780 238 780 238 712 191 c 0,41,42
 678 167 678 167 637 151 c 128,-1,43
 596 135 596 135 552 129 c 0,44,45
 534 126 534 126 500 126 c 128,-1,46
 466 126 466 126 448 129 c 0,47,48
 371 140 371 140 308 178 c 128,-1,49
 245 216 245 216 199 277 c 0,50,51
 140 356 140 356 127 459 c 0,52,53
 126 471 126 471 126 500 c 128,-1,54
 126 529 126 529 127 541 c 0,55,56
 137 621 137 621 175 687.5 c 128,-1,57
 213 754 213 754 277 801 c 0,58,59
 316 830 316 830 363.5 849 c 128,-1,60
 411 868 411 868 458 872 c 2,61,-1
 476 874 l 2,62,63
 483 875 483 875 510 874 c 128,-1,64
 537 873 537 873 547 872 c 0,30,31
320 539 m 0,65,66
 303 533 303 533 295.5 516 c 128,-1,67
 288 499 288 499 295 483 c 0,68,69
 299 476 299 476 305 470 c 128,-1,70
 311 464 311 464 317 461.5 c 128,-1,71
 323 459 323 459 346 459 c 2,72,-1
 500 459 l 1,73,-1
 654 459 l 2,74,75
 677 459 677 459 683 461.5 c 128,-1,76
 689 464 689 464 695 470 c 128,-1,77
 701 476 701 476 704.5 483.5 c 128,-1,78
 708 491 708 491 708 500 c 128,-1,79
 708 509 708 509 705 517 c 0,80,81
 698 531 698 531 684 538 c 2,82,-1
 678 541 l 1,83,-1
 501 541 l 2,84,85
 324 541 324 541 320 539 c 0,65,66
EndSplineSet
Validated: 553
EndChar

StartChar: circle-pause
Encoding: 57473 57473 8
Width: 1000
GlyphClass: 1
LayerCount: 2
Fore
SplineSet
478 957 m 0,0,1
 395 954 395 954 319 921 c 128,-1,2
 243 888 243 888 183 830.5 c 128,-1,3
 123 773 123 773 87 698 c 0,4,5
 52 626 52 626 44 544 c 0,6,7
 42 530 42 530 42 500 c 128,-1,8
 42 470 42 470 44 456 c 0,9,10
 52 374 52 374 87 302 c 0,11,12
 134 202 134 202 222.5 135 c 128,-1,13
 311 68 311 68 419 49 c 0,14,15
 457 42 457 42 500 42 c 0,16,17
 554 42 554 42 602.5 53 c 128,-1,18
 651 64 651 64 699 87 c 0,19,20
 789 131 789 131 853.5 208.5 c 128,-1,21
 918 286 918 286 943 383 c 0,22,23
 964 463 964 463 956 544 c 128,-1,24
 948 625 948 625 913 699 c 0,25,26
 871 785 871 785 797.5 848 c 128,-1,27
 724 911 724 911 632 939 c 0,28,29
 560 961 560 961 478 957 c 0,0,1
547 872 m 0,30,31
 624 862 624 862 689.5 823.5 c 128,-1,32
 755 785 755 785 801 723 c 0,33,34
 860 644 860 644 873 541 c 0,35,36
 874 529 874 529 874 500 c 128,-1,37
 874 471 874 471 873 459 c 0,38,39
 863 376 863 376 821.5 307 c 128,-1,40
 780 238 780 238 712 191 c 0,41,42
 678 167 678 167 637 151 c 128,-1,43
 596 135 596 135 552 129 c 0,44,45
 534 126 534 126 500 126 c 128,-1,46
 466 126 466 126 448 129 c 0,47,48
 371 140 371 140 308 178 c 128,-1,49
 245 216 245 216 199 277 c 0,50,51
 140 356 140 356 127 459 c 0,52,53
 126 471 126 471 126 500 c 128,-1,54
 126 529 126 529 127 541 c 0,55,56
 137 621 137 621 175 687.5 c 128,-1,57
 213 754 213 754 277 801 c 0,58,59
 316 830 316 830 363.5 849 c 128,-1,60
 411 868 411 868 458 872 c 2,61,-1
 476 874 l 2,62,63
 483 875 483 875 510 874 c 128,-1,64
 537 873 537 873 547 872 c 0,30,31
402 664 m 0,65,66
 395 661 395 661 388.5 655 c 128,-1,67
 382 649 382 649 379 643 c 2,68,-1
 376 636 l 1,69,-1
 376 364 l 1,70,-1
 379 357 l 2,71,72
 388 338 388 338 409 334.5 c 128,-1,73
 430 331 430 331 445 345 c 0,74,75
 451 351 451 351 455 358 c 2,76,-1
 458 366 l 1,77,-1
 458 634 l 1,78,-1
 455 642 l 2,79,80
 448 656 448 656 434 663 c 0,81,82
 428 666 428 666 418.5 666 c 128,-1,83
 409 666 409 666 402 664 c 0,65,66
570 664 m 0,84,85
 553 658 553 658 545 640 c 2,86,-1
 542 634 l 1,87,-1
 542 366 l 1,88,-1
 545 358 l 2,89,90
 549 351 549 351 555 345 c 0,91,92
 570 331 570 331 591 334.5 c 128,-1,93
 612 338 612 338 621 357 c 2,94,-1
 624 364 l 1,95,-1
 624 636 l 1,96,-1
 621 643 l 2,97,98
 618 649 618 649 611.5 655 c 128,-1,99
 605 661 605 661 598.5 663.5 c 128,-1,100
 592 666 592 666 583.5 666 c 128,-1,101
 575 666 575 666 570 664 c 0,84,85
EndSplineSet
Validated: 553
EndChar

StartChar: circle-play
Encoding: 57474 57474 9
Width: 1000
GlyphClass: 1
LayerCount: 2
Fore
SplineSet
478 957 m 0,0,1
 395 954 395 954 319 921 c 128,-1,2
 243 888 243 888 183 830.5 c 128,-1,3
 123 773 123 773 87 698 c 0,4,5
 52 626 52 626 44 544 c 0,6,7
 42 530 42 530 42 500 c 128,-1,8
 42 470 42 470 44 456 c 0,9,10
 52 374 52 374 87 302 c 0,11,12
 134 202 134 202 222.5 135 c 128,-1,13
 311 68 311 68 419 49 c 0,14,15
 457 42 457 42 500 42 c 0,16,17
 554 42 554 42 602.5 53 c 128,-1,18
 651 64 651 64 699 87 c 0,19,20
 789 131 789 131 853.5 208.5 c 128,-1,21
 918 286 918 286 943 383 c 0,22,23
 964 463 964 463 956 544 c 128,-1,24
 948 625 948 625 913 699 c 0,25,26
 871 785 871 785 797.5 848 c 128,-1,27
 724 911 724 911 632 939 c 0,28,29
 560 961 560 961 478 957 c 0,0,1
547 872 m 0,30,31
 624 862 624 862 689.5 823.5 c 128,-1,32
 755 785 755 785 801 723 c 0,33,34
 860 644 860 644 873 541 c 0,35,36
 874 529 874 529 874 500 c 128,-1,37
 874 471 874 471 873 459 c 0,38,39
 863 376 863 376 821.5 307 c 128,-1,40
 780 238 780 238 712 191 c 0,41,42
 678 167 678 167 637 151 c 128,-1,43
 596 135 596 135 552 129 c 0,44,45
 534 126 534 126 500 126 c 128,-1,46
 466 126 466 126 448 129 c 0,47,48
 371 140 371 140 308 178 c 128,-1,49
 245 216 245 216 199 277 c 0,50,51
 140 356 140 356 127 459 c 0,52,53
 126 471 126 471 126 500 c 128,-1,54
 126 529 126 529 127 541 c 0,55,56
 137 621 137 621 175 687.5 c 128,-1,57
 213 754 213 754 277 801 c 0,58,59
 316 830 316 830 363.5 849 c 128,-1,60
 411 868 411 868 458 872 c 2,61,-1
 476 874 l 2,62,63
 483 875 483 875 510 874 c 128,-1,64
 537 873 537 873 547 872 c 0,30,31
409 707 m 0,65,66
 400 706 400 706 391.5 699.5 c 128,-1,67
 383 693 383 693 379 684 c 2,68,-1
 376 677 l 1,69,-1
 376 323 l 1,70,-1
 379 316 l 2,71,72
 385 303 385 303 399 296 c 128,-1,73
 413 289 413 289 427 293 c 0,74,75
 432 294 432 294 458.5 311.5 c 128,-1,76
 485 329 485 329 564 382 c 0,77,78
 694 468 694 468 698 472 c 0,79,80
 708 484 708 484 708 499.5 c 128,-1,81
 708 515 708 515 698 527 c 0,82,83
 695 531 695 531 567.5 616 c 128,-1,84
 440 701 440 701 433 704 c 0,85,86
 422 709 422 709 409 707 c 0,65,66
526 544 m 0,87,88
 591 500 591 500 591 499 c 2,89,-1
 459 411 l 1,90,-1
 459 499 l 2,91,92
 459 587 459 587 459.5 587.5 c 128,-1,93
 460 588 460 588 526 544 c 0,87,88
EndSplineSet
Validated: 553
EndChar

StartChar: circle-plus
Encoding: 57475 57475 10
Width: 1000
GlyphClass: 1
LayerCount: 2
Fore
SplineSet
478 957 m 0,0,1
 395 954 395 954 319 921 c 128,-1,2
 243 888 243 888 183 830.5 c 128,-1,3
 123 773 123 773 87 698 c 0,4,5
 52 626 52 626 44 544 c 0,6,7
 42 530 42 530 42 500 c 128,-1,8
 42 470 42 470 44 456 c 0,9,10
 52 374 52 374 87 302 c 0,11,12
 134 202 134 202 222.5 135 c 128,-1,13
 311 68 311 68 419 49 c 0,14,15
 457 42 457 42 500 42 c 0,16,17
 554 42 554 42 602.5 53 c 128,-1,18
 651 64 651 64 699 87 c 0,19,20
 789 131 789 131 853.5 208.5 c 128,-1,21
 918 286 918 286 943 383 c 0,22,23
 964 463 964 463 956 544 c 128,-1,24
 948 625 948 625 913 699 c 0,25,26
 871 785 871 785 797.5 848 c 128,-1,27
 724 911 724 911 632 939 c 0,28,29
 560 961 560 961 478 957 c 0,0,1
547 872 m 0,30,31
 624 862 624 862 689.5 823.5 c 128,-1,32
 755 785 755 785 801 723 c 0,33,34
 860 644 860 644 873 541 c 0,35,36
 874 529 874 529 874 500 c 128,-1,37
 874 471 874 471 873 459 c 0,38,39
 863 376 863 376 821.5 307 c 128,-1,40
 780 238 780 238 712 191 c 0,41,42
 678 167 678 167 637 151 c 128,-1,43
 596 135 596 135 552 129 c 0,44,45
 534 126 534 126 500 126 c 128,-1,46
 466 126 466 126 448 129 c 0,47,48
 371 140 371 140 308 178 c 128,-1,49
 245 216 245 216 199 277 c 0,50,51
 140 356 140 356 127 459 c 0,52,53
 126 471 126 471 126 500 c 128,-1,54
 126 529 126 529 127 541 c 0,55,56
 137 621 137 621 175 687.5 c 128,-1,57
 213 754 213 754 277 801 c 0,58,59
 316 830 316 830 363.5 849 c 128,-1,60
 411 868 411 868 458 872 c 2,61,-1
 476 874 l 2,62,63
 483 875 483 875 510 874 c 128,-1,64
 537 873 537 873 547 872 c 0,30,31
493 707 m 0,65,66
 486 706 486 706 480.5 703.5 c 128,-1,67
 475 701 475 701 469.5 694.5 c 128,-1,68
 464 688 464 688 461.5 682.5 c 128,-1,69
 459 677 459 677 459 667 c 2,70,-1
 459 541 l 1,71,-1
 322 541 l 1,72,-1
 316 538 l 2,73,74
 300 530 300 530 294.5 514 c 128,-1,75
 289 498 289 498 295 483 c 0,76,77
 299 476 299 476 305 470 c 128,-1,78
 311 464 311 464 317 461.5 c 128,-1,79
 323 459 323 459 333 459 c 2,80,-1
 459 459 l 1,81,-1
 459 333 l 2,82,83
 459 323 459 323 461.5 317 c 128,-1,84
 464 311 464 311 470 305 c 128,-1,85
 476 299 476 299 483.5 295.5 c 128,-1,86
 491 292 491 292 500 292 c 128,-1,87
 509 292 509 292 516.5 295.5 c 128,-1,88
 524 299 524 299 530 305 c 128,-1,89
 536 311 536 311 538.5 317 c 128,-1,90
 541 323 541 323 541 333 c 2,91,-1
 541 459 l 1,92,-1
 667 459 l 2,93,94
 677 459 677 459 683 461.5 c 128,-1,95
 689 464 689 464 695 470 c 128,-1,96
 701 476 701 476 704.5 483.5 c 128,-1,97
 708 491 708 491 708 500 c 128,-1,98
 708 509 708 509 705 517 c 0,99,100
 698 531 698 531 684 538 c 2,101,-1
 678 541 l 1,102,-1
 541 541 l 1,103,-1
 541 666 l 2,104,105
 541 677 541 677 539 681 c 0,106,107
 534 695 534 695 521 702.5 c 128,-1,108
 508 710 508 710 493 707 c 0,65,66
EndSplineSet
Validated: 553
EndChar

StartChar: circle-stop
Encoding: 57476 57476 11
Width: 1000
GlyphClass: 1
LayerCount: 2
Fore
SplineSet
478 957 m 0,0,1
 395 954 395 954 319 921 c 128,-1,2
 243 888 243 888 183 830.5 c 128,-1,3
 123 773 123 773 87 698 c 0,4,5
 52 626 52 626 44 544 c 0,6,7
 42 530 42 530 42 500 c 128,-1,8
 42 470 42 470 44 456 c 0,9,10
 52 374 52 374 87 302 c 0,11,12
 134 202 134 202 222.5 135 c 128,-1,13
 311 68 311 68 419 49 c 0,14,15
 457 42 457 42 500 42 c 0,16,17
 554 42 554 42 602.5 53 c 128,-1,18
 651 64 651 64 699 87 c 0,19,20
 789 131 789 131 853.5 208.5 c 128,-1,21
 918 286 918 286 943 383 c 0,22,23
 964 463 964 463 956 544 c 128,-1,24
 948 625 948 625 913 699 c 0,25,26
 871 785 871 785 797.5 848 c 128,-1,27
 724 911 724 911 632 939 c 0,28,29
 560 961 560 961 478 957 c 0,0,1
547 872 m 0,30,31
 624 862 624 862 689.5 823.5 c 128,-1,32
 755 785 755 785 801 723 c 0,33,34
 860 644 860 644 873 541 c 0,35,36
 874 529 874 529 874 500 c 128,-1,37
 874 471 874 471 873 459 c 0,38,39
 863 376 863 376 821.5 307 c 128,-1,40
 780 238 780 238 712 191 c 0,41,42
 678 167 678 167 637 151 c 128,-1,43
 596 135 596 135 552 129 c 0,44,45
 534 126 534 126 500 126 c 128,-1,46
 466 126 466 126 448 129 c 0,47,48
 371 140 371 140 308 178 c 128,-1,49
 245 216 245 216 199 277 c 0,50,51
 140 356 140 356 127 459 c 0,52,53
 126 471 126 471 126 500 c 128,-1,54
 126 529 126 529 127 541 c 0,55,56
 137 621 137 621 175 687.5 c 128,-1,57
 213 754 213 754 277 801 c 0,58,59
 316 830 316 830 363.5 849 c 128,-1,60
 411 868 411 868 458 872 c 2,61,-1
 476 874 l 2,62,63
 483 875 483 875 510 874 c 128,-1,64
 537 873 537 873 547 872 c 0,30,31
364 665 m 0,65,66
 356 663 356 663 348.5 656.5 c 128,-1,67
 341 650 341 650 337 643 c 2,68,-1
 334 637 l 1,69,-1
 334 363 l 1,70,-1
 337 357 l 2,71,72
 340 352 340 352 346 346 c 128,-1,73
 352 340 352 340 357 337 c 2,74,-1
 363 334 l 1,75,-1
 637 334 l 1,76,-1
 643 337 l 2,77,78
 648 340 648 340 654 346 c 128,-1,79
 660 352 660 352 663 357 c 2,80,-1
 666 363 l 1,81,-1
 666 637 l 1,82,-1
 663 643 l 2,83,84
 656 655 656 655 643 662 c 2,85,-1
 637 666 l 1,86,-1
 502 666 l 2,87,88
 367 666 367 666 364 665 c 0,65,66
584 500 m 1,89,-1
 584 416 l 1,90,-1
 416 416 l 1,91,-1
 416 584 l 1,92,-1
 584 584 l 1,93,-1
 584 500 l 1,89,-1
EndSplineSet
Validated: 553
EndChar

StartChar: circle-x
Encoding: 57477 57477 12
Width: 1000
GlyphClass: 1
LayerCount: 2
Fore
SplineSet
478 957 m 0,0,1
 395 954 395 954 319 921 c 128,-1,2
 243 888 243 888 183 830.5 c 128,-1,3
 123 773 123 773 87 698 c 0,4,5
 52 626 52 626 44 544 c 0,6,7
 42 530 42 530 42 500 c 128,-1,8
 42 470 42 470 44 456 c 0,9,10
 52 374 52 374 87 302 c 0,11,12
 134 202 134 202 222.5 135 c 128,-1,13
 311 68 311 68 419 49 c 0,14,15
 457 42 457 42 500 42 c 0,16,17
 554 42 554 42 602.5 53 c 128,-1,18
 651 64 651 64 699 87 c 0,19,20
 789 131 789 131 853.5 208.5 c 128,-1,21
 918 286 918 286 943 383 c 0,22,23
 964 463 964 463 956 544 c 128,-1,24
 948 625 948 625 913 699 c 0,25,26
 871 785 871 785 797.5 848 c 128,-1,27
 724 911 724 911 632 939 c 0,28,29
 560 961 560 961 478 957 c 0,0,1
547 872 m 0,30,31
 624 862 624 862 689.5 823.5 c 128,-1,32
 755 785 755 785 801 723 c 0,33,34
 860 644 860 644 873 541 c 0,35,36
 874 529 874 529 874 500 c 128,-1,37
 874 471 874 471 873 459 c 0,38,39
 863 376 863 376 821.5 307 c 128,-1,40
 780 238 780 238 712 191 c 0,41,42
 678 167 678 167 637 151 c 128,-1,43
 596 135 596 135 552 129 c 0,44,45
 534 126 534 126 500 126 c 128,-1,46
 466 126 466 126 448 129 c 0,47,48
 371 140 371 140 308 178 c 128,-1,49
 245 216 245 216 199 277 c 0,50,51
 140 356 140 356 127 459 c 0,52,53
 126 471 126 471 126 500 c 128,-1,54
 126 529 126 529 127 541 c 0,55,56
 137 621 137 621 175 687.5 c 128,-1,57
 213 754 213 754 277 801 c 0,58,59
 316 830 316 830 363.5 849 c 128,-1,60
 411 868 411 868 458 872 c 2,61,-1
 476 874 l 2,62,63
 483 875 483 875 510 874 c 128,-1,64
 537 873 537 873 547 872 c 0,30,31
364 665 m 0,65,66
 346 659 346 659 337 643 c 0,67,68
 334 637 334 637 334 625 c 128,-1,69
 334 613 334 613 337.5 607 c 128,-1,70
 341 601 341 601 391 550 c 2,71,-1
 441 500 l 1,72,-1
 391 450 l 2,73,74
 341 399 341 399 337.5 393 c 128,-1,75
 334 387 334 387 334 376 c 128,-1,76
 334 365 334 365 336.5 359 c 128,-1,77
 339 353 339 353 346 346 c 128,-1,78
 353 339 353 339 359 336.5 c 128,-1,79
 365 334 365 334 376 334 c 128,-1,80
 387 334 387 334 393 337.5 c 128,-1,81
 399 341 399 341 450 391 c 2,82,-1
 500 441 l 1,83,-1
 550 391 l 2,84,85
 601 341 601 341 607 337.5 c 128,-1,86
 613 334 613 334 624 334 c 128,-1,87
 635 334 635 334 641 336.5 c 128,-1,88
 647 339 647 339 654 346 c 128,-1,89
 661 353 661 353 663.5 359 c 128,-1,90
 666 365 666 365 666 376 c 128,-1,91
 666 387 666 387 662.5 393 c 128,-1,92
 659 399 659 399 609 450 c 2,93,-1
 560 500 l 1,94,-1
 609 550 l 2,95,96
 659 601 659 601 662.5 607 c 128,-1,97
 666 613 666 613 666 625 c 128,-1,98
 666 637 666 637 663 643 c 0,99,100
 656 655 656 655 643 662 c 0,101,102
 639 664 639 664 636 665 c 128,-1,103
 633 666 633 666 625 666 c 2,104,-1
 624 666 l 2,105,106
 614 666 614 666 608.5 663.5 c 128,-1,107
 603 661 603 661 591 650 c 0,108,109
 582 642 582 642 552 612 c 2,110,-1
 500 559 l 1,111,-1
 450 609 l 2,112,113
 419 640 419 640 410 648 c 0,114,115
 397 660 397 660 391.5 662.5 c 128,-1,116
 386 665 386 665 376.5 665.5 c 128,-1,117
 367 666 367 666 364 665 c 0,65,66
EndSplineSet
Validated: 553
EndChar

StartChar: circle
Encoding: 57463 57463 13
Width: 1000
GlyphClass: 1
LayerCount: 2
Fore
SplineSet
478 957 m 0,0,1
 395 954 395 954 319 921 c 128,-1,2
 243 888 243 888 183 830.5 c 128,-1,3
 123 773 123 773 87 698 c 0,4,5
 52 626 52 626 44 544 c 0,6,7
 42 530 42 530 42 500 c 128,-1,8
 42 470 42 470 44 456 c 0,9,10
 52 374 52 374 87 302 c 0,11,12
 134 202 134 202 222.5 135 c 128,-1,13
 311 68 311 68 419 49 c 0,14,15
 457 42 457 42 500 42 c 0,16,17
 554 42 554 42 602.5 53 c 128,-1,18
 651 64 651 64 699 87 c 0,19,20
 789 131 789 131 853.5 208.5 c 128,-1,21
 918 286 918 286 943 383 c 0,22,23
 964 463 964 463 956 544 c 128,-1,24
 948 625 948 625 913 699 c 0,25,26
 871 785 871 785 797.5 848 c 128,-1,27
 724 911 724 911 632 939 c 0,28,29
 560 961 560 961 478 957 c 0,0,1
547 872 m 0,30,31
 624 862 624 862 689.5 823.5 c 128,-1,32
 755 785 755 785 801 723 c 0,33,34
 860 644 860 644 873 541 c 0,35,36
 874 529 874 529 874 500 c 128,-1,37
 874 471 874 471 873 459 c 0,38,39
 863 376 863 376 821.5 307 c 128,-1,40
 780 238 780 238 712 191 c 0,41,42
 678 167 678 167 637 151 c 128,-1,43
 596 135 596 135 552 129 c 0,44,45
 534 126 534 126 500 126 c 128,-1,46
 466 126 466 126 448 129 c 0,47,48
 371 140 371 140 308 178 c 128,-1,49
 245 216 245 216 199 277 c 0,50,51
 140 356 140 356 127 459 c 0,52,53
 126 471 126 471 126 500 c 128,-1,54
 126 529 126 529 127 541 c 0,55,56
 137 621 137 621 175 687.5 c 128,-1,57
 213 754 213 754 277 801 c 0,58,59
 316 830 316 830 363.5 849 c 128,-1,60
 411 868 411 868 458 872 c 2,61,-1
 476 874 l 2,62,63
 483 875 483 875 510 874 c 128,-1,64
 537 873 537 873 547 872 c 0,30,31
EndSplineSet
EndChar

StartChar: code-xml
Encoding: 57860 57860 14
Width: 1000
GlyphClass: 1
Flags: W
LayerCount: 2
Fore
SplineSet
594 874 m 0,0,1
 577 869 577 869 568 854 c 0,2,3
 565 848 565 848 460 512 c 0,4,5
 385 274 385 274 370 223.5 c 128,-1,6
 355 173 355 173 355 166 c 0,7,8
 355 157 355 157 358 150 c 0,9,10
 365 136 365 136 377 130 c 0,11,12
 383 127 383 127 386 126.5 c 128,-1,13
 389 126 389 126 396 126 c 0,14,15
 407 126 407 126 413 129 c 0,16,17
 426 135 426 135 432 146 c 0,18,19
 435 152 435 152 540 488 c 0,20,21
 615 726 615 726 630 776.5 c 128,-1,22
 645 827 645 827 645 834 c 0,23,24
 645 843 645 843 642 850 c 0,25,26
 637 861 637 861 627.5 867.5 c 128,-1,27
 618 874 618 874 607 874 c 0,28,29
 598 875 598 875 594 874 c 0,0,1
243 707 m 0,30,31
 236 706 236 706 231 703.5 c 128,-1,32
 226 701 226 701 137 613 c 2,33,-1
 125 601 l 2,34,35
 79 554 79 554 67 542 c 0,36,37
 49 523 49 523 45 516 c 0,38,39
 42 511 42 511 42 502 c 2,40,-1
 42 498 l 2,41,42
 42 489 42 489 45 484 c 0,43,44
 49 477 49 477 67 458 c 0,45,46
 79 445 79 445 125 399 c 2,47,-1
 149 375 l 2,48,49
 195 329 195 329 208 317 c 0,50,51
 227 299 227 299 234 295 c 0,52,53
 239 292 239 292 248 292 c 2,54,-1
 250 292 l 2,55,56
 267 292 267 292 280 305 c 0,57,58
 288 313 288 313 290.5 325 c 128,-1,59
 293 337 293 337 289 348 c 0,60,61
 287 354 287 354 276 365.5 c 128,-1,62
 265 377 265 377 214 428 c 2,63,-1
 142 500 l 1,64,-1
 214 572 l 2,65,66
 265 623 265 623 276 634.5 c 128,-1,67
 287 646 287 646 289 652 c 0,68,69
 294 667 294 667 289 680.5 c 128,-1,70
 284 694 284 694 271.5 702 c 128,-1,71
 259 710 259 710 243 707 c 0,30,31
743 707 m 0,72,73
 730 705 730 705 720 695 c 0,74,75
 712 687 712 687 709.5 675 c 128,-1,76
 707 663 707 663 711 652 c 0,77,78
 713 646 713 646 724 634.5 c 128,-1,79
 735 623 735 623 786 572 c 2,80,-1
 858 500 l 1,81,-1
 786 428 l 2,82,83
 735 377 735 377 724 365.5 c 128,-1,84
 713 354 713 354 711 348 c 0,85,86
 707 337 707 337 709.5 325 c 128,-1,87
 712 313 712 313 720 305 c 0,88,89
 733 292 733 292 750 292 c 2,90,-1
 752 292 l 2,91,92
 761 292 761 292 766 295 c 0,93,94
 773 299 773 299 792 317 c 0,95,96
 805 329 805 329 851 375 c 2,97,-1
 875 399 l 2,98,99
 921 445 921 445 933 458 c 0,100,101
 951 477 951 477 955 484 c 0,102,103
 958 489 958 489 958 498 c 2,104,-1
 958 502 l 2,105,106
 958 511 958 511 955 516 c 0,107,108
 951 523 951 523 934 541 c 0,109,110
 922 554 922 554 876 599 c 2,111,-1
 865 611 l 1,112,113
 778 698 778 698 773 701 c 0,114,115
 760 710 760 710 743 707 c 0,72,73
EndSplineSet
Validated: 521
EndChar

StartChar: codepen
Encoding: 57493 57493 15
Width: 1000
GlyphClass: 1
Flags: W
LayerCount: 2
Fore
SplineSet
489 957 m 0,0,1
 482 955 482 955 468 946 c 2,2,-1
 256 808 l 2,3,4
 57 678 57 678 52.5 673.5 c 128,-1,5
 48 669 48 669 45 662 c 2,6,-1
 42 656 l 1,7,-1
 42 344 l 1,8,-1
 45 338 l 2,9,10
 48 331 48 331 52 326.5 c 128,-1,11
 56 322 56 322 266.5 185 c 128,-1,12
 477 48 477 48 484 45 c 128,-1,13
 491 42 491 42 500 42 c 128,-1,14
 509 42 509 42 516 45 c 128,-1,15
 523 48 523 48 733.5 185 c 128,-1,16
 944 322 944 322 948 326.5 c 128,-1,17
 952 331 952 331 955 337 c 2,18,-1
 958 344 l 1,19,-1
 958 656 l 1,20,-1
 955 662 l 2,21,22
 953 668 953 668 949 672.5 c 128,-1,23
 945 677 945 677 736 813 c 128,-1,24
 527 949 527 949 519 953 c 0,25,26
 504 961 504 961 489 957 c 0,0,1
459 754 m 2,27,-1
 459 668 l 1,28,-1
 292 551 l 2,29,30
 291 551 291 551 225 597.5 c 128,-1,31
 159 644 159 644 160 645 c 2,32,-1
 458 840 l 2,33,34
 459 840 459 840 459 754 c 2,27,-1
696 739 m 2,35,36
 838 647 838 647 839.5 646 c 128,-1,37
 841 645 841 645 828.5 635.5 c 128,-1,38
 816 626 816 626 775 598 c 0,39,40
 709 551 709 551 708 551 c 2,41,-1
 541 668 l 1,42,-1
 541 840 l 1,43,-1
 696 739 l 2,35,36
568 548 m 2,44,45
 635 501 635 501 635 500 c 128,-1,46
 635 499 635 499 567 452 c 2,47,-1
 500 405 l 1,48,-1
 433 452 l 2,49,50
 365 499 365 499 365 500 c 128,-1,51
 365 501 365 501 432 548 c 128,-1,52
 499 595 499 595 500 595 c 2,53,-1
 568 548 l 2,44,45
168 535 m 0,54,55
 209 507 209 507 215 503 c 2,56,-1
 219 500 l 1,57,-1
 173 467 l 2,58,59
 126 435 126 435 125.5 435 c 128,-1,60
 125 435 125 435 125 500 c 128,-1,61
 125 565 125 565 125.5 565 c 128,-1,62
 126 565 126 565 168 535 c 0,54,55
875 500 m 256,63,64
 875 435 875 435 874.5 435 c 128,-1,65
 874 435 874 435 827 467 c 2,66,-1
 781 500 l 1,67,-1
 787 504 l 2,68,69
 873 565 873 565 874 565 c 128,-1,70
 875 565 875 565 875 500 c 256,63,64
376 390 m 2,71,-1
 459 332 l 1,72,-1
 459 160 l 1,73,-1
 307 258 l 2,74,75
 162 353 162 353 160.5 354 c 128,-1,76
 159 355 159 355 171.5 364.5 c 128,-1,77
 184 374 184 374 225 402 c 0,78,79
 291 449 291 449 292.5 448.5 c 128,-1,80
 294 448 294 448 376 390 c 2,71,-1
775 402 m 2,81,82
 816 374 816 374 828.5 364.5 c 128,-1,83
 841 355 841 355 839.5 354 c 128,-1,84
 838 353 838 353 693 258 c 2,85,-1
 541 160 l 1,86,-1
 541 332 l 1,87,-1
 708 449 l 1,88,-1
 775 402 l 2,81,82
EndSplineSet
Validated: 41
EndChar

StartChar: cone
Encoding: 58663 58663 16
Width: 1000
GlyphClass: 1
Flags: W
LayerCount: 2
Fore
SplineSet
480 956 m 0,0,1
 468 953 468 953 454.5 944 c 128,-1,2
 441 935 441 935 433 924 c 0,3,4
 429 918 429 918 259.5 580 c 128,-1,5
 90 242 90 242 87 233.5 c 128,-1,6
 84 225 84 225 84 211.5 c 128,-1,7
 84 198 84 198 86 188 c 0,8,9
 101 129 101 129 192 91 c 0,10,11
 254 66 254 66 341 53 c 128,-1,12
 428 40 428 40 521 42 c 0,13,14
 616 44 616 44 700 60 c 0,15,16
 762 72 762 72 808.5 91.5 c 128,-1,17
 855 111 855 111 881.5 136 c 128,-1,18
 908 161 908 161 914 190 c 0,19,20
 917 199 917 199 916 212 c 128,-1,21
 915 225 915 225 912.5 233.5 c 128,-1,22
 910 242 910 242 740.5 580.5 c 128,-1,23
 571 919 571 919 566 925 c 0,24,25
 559 935 559 935 544.5 944.5 c 128,-1,26
 530 954 530 954 518 956 c 0,27,28
 511 957 511 957 498.5 957 c 128,-1,29
 486 957 486 957 480 956 c 0,0,1
634 607 m 0,30,31
 768 340 768 340 765 340 c 0,32,33
 744 347 744 347 716 353 c 0,34,35
 604 378 604 378 469.5 374.5 c 128,-1,36
 335 371 335 371 235 340 c 0,37,38
 232 340 232 340 365.5 607 c 128,-1,39
 499 874 499 874 500 874 c 128,-1,40
 501 874 501 874 634 607 c 0,30,31
578 289 m 0,41,42
 658 282 658 282 717 267 c 0,43,44
 743 261 743 261 769.5 250.5 c 128,-1,45
 796 240 796 240 810 231 c 0,46,47
 817 227 817 227 823.5 221 c 128,-1,48
 830 215 830 215 831.5 212 c 128,-1,49
 833 209 833 209 833 207.5 c 128,-1,50
 833 206 833 206 830 203 c 0,51,52
 818 186 818 186 777.5 169 c 128,-1,53
 737 152 737 152 684 142 c 0,54,55
 590 123 590 123 482 125 c 128,-1,56
 374 127 374 127 287 148 c 0,57,58
 245 159 245 159 212.5 174 c 128,-1,59
 180 189 180 189 170 203 c 0,60,61
 167 206 167 206 167 207.5 c 128,-1,62
 167 209 167 209 168 211 c 0,63,64
 173 221 173 221 195.5 234 c 128,-1,65
 218 247 218 247 248 257 c 0,66,67
 289 271 289 271 337 279 c 128,-1,68
 385 287 385 287 451 291 c 0,69,70
 462 291 462 291 514 290.5 c 128,-1,71
 566 290 566 290 578 289 c 0,41,42
EndSplineSet
Validated: 41
EndChar

StartChar: cuboid
Encoding: 58664 58664 17
Width: 1000
GlyphClass: 1
Flags: W
LayerCount: 2
Fore
SplineSet
562 957 m 256,0,1
 543 954 543 954 526 946 c 0,2,3
 519 942 519 942 310.5 814 c 128,-1,4
 102 686 102 686 94 680 c 0,5,6
 72 665 72 665 58.5 641.5 c 128,-1,7
 45 618 45 618 43 591 c 0,8,9
 41 579 41 579 41 456.5 c 128,-1,10
 41 334 41 334 43 323 c 0,11,12
 48 275 48 275 84 243 c 0,13,14
 91 236 91 236 222 148 c 128,-1,15
 353 60 353 60 363 55 c 0,16,17
 389 42 389 42 418.5 41.5 c 128,-1,18
 448 41 448 41 474 54 c 0,19,20
 480 58 480 58 687 185 c 128,-1,21
 894 312 894 312 904 319 c 0,22,23
 927 334 927 334 941 358 c 128,-1,24
 955 382 955 382 957 409 c 0,25,26
 959 421 959 421 959 543.5 c 128,-1,27
 959 666 959 666 957 677 c 0,28,29
 955 702 955 702 943 724 c 128,-1,30
 931 746 931 746 912 761 c 0,31,32
 904 768 904 768 775.5 854 c 128,-1,33
 647 940 647 940 639 944 c 0,34,35
 623 953 623 953 602 956.5 c 128,-1,36
 581 960 581 960 562 957 c 256,0,1
594 873 m 0,37,38
 601 871 601 871 719 791.5 c 128,-1,39
 837 712 837 712 837.5 711 c 128,-1,40
 838 710 838 710 628.5 588 c 128,-1,41
 419 466 419 466 417.5 466 c 128,-1,42
 416 466 416 466 290 545 c 128,-1,43
 164 624 164 624 164.5 625.5 c 128,-1,44
 165 627 165 627 365 749.5 c 128,-1,45
 565 872 565 872 569 873 c 0,46,47
 582 877 582 877 594 873 c 0,37,38
875 523 m 2,48,-1
 874 411 l 1,49,-1
 871 404 l 2,50,51
 867 396 867 396 862 392 c 0,52,53
 859 389 859 389 674.5 275 c 128,-1,54
 490 161 490 161 463 145 c 2,55,-1
 459 142 l 1,56,-1
 459 393 l 1,57,-1
 666 514 l 2,58,59
 873 635 873 635 874 635 c 128,-1,60
 875 635 875 635 875 523 c 2,48,-1
257 468 m 1,61,-1
 375 394 l 1,62,-1
 375 146 l 1,63,-1
 372 148 l 2,64,65
 348 163 348 163 244.5 233.5 c 128,-1,66
 141 304 141 304 138 307 c 0,67,68
 132 312 132 312 129 319 c 2,69,-1
 126 326 l 1,70,-1
 125 550 l 1,71,-1
 257 468 l 1,61,-1
EndSplineSet
Validated: 41
EndChar

StartChar: cylinder
Encoding: 58665 58665 18
Width: 1000
GlyphClass: 1
Flags: W
LayerCount: 2
Fore
SplineSet
464 957 m 0,0,1
 394 955 394 955 330 945 c 128,-1,2
 266 935 266 935 217 918 c 0,3,4
 103 878 103 878 86 813 c 0,5,6
 84 806 84 806 84 763 c 2,7,-1
 84 500 l 1,8,-1
 84 237 l 2,9,10
 84 194 84 194 86 187 c 0,11,12
 101 129 101 129 192 91 c 0,13,14
 254 66 254 66 341 53 c 128,-1,15
 428 40 428 40 521 42 c 0,16,17
 616 44 616 44 700 60 c 0,18,19
 762 72 762 72 808.5 91.5 c 128,-1,20
 855 111 855 111 881 135.5 c 128,-1,21
 907 160 907 160 914 187 c 0,22,23
 916 194 916 194 916 236 c 2,24,-1
 916 500 l 1,25,-1
 916 764 l 2,26,27
 916 806 916 806 914 813 c 0,28,29
 900 868 900 868 816 905 c 128,-1,30
 732 942 732 942 594 954 c 0,31,32
 573 956 573 956 544 957 c 2,33,-1
 507 958 l 2,34,35
 497 958 497 958 464 957 c 0,0,1
546 874 m 0,36,37
 693 867 693 867 780 830 c 0,38,39
 802 820 802 820 817.5 809 c 128,-1,40
 833 798 833 798 832 791 c 0,41,42
 833 789 833 789 827 783 c 0,43,44
 808 763 808 763 758.5 745.5 c 128,-1,45
 709 728 709 728 642 718 c 0,46,47
 604 713 604 713 578.5 711.5 c 128,-1,48
 553 710 553 710 500 710 c 128,-1,49
 447 710 447 710 421.5 711.5 c 128,-1,50
 396 713 396 713 358 718 c 0,51,52
 300 726 300 726 255 740.5 c 128,-1,53
 210 755 210 755 186 772 c 0,54,55
 179 777 179 777 173.5 783 c 128,-1,56
 168 789 168 789 168 791 c 0,57,58
 168 798 168 798 181 808 c 0,59,60
 225 842 225 842 328.5 860.5 c 128,-1,61
 432 879 432 879 546 874 c 0,36,37
195 674 m 2,62,63
 251 651 251 651 331.5 638 c 128,-1,64
 412 625 412 625 500 625 c 0,65,66
 594 625 594 625 678 639.5 c 128,-1,67
 762 654 762 654 819 680 c 2,68,-1
 833 686 l 1,69,-1
 834 208 l 1,70,-1
 831 204 l 2,71,72
 826 197 826 197 812.5 188 c 128,-1,73
 799 179 799 179 781 170 c 0,74,75
 731 149 731 149 657 137 c 128,-1,76
 583 125 583 125 500 125 c 0,77,78
 402 125 402 125 316 142 c 0,79,80
 263 152 263 152 222.5 169 c 128,-1,81
 182 186 182 186 170 203 c 2,82,-1
 166 208 l 1,83,-1
 166 686 l 1,84,-1
 195 674 l 2,62,63
EndSplineSet
Validated: 41
EndChar

StartChar: diameter
Encoding: 58666 58666 19
Width: 1000
GlyphClass: 1
Flags: W
LayerCount: 2
Fore
SplineSet
472 957 m 2,0,1
 426 955 426 955 378.5 942 c 128,-1,2
 331 929 331 929 289 907 c 2,3,-1
 274 899 l 1,4,-1
 263 904 l 2,5,6
 248 911 248 911 234 914 c 128,-1,7
 220 917 220 917 202 916 c 0,8,9
 177 915 177 915 155 904 c 0,10,11
 103 880 103 880 87 821 c 0,12,13
 84 813 84 813 84 791 c 0,14,15
 85 776 85 776 85.5 771 c 128,-1,16
 86 766 86 766 88 758 c 0,17,18
 91 746 91 746 96 737 c 2,19,-1
 101 727 l 1,20,-1
 93 711 l 2,21,22
 58 642 58 642 46.5 567 c 128,-1,23
 35 492 35 492 49 415 c 0,24,25
 58 368 58 368 78.5 320.5 c 128,-1,26
 99 273 99 273 127 234 c 0,27,28
 148 204 148 204 176 176 c 128,-1,29
 204 148 204 148 234 127 c 0,30,31
 288 87 288 87 357 64 c 0,32,33
 443 36 443 36 536 43.5 c 128,-1,34
 629 51 629 51 711 93 c 2,35,-1
 727 101 l 1,36,-1
 737 96 l 2,37,38
 747 91 747 91 758 88 c 0,39,40
 766 86 766 86 771 85.5 c 128,-1,41
 776 85 776 85 791 85 c 0,42,43
 809 84 809 84 817 85.5 c 128,-1,44
 825 87 825 87 840 93 c 0,45,46
 862 102 862 102 880 120 c 128,-1,47
 898 138 898 138 907 160 c 0,48,49
 913 175 913 175 914.5 183 c 128,-1,50
 916 191 916 191 916 209 c 0,51,52
 915 224 915 224 914.5 229 c 128,-1,53
 914 234 914 234 912 242 c 0,54,55
 909 253 909 253 904 263 c 2,56,-1
 899 274 l 1,57,-1
 907 289 l 2,58,59
 934 340 934 340 947 398 c 128,-1,60
 960 456 960 456 958 513 c 0,61,62
 956 566 956 566 944.5 613 c 128,-1,63
 933 660 933 660 909 706 c 0,64,65
 893 739 893 739 874 765.5 c 128,-1,66
 855 792 855 792 829 818 c 0,67,68
 775 874 775 874 707 909 c 0,69,70
 663 931 663 931 619 943 c 128,-1,71
 575 955 575 955 524 957 c 0,72,73
 507 959 507 959 500 958 c 2,74,-1
 472 957 l 2,0,1
553 871 m 0,75,76
 586 866 586 866 612 858 c 128,-1,77
 638 850 638 850 667 836 c 0,78,79
 721 809 721 809 765 765 c 0,80,81
 816 714 816 714 844 649 c 128,-1,82
 872 584 872 584 875 512 c 0,83,84
 878 422 878 422 839 341 c 2,85,-1
 833 327 l 1,86,-1
 824 329 l 2,87,88
 804 334 804 334 780 332 c 0,89,90
 771 332 771 332 759.5 329 c 128,-1,91
 748 326 748 326 742 323 c 2,92,-1
 738 321 l 1,93,-1
 321 738 l 1,94,-1
 323 742 l 2,95,96
 326 747 326 747 329 759 c 128,-1,97
 332 771 332 771 333 780 c 0,98,99
 335 802 335 802 329 824 c 2,100,-1
 327 833 l 1,101,-1
 334 836 l 1,102,103
 391 865 391 865 461 873 c 0,104,105
 478 875 478 875 507 874.5 c 128,-1,106
 536 874 536 874 553 871 c 0,75,76
218 832 m 2,107,108
 226 831 226 831 234.5 824 c 128,-1,109
 243 817 243 817 246 808 c 0,110,111
 249 802 249 802 249.5 792.5 c 128,-1,112
 250 783 250 783 247 777 c 0,113,114
 238 756 238 756 217.5 751 c 128,-1,115
 197 746 197 746 181 761 c 0,116,117
 170 772 170 772 168 785 c 128,-1,118
 166 798 166 798 172 810.5 c 128,-1,119
 178 823 178 823 190 829 c 0,120,121
 194 831 194 831 200.5 832.5 c 128,-1,122
 207 834 207 834 211 833 c 2,123,-1
 218 832 l 2,107,108
470 470 m 2,124,-1
 679 262 l 1,125,-1
 677 258 l 2,126,127
 674 253 674 253 671 241 c 128,-1,128
 668 229 668 229 667 220 c 0,129,130
 665 198 665 198 671 176 c 2,131,-1
 673 167 l 1,132,-1
 665 163 l 2,133,134
 615 138 615 138 549 128 c 0,135,136
 534 126 534 126 500.5 126 c 128,-1,137
 467 126 467 126 451 128 c 0,138,139
 386 138 386 138 331.5 165 c 128,-1,140
 277 192 277 192 234 235 c 128,-1,141
 191 278 191 278 164 333 c 0,142,143
 150 363 150 363 141.5 390 c 128,-1,144
 133 417 133 417 128 452 c 0,145,146
 125 469 125 469 125.5 501.5 c 128,-1,147
 126 534 126 534 129 553 c 0,148,149
 138 616 138 616 164 666 c 1,150,-1
 167 673 l 1,151,-1
 176 671 l 2,152,153
 198 665 198 665 220 667 c 0,154,155
 229 668 229 668 241 671 c 128,-1,156
 253 674 253 674 257 677 c 2,157,-1
 261 679 l 2,158,159
 262 679 262 679 470 470 c 2,124,-1
809 246 m 0,160,161
 815 243 815 243 821.5 236 c 128,-1,162
 828 229 828 229 831 223 c 0,163,164
 836 208 836 208 830.5 194 c 128,-1,165
 825 180 825 180 812.5 172.5 c 128,-1,166
 800 165 800 165 784 168 c 0,167,168
 772 170 772 170 762 180 c 0,169,170
 756 186 756 186 753.5 192.5 c 128,-1,171
 751 199 751 199 751 208 c 0,172,173
 751 224 751 224 761 236 c 0,174,175
 769 245 769 245 783 248 c 128,-1,176
 797 251 797 251 809 246 c 0,160,161
EndSplineSet
Validated: 41
EndChar

StartChar: file-plus
Encoding: 57546 57546 20
Width: 1000
GlyphClass: 1
Flags: W
LayerCount: 2
Fore
SplineSet
238 957 m 0,0,1
 196 954 196 954 165 925 c 128,-1,2
 134 896 134 896 127 854 c 0,3,4
 125 842 125 842 125 500 c 128,-1,5
 125 158 125 158 127 146 c 0,6,7
 134 108 134 108 160.5 80 c 128,-1,8
 187 52 187 52 225 44 c 0,9,10
 233 43 233 43 273 42 c 2,11,-1
 500 42 l 1,12,-1
 727 42 l 2,13,14
 767 43 767 43 775 44 c 0,15,16
 814 53 814 53 841 81.5 c 128,-1,17
 868 110 868 110 874 149 c 0,18,19
 875 159 875 159 875 439 c 2,20,-1
 874 718 l 1,21,-1
 870 726 l 2,22,23
 868 732 868 732 849.5 750.5 c 128,-1,24
 831 769 831 769 758 843 c 0,25,26
 649 951 649 951 644 953.5 c 128,-1,27
 639 956 639 956 631.5 957.5 c 128,-1,28
 624 959 624 959 437.5 959 c 128,-1,29
 251 959 251 959 238 957 c 0,0,1
542 804 m 2,30,31
 542 746 542 746 543 733.5 c 128,-1,32
 544 721 544 721 550 707 c 0,33,34
 559 680 559 680 579.5 660.5 c 128,-1,35
 600 641 600 641 627 632 c 0,36,37
 641 627 641 627 655.5 626 c 128,-1,38
 670 625 670 625 724 625 c 2,39,-1
 791 625 l 1,40,-1
 791 188 l 2,41,42
 791 157 791 157 788.5 151 c 128,-1,43
 786 145 786 145 780 138.5 c 128,-1,44
 774 132 774 132 768 129 c 2,45,-1
 761 126 l 1,46,-1
 239 126 l 1,47,-1
 232 129 l 2,48,49
 226 132 226 132 220 138.5 c 128,-1,50
 214 145 214 145 211.5 151 c 128,-1,51
 209 157 209 157 209 201 c 2,52,-1
 209 500 l 1,53,-1
 209 799 l 2,54,55
 209 843 209 843 211 848 c 0,56,57
 215 857 215 857 223 864.5 c 128,-1,58
 231 872 231 872 240 874 c 0,59,60
 246 875 246 875 393 875 c 2,61,-1
 541 875 l 1,62,-1
 542 804 l 2,30,31
716 709 m 2,63,64
 674 709 674 709 665.5 709 c 128,-1,65
 657 709 657 709 652 711 c 0,66,67
 637 717 637 717 629 732 c 2,68,-1
 626 739 l 1,69,-1
 625 858 l 1,70,-1
 774 709 l 1,71,-1
 716 709 l 2,63,64
489 540 m 0,72,73
 471 534 471 534 462 518 c 0,74,75
 460 513 460 513 459.5 506.5 c 128,-1,76
 459 500 459 500 459 464 c 2,77,-1
 459 416 l 1,78,-1
 363 416 l 1,79,-1
 357 412 l 2,80,81
 344 405 344 405 337 393 c 0,82,83
 334 387 334 387 334 375 c 128,-1,84
 334 363 334 363 337 357.5 c 128,-1,85
 340 352 340 352 346 346 c 128,-1,86
 352 340 352 340 357 337.5 c 128,-1,87
 362 335 362 335 368.5 334.5 c 128,-1,88
 375 334 375 334 411 334 c 2,89,-1
 459 334 l 1,90,-1
 459 286 l 2,91,92
 459 250 459 250 459.5 243.5 c 128,-1,93
 460 237 460 237 462.5 232 c 128,-1,94
 465 227 465 227 471 221 c 128,-1,95
 477 215 477 215 482.5 212 c 128,-1,96
 488 209 488 209 500 209 c 128,-1,97
 512 209 512 209 517.5 212 c 128,-1,98
 523 215 523 215 529 221 c 128,-1,99
 535 227 535 227 537.5 232 c 128,-1,100
 540 237 540 237 540.5 243.5 c 128,-1,101
 541 250 541 250 541 286 c 2,102,-1
 541 334 l 1,103,-1
 589 334 l 2,104,105
 625 334 625 334 631.5 334.5 c 128,-1,106
 638 335 638 335 643 337.5 c 128,-1,107
 648 340 648 340 654 346 c 128,-1,108
 660 352 660 352 663 357.5 c 128,-1,109
 666 363 666 363 666 375 c 128,-1,110
 666 387 666 387 663 393 c 0,111,112
 656 405 656 405 643 412 c 2,113,-1
 637 416 l 1,114,-1
 541 416 l 1,115,-1
 541 464 l 2,116,117
 541 500 541 500 540.5 506.5 c 128,-1,118
 540 513 540 513 538 518 c 0,119,120
 531 531 531 531 518 537 c 0,121,122
 512 540 512 540 502 540.5 c 128,-1,123
 492 541 492 541 489 540 c 0,72,73
EndSplineSet
Validated: 521
EndChar

StartChar: flip-horizontal-2
Encoding: 58209 58209 21
Width: 1000
GlyphClass: 1
Flags: W
LayerCount: 2
Fore
SplineSet
493 957 m 0,0,1
 480 955 480 955 470 945 c 0,2,3
 464 939 464 939 462 934 c 128,-1,4
 460 929 460 929 459 916 c 0,5,6
 459 907 459 907 459 875 c 128,-1,7
 459 843 459 843 459 834 c 0,8,9
 460 821 460 821 462 816 c 128,-1,10
 464 811 464 811 470 805 c 0,11,12
 483 792 483 792 500 792 c 128,-1,13
 517 792 517 792 530 805 c 0,14,15
 536 811 536 811 538 816 c 128,-1,16
 540 821 540 821 541 834 c 0,17,18
 541 843 541 843 541 875 c 2,19,-1
 541 918 l 2,20,21
 541 927 541 927 539 931 c 0,22,23
 534 945 534 945 521 952.5 c 128,-1,24
 508 960 508 960 493 957 c 0,0,1
115 749 m 0,25,26
 106 747 106 747 98 739.5 c 128,-1,27
 90 732 90 732 86 723 c 2,28,-1
 84 716 l 1,29,-1
 84 310 l 2,30,31
 84 282 84 282 86.5 276 c 128,-1,32
 89 270 89 270 95 263.5 c 128,-1,33
 101 257 101 257 107 254 c 0,34,35
 112 252 112 252 115 251.5 c 128,-1,36
 118 251 118 251 125 251 c 2,37,-1
 128 251 l 2,38,39
 136 250 136 250 142 254 c 0,40,41
 150 259 150 259 171 280 c 0,42,43
 186 294 186 294 241 349 c 2,44,-1
 347 456 l 2,45,46
 366 476 366 476 371 484 c 0,47,48
 375 489 375 489 374 497 c 2,49,-1
 374 503 l 2,50,51
 375 511 375 511 371 516 c 0,52,53
 366 524 366 524 347 544 c 2,54,-1
 260 632 l 2,55,56
 150 742 150 742 144 745 c 128,-1,57
 138 748 138 748 130 749 c 128,-1,58
 122 750 122 750 115 749 c 0,25,26
865 749 m 0,59,60
 860 748 860 748 854.5 744.5 c 128,-1,61
 849 741 849 741 740 632 c 2,62,-1
 653 544 l 2,63,64
 634 524 634 524 629 516 c 0,65,66
 625 511 625 511 626 503 c 2,67,-1
 626 497 l 2,68,69
 625 489 625 489 629 484 c 0,70,71
 634 476 634 476 653 456 c 2,72,-1
 759 349 l 2,73,74
 814 294 814 294 829 280 c 0,75,76
 850 259 850 259 858 254 c 0,77,78
 864 250 864 250 872 251 c 2,79,-1
 875 251 l 2,80,81
 882 251 882 251 885 251.5 c 128,-1,82
 888 252 888 252 893 254 c 0,83,84
 899 257 899 257 905 263.5 c 128,-1,85
 911 270 911 270 913.5 276 c 128,-1,86
 916 282 916 282 916 310 c 2,87,-1
 916 716 l 1,88,-1
 914 723 l 2,89,90
 908 737 908 737 894 744.5 c 128,-1,91
 880 752 880 752 865 749 c 0,59,60
493 707 m 0,92,93
 480 705 480 705 470 695 c 0,94,95
 464 689 464 689 462 684 c 128,-1,96
 460 679 460 679 459 666 c 0,97,98
 459 657 459 657 459 625 c 128,-1,99
 459 593 459 593 459 584 c 0,100,101
 460 571 460 571 462 566 c 128,-1,102
 464 561 464 561 470 555 c 0,103,104
 483 542 483 542 500 542 c 128,-1,105
 517 542 517 542 530 555 c 0,106,107
 536 561 536 561 538 566 c 128,-1,108
 540 571 540 571 541 584 c 0,109,110
 541 593 541 593 541 625 c 2,111,-1
 541 668 l 2,112,113
 541 677 541 677 539 681 c 0,114,115
 534 695 534 695 521 702.5 c 128,-1,116
 508 710 508 710 493 707 c 0,92,93
220 446 m 1,117,-1
 166 392 l 1,118,-1
 166 608 l 1,119,-1
 274 500 l 1,120,-1
 220 446 l 1,117,-1
834 500 m 2,121,-1
 834 392 l 1,122,-1
 726 500 l 1,123,-1
 833 608 l 2,124,125
 834 608 834 608 834 500 c 2,121,-1
493 457 m 0,126,127
 480 455 480 455 470 445 c 0,128,129
 464 439 464 439 462 434 c 128,-1,130
 460 429 460 429 459 416 c 0,131,132
 459 407 459 407 459 375 c 128,-1,133
 459 343 459 343 459 334 c 0,134,135
 460 321 460 321 462 316 c 128,-1,136
 464 311 464 311 470 305 c 0,137,138
 483 292 483 292 500 292 c 128,-1,139
 517 292 517 292 530 305 c 0,140,141
 536 311 536 311 538 316 c 128,-1,142
 540 321 540 321 541 334 c 0,143,144
 541 343 541 343 541 375 c 2,145,-1
 541 418 l 2,146,147
 541 427 541 427 539 431 c 0,148,149
 534 445 534 445 521 452.5 c 128,-1,150
 508 460 508 460 493 457 c 0,126,127
493 207 m 0,151,152
 480 205 480 205 470 195 c 0,153,154
 464 189 464 189 462 184 c 128,-1,155
 460 179 460 179 459 166 c 0,156,157
 459 157 459 157 459 125 c 128,-1,158
 459 93 459 93 459 84 c 0,159,160
 460 71 460 71 462 66 c 128,-1,161
 464 61 464 61 470 55 c 0,162,163
 483 42 483 42 500 42 c 128,-1,164
 517 42 517 42 530 55 c 0,165,166
 536 61 536 61 538 66 c 128,-1,167
 540 71 540 71 541 84 c 0,168,169
 541 93 541 93 541 125 c 2,170,-1
 541 168 l 2,171,172
 541 177 541 177 539 181 c 0,173,174
 534 195 534 195 521 202.5 c 128,-1,175
 508 210 508 210 493 207 c 0,151,152
EndSplineSet
Validated: 521
EndChar

StartChar: flip-vertical-2
Encoding: 58211 58211 22
Width: 1000
GlyphClass: 1
Flags: W
LayerCount: 2
Fore
SplineSet
277 914 m 0,0,1
 270 911 270 911 263.5 905 c 128,-1,2
 257 899 257 899 254.5 893.5 c 128,-1,3
 252 888 252 888 251.5 885 c 128,-1,4
 251 882 251 882 251 875 c 2,5,-1
 251 872 l 2,6,7
 250 864 250 864 254 858 c 0,8,9
 259 850 259 850 280 829 c 0,10,11
 294 814 294 814 349 759 c 2,12,-1
 456 653 l 2,13,14
 476 634 476 634 484 629 c 0,15,16
 489 625 489 625 497 626 c 2,17,-1
 503 626 l 2,18,19
 511 625 511 625 516 629 c 0,20,21
 524 634 524 634 544 653 c 2,22,-1
 651 759 l 2,23,24
 706 814 706 814 720 829 c 0,25,26
 741 850 741 850 746 858 c 0,27,28
 750 864 750 864 749 872 c 2,29,-1
 749 875 l 2,30,31
 749 882 749 882 748.5 885 c 128,-1,32
 748 888 748 888 746 893 c 0,33,34
 743 899 743 899 736.5 905 c 128,-1,35
 730 911 730 911 724 913.5 c 128,-1,36
 718 916 718 916 690 916 c 2,37,-1
 500 916 l 1,38,-1
 311 916 l 2,39,40
 281 915 281 915 277 914 c 0,0,1
554 780 m 1,41,-1
 500 726 l 1,42,-1
 392 834 l 1,43,-1
 608 834 l 1,44,-1
 554 780 l 1,41,-1
70 539 m 0,45,46
 57 535 57 535 49.5 524 c 128,-1,47
 42 513 42 513 42 500 c 0,48,49
 42 483 42 483 55 470 c 0,50,51
 61 464 61 464 66 462 c 128,-1,52
 71 460 71 460 84 459 c 0,53,54
 93 459 93 459 125 459 c 128,-1,55
 157 459 157 459 166 459 c 0,56,57
 179 460 179 460 184 462 c 128,-1,58
 189 464 189 464 195 470 c 0,59,60
 208 483 208 483 208 500 c 128,-1,61
 208 517 208 517 196 529 c 0,62,63
 191 534 191 534 184 538 c 2,64,-1
 178 541 l 1,65,-1
 126 541 l 2,66,67
 74 541 74 541 70 539 c 0,45,46
320 539 m 0,68,69
 307 535 307 535 299.5 524 c 128,-1,70
 292 513 292 513 292 500 c 0,71,72
 292 483 292 483 305 470 c 0,73,74
 311 464 311 464 316 462 c 128,-1,75
 321 460 321 460 334 459 c 0,76,77
 343 459 343 459 375 459 c 128,-1,78
 407 459 407 459 416 459 c 0,79,80
 429 460 429 460 434 462 c 128,-1,81
 439 464 439 464 445 470 c 0,82,83
 458 483 458 483 458 500 c 128,-1,84
 458 517 458 517 446 529 c 0,85,86
 441 534 441 534 434 538 c 2,87,-1
 428 541 l 1,88,-1
 376 541 l 2,89,90
 324 541 324 541 320 539 c 0,68,69
570 539 m 0,91,92
 557 535 557 535 549.5 524 c 128,-1,93
 542 513 542 513 542 500 c 0,94,95
 542 483 542 483 555 470 c 0,96,97
 561 464 561 464 566 462 c 128,-1,98
 571 460 571 460 584 459 c 0,99,100
 593 459 593 459 625 459 c 128,-1,101
 657 459 657 459 666 459 c 0,102,103
 679 460 679 460 684 462 c 128,-1,104
 689 464 689 464 695 470 c 0,105,106
 708 483 708 483 708 500 c 128,-1,107
 708 517 708 517 696 529 c 0,108,109
 691 534 691 534 684 538 c 2,110,-1
 678 541 l 1,111,-1
 626 541 l 2,112,113
 574 541 574 541 570 539 c 0,91,92
820 539 m 0,114,115
 807 535 807 535 799.5 524 c 128,-1,116
 792 513 792 513 792 500 c 0,117,118
 792 483 792 483 805 470 c 0,119,120
 811 464 811 464 816 462 c 128,-1,121
 821 460 821 460 834 459 c 0,122,123
 843 459 843 459 875 459 c 128,-1,124
 907 459 907 459 916 459 c 0,125,126
 929 460 929 460 934 462 c 128,-1,127
 939 464 939 464 945 470 c 0,128,129
 958 483 958 483 958 500 c 128,-1,130
 958 517 958 517 946 529 c 0,131,132
 941 534 941 534 934 538 c 2,133,-1
 928 541 l 1,134,-1
 876 541 l 2,135,136
 824 541 824 541 820 539 c 0,114,115
489 373 m 0,137,138
 483 372 483 372 478.5 369 c 128,-1,139
 474 366 474 366 365 257 c 2,140,-1
 278 169 l 2,141,142
 258 149 258 149 254 141 c 0,143,144
 250 136 250 136 251 128 c 2,145,-1
 251 124 l 2,146,147
 251 114 251 114 254 107.5 c 128,-1,148
 257 101 257 101 263.5 95 c 128,-1,149
 270 89 270 89 276 86.5 c 128,-1,150
 282 84 282 84 310 84 c 2,151,-1
 716 84 l 1,152,-1
 723 86 l 2,153,154
 738 92 738 92 746 107 c 0,155,156
 749 114 749 114 749 124 c 2,157,-1
 749 128 l 2,158,159
 750 136 750 136 746 141 c 0,160,161
 742 149 742 149 722 169 c 2,162,-1
 635 257 l 2,163,164
 525 367 525 367 518.5 370.5 c 128,-1,165
 512 374 512 374 503.5 374.5 c 128,-1,166
 495 375 495 375 489 373 c 0,137,138
554 220 m 2,167,-1
 608 166 l 1,168,-1
 392 166 l 1,169,-1
 446 220 l 2,170,171
 499 274 499 274 500 274 c 128,-1,172
 501 274 501 274 554 220 c 2,167,-1
EndSplineSet
Validated: 521
EndChar

StartChar: focus
Encoding: 58013 58013 23
Width: 1000
GlyphClass: 1
LayerCount: 2
Fore
SplineSet
186 914 m 0,0,1
 155 909 155 909 130.5 889 c 128,-1,2
 106 869 106 869 94 841 c 1,3,-1
 93 840 l 1,4,5
 87 825 87 825 85.5 815 c 128,-1,6
 84 805 84 805 84 761 c 2,7,-1
 84 757 l 2,8,9
 84 716 84 716 84 707.5 c 128,-1,10
 84 699 84 699 86.5 692.5 c 128,-1,11
 89 686 89 686 95 680 c 0,12,13
 108 667 108 667 125 667 c 128,-1,14
 142 667 142 667 154 679 c 2,15,-1
 155 680 l 2,16,17
 161 686 161 686 163 690 c 128,-1,18
 165 694 165 694 165 707 c 0,19,20
 166 715 166 715 166 746 c 2,21,-1
 167 801 l 1,22,-1
 170 808 l 2,23,24
 177 823 177 823 192 830 c 2,25,-1
 199 833 l 1,26,-1
 254 834 l 2,27,28
 285 834 285 834 293 835 c 0,29,30
 306 835 306 835 310 837 c 128,-1,31
 314 839 314 839 320 845 c 2,32,-1
 321 846 l 2,33,34
 333 858 333 858 333 875 c 128,-1,35
 333 892 333 892 321 904 c 0,36,37
 316 909 316 909 309 913 c 2,38,-1
 303 916 l 1,39,-1
 249 916 l 2,40,41
 194 916 194 916 186 914 c 0,0,1
695 914 m 0,42,43
 682 910 682 910 674.5 899 c 128,-1,44
 667 888 667 888 667 875 c 0,45,46
 667 858 667 858 679 846 c 2,47,-1
 680 845 l 2,48,49
 686 839 686 839 690 837 c 128,-1,50
 694 835 694 835 707 835 c 0,51,52
 715 834 715 834 746 834 c 2,53,-1
 801 833 l 1,54,-1
 808 830 l 2,55,56
 823 823 823 823 830 808 c 2,57,-1
 833 801 l 1,58,-1
 834 746 l 2,59,60
 834 715 834 715 835 707 c 0,61,62
 835 694 835 694 837 690 c 128,-1,63
 839 686 839 686 845 680 c 2,64,-1
 846 679 l 2,65,66
 855 670 855 670 867.5 667.5 c 128,-1,67
 880 665 880 665 892 670 c 0,68,69
 899 674 899 674 905 680 c 128,-1,70
 911 686 911 686 913.5 692.5 c 128,-1,71
 916 699 916 699 916 707.5 c 128,-1,72
 916 716 916 716 916 757 c 128,-1,73
 916 798 916 798 915.5 807.5 c 128,-1,74
 915 817 915 817 913 823 c 0,75,76
 895 881 895 881 843 905 c 0,77,78
 833 910 833 910 823 913 c 0,79,80
 816 915 816 915 806.5 915.5 c 128,-1,81
 797 916 797 916 756 916 c 0,82,83
 699 916 699 916 695 914 c 0,42,43
474 664 m 0,84,85
 410 653 410 653 371 605 c 0,86,87
 358 589 358 589 350.5 573 c 128,-1,88
 343 557 343 557 337 536 c 0,89,90
 335 528 335 528 334.5 522 c 128,-1,91
 334 516 334 516 334 500 c 0,92,93
 334 480 334 480 336 469 c 128,-1,94
 338 458 338 458 344 442 c 0,95,96
 356 408 356 408 382 382 c 128,-1,97
 408 356 408 356 442 344 c 0,98,99
 458 338 458 338 469 336 c 128,-1,100
 480 334 480 334 500 334 c 128,-1,101
 520 334 520 334 531 336 c 128,-1,102
 542 338 542 338 558 344 c 0,103,104
 592 356 592 356 618 382 c 128,-1,105
 644 408 644 408 656 442 c 0,106,107
 662 458 662 458 664 469 c 128,-1,108
 666 480 666 480 666 500 c 128,-1,109
 666 520 666 520 664 531 c 128,-1,110
 662 542 662 542 656 558 c 0,111,112
 641 598 641 598 608.5 626 c 128,-1,113
 576 654 576 654 534 663 c 0,114,115
 524 665 524 665 503.5 665.5 c 128,-1,116
 483 666 483 666 474 664 c 0,84,85
521 581 m 0,117,118
 541 576 541 576 558.5 558.5 c 128,-1,119
 576 541 576 541 581 521 c 0,120,121
 583 512 583 512 583 500 c 128,-1,122
 583 488 583 488 581 480 c 0,123,124
 576 459 576 459 559.5 442 c 128,-1,125
 543 425 543 425 521 419 c 0,126,127
 513 417 513 417 500 417 c 128,-1,128
 487 417 487 417 479 419 c 0,129,130
 457 425 457 425 440.5 442 c 128,-1,131
 424 459 424 459 419 480 c 0,132,133
 417 488 417 488 417 500 c 128,-1,134
 417 512 417 512 419 521 c 0,135,136
 423 537 423 537 435 552 c 128,-1,137
 447 567 447 567 464 575 c 0,138,139
 489 588 489 588 521 581 c 0,117,118
118 332 m 0,140,141
 107 331 107 331 98.5 323.5 c 128,-1,142
 90 316 90 316 86 307 c 0,143,144
 84 301 84 301 84 292.5 c 128,-1,145
 84 284 84 284 84 243 c 128,-1,146
 84 202 84 202 84.5 192.5 c 128,-1,147
 85 183 85 183 87 177 c 0,148,149
 108 108 108 108 177 87 c 0,150,151
 183 85 183 85 192.5 84.5 c 128,-1,152
 202 84 202 84 243 84 c 128,-1,153
 284 84 284 84 292.5 84 c 128,-1,154
 301 84 301 84 307.5 86.5 c 128,-1,155
 314 89 314 89 320 95 c 128,-1,156
 326 101 326 101 329.5 108.5 c 128,-1,157
 333 116 333 116 333 125 c 128,-1,158
 333 134 333 134 330 142 c 0,159,160
 323 156 323 156 309 163 c 0,161,162
 305 165 305 165 297.5 165.5 c 128,-1,163
 290 166 290 166 250 166.5 c 128,-1,164
 210 167 210 167 201.5 168 c 128,-1,165
 193 169 193 169 186 173 c 0,166,167
 176 180 176 180 170 192 c 2,168,-1
 167 199 l 1,169,-1
 165 295 l 2,170,171
 165 305 165 305 163 308 c 0,172,173
 157 321 157 321 144.5 328 c 128,-1,174
 132 335 132 335 118 332 c 0,140,141
868 332 m 0,175,176
 855 330 855 330 845 320 c 1,177,-1
 845 320 l 1,178,179
 839 314 839 314 837 309.5 c 128,-1,180
 835 305 835 305 835 293 c 0,181,182
 834 284 834 284 834 253 c 2,183,-1
 833 199 l 1,184,-1
 830 192 l 2,185,186
 824 180 824 180 814 173 c 0,187,188
 807 169 807 169 798.5 168 c 128,-1,189
 790 167 790 167 750 166.5 c 128,-1,190
 710 166 710 166 702.5 165.5 c 128,-1,191
 695 165 695 165 691 163 c 0,192,193
 675 155 675 155 669.5 139 c 128,-1,194
 664 123 664 123 670 108 c 0,195,196
 674 101 674 101 680 95 c 128,-1,197
 686 89 686 89 692.5 86.5 c 128,-1,198
 699 84 699 84 707.5 84 c 128,-1,199
 716 84 716 84 757 84 c 128,-1,200
 798 84 798 84 807.5 84.5 c 128,-1,201
 817 85 817 85 823 87 c 0,202,203
 892 108 892 108 913 177 c 0,204,205
 915 183 915 183 915.5 192.5 c 128,-1,206
 916 202 916 202 916 242 c 2,207,-1
 916 287 l 2,208,209
 916 301 916 301 914.5 306 c 128,-1,210
 913 311 913 311 908 317 c 0,211,212
 901 326 901 326 890.5 330 c 128,-1,213
 880 334 880 334 868 332 c 0,175,176
EndSplineSet
Validated: 41
EndChar

StartChar: fold-horizontal
Encoding: 58431 58431 24
Width: 1000
GlyphClass: 1
Flags: W
LayerCount: 2
Fore
SplineSet
493 957 m 0,0,1
 480 955 480 955 470 945 c 0,2,3
 464 939 464 939 462 934 c 128,-1,4
 460 929 460 929 459 916 c 0,5,6
 459 907 459 907 459 875 c 128,-1,7
 459 843 459 843 459 834 c 0,8,9
 460 821 460 821 462 816 c 128,-1,10
 464 811 464 811 470 805 c 0,11,12
 483 792 483 792 500 792 c 128,-1,13
 517 792 517 792 530 805 c 0,14,15
 536 811 536 811 538 816 c 128,-1,16
 540 821 540 821 541 834 c 0,17,18
 541 843 541 843 541 875 c 2,19,-1
 541 918 l 2,20,21
 541 927 541 927 539 931 c 0,22,23
 534 945 534 945 521 952.5 c 128,-1,24
 508 960 508 960 493 957 c 0,0,1
493 707 m 0,25,26
 480 705 480 705 470 695 c 0,27,28
 464 689 464 689 462 684 c 128,-1,29
 460 679 460 679 459 666 c 0,30,31
 459 657 459 657 459 625 c 128,-1,32
 459 593 459 593 459 584 c 0,33,34
 460 571 460 571 462 566 c 128,-1,35
 464 561 464 561 470 555 c 0,36,37
 483 542 483 542 500 542 c 128,-1,38
 517 542 517 542 530 555 c 0,39,40
 536 561 536 561 538 566 c 128,-1,41
 540 571 540 571 541 584 c 0,42,43
 541 593 541 593 541 625 c 2,44,-1
 541 668 l 2,45,46
 541 677 541 677 539 681 c 0,47,48
 534 695 534 695 521 702.5 c 128,-1,49
 508 710 508 710 493 707 c 0,25,26
195 664 m 0,50,51
 177 658 177 658 170 641 c 128,-1,52
 163 624 163 624 170 608 c 0,53,54
 173 604 173 604 179 597 c 128,-1,55
 185 590 185 590 203 571 c 2,56,-1
 233 541 l 1,57,-1
 72 541 l 1,58,-1
 66 538 l 2,59,60
 50 530 50 530 44.5 514 c 128,-1,61
 39 498 39 498 45 483 c 0,62,63
 49 476 49 476 55 470 c 128,-1,64
 61 464 61 464 67 461.5 c 128,-1,65
 73 459 73 459 85 459 c 2,66,-1
 233 459 l 1,67,-1
 203 429 l 2,68,69
 185 410 185 410 179 403 c 0,70,71
 171 395 171 395 169 389.5 c 128,-1,72
 167 384 167 384 167 375 c 0,73,74
 167 358 167 358 179.5 345.5 c 128,-1,75
 192 333 192 333 210 334 c 2,76,-1
 211 334 l 2,77,78
 220 334 220 334 225.5 337.5 c 128,-1,79
 231 341 231 341 246 355 c 0,80,81
 257 365 257 365 295 403 c 2,82,-1
 309 417 l 2,83,84
 345 453 345 453 355 464 c 0,85,86
 369 478 369 478 371.5 483.5 c 128,-1,87
 374 489 374 489 374 498 c 2,88,-1
 374 502 l 2,89,90
 374 511 374 511 371.5 516.5 c 128,-1,91
 369 522 369 522 355 536 c 0,92,93
 346 546 346 546 309 583 c 2,94,-1
 297 595 l 2,95,96
 258 634 258 634 247 645 c 0,97,98
 231 659 231 659 224 663 c 0,99,100
 219 666 219 666 210 666 c 2,101,-1
 209 666 l 2,102,103
 199 666 199 666 195 664 c 0,50,51
777 664 m 0,104,105
 772 662 772 662 769 659.5 c 128,-1,106
 766 657 766 657 698 590 c 2,107,-1
 690 582 l 2,108,109
 654 546 654 546 645 536 c 0,110,111
 631 522 631 522 628.5 516.5 c 128,-1,112
 626 511 626 511 626 502 c 2,113,-1
 626 498 l 2,114,115
 626 489 626 489 628.5 483.5 c 128,-1,116
 631 478 631 478 645 464 c 0,117,118
 655 453 655 453 691 417 c 2,119,-1
 705 403 l 2,120,121
 743 365 743 365 754 355 c 0,122,123
 769 341 769 341 774.5 337.5 c 128,-1,124
 780 334 780 334 789 334 c 2,125,-1
 790 334 l 2,126,127
 808 333 808 333 820.5 345.5 c 128,-1,128
 833 358 833 358 833 375 c 0,129,130
 833 384 833 384 831 389.5 c 128,-1,131
 829 395 829 395 821 403 c 0,132,133
 815 410 815 410 797 429 c 2,134,-1
 767 459 l 1,135,-1
 915 459 l 2,136,137
 927 459 927 459 933 461.5 c 128,-1,138
 939 464 939 464 945 470 c 128,-1,139
 951 476 951 476 954.5 483.5 c 128,-1,140
 958 491 958 491 958 500 c 128,-1,141
 958 509 958 509 955 517 c 0,142,143
 948 531 948 531 934 538 c 2,144,-1
 928 541 l 1,145,-1
 767 541 l 1,146,-1
 797 571 l 2,147,148
 815 590 815 590 821 597 c 0,149,150
 829 605 829 605 831 610.5 c 128,-1,151
 833 616 833 616 833 625 c 128,-1,152
 833 634 833 634 830 642 c 0,153,154
 823 656 823 656 809 663 c 0,155,156
 803 666 803 666 793.5 666 c 128,-1,157
 784 666 784 666 777 664 c 0,104,105
493 457 m 0,158,159
 480 455 480 455 470 445 c 0,160,161
 464 439 464 439 462 434 c 128,-1,162
 460 429 460 429 459 416 c 0,163,164
 459 407 459 407 459 375 c 128,-1,165
 459 343 459 343 459 334 c 0,166,167
 460 321 460 321 462 316 c 128,-1,168
 464 311 464 311 470 305 c 0,169,170
 483 292 483 292 500 292 c 128,-1,171
 517 292 517 292 530 305 c 0,172,173
 536 311 536 311 538 316 c 128,-1,174
 540 321 540 321 541 334 c 0,175,176
 541 343 541 343 541 375 c 2,177,-1
 541 418 l 2,178,179
 541 427 541 427 539 431 c 0,180,181
 534 445 534 445 521 452.5 c 128,-1,182
 508 460 508 460 493 457 c 0,158,159
493 207 m 0,183,184
 480 205 480 205 470 195 c 0,185,186
 464 189 464 189 462 184 c 128,-1,187
 460 179 460 179 459 166 c 0,188,189
 459 157 459 157 459 125 c 128,-1,190
 459 93 459 93 459 84 c 0,191,192
 460 71 460 71 462 66 c 128,-1,193
 464 61 464 61 470 55 c 0,194,195
 483 42 483 42 500 42 c 128,-1,196
 517 42 517 42 530 55 c 0,197,198
 536 61 536 61 538 66 c 128,-1,199
 540 71 540 71 541 84 c 0,200,201
 541 93 541 93 541 125 c 2,202,-1
 541 168 l 2,203,204
 541 177 541 177 539 181 c 0,205,206
 534 195 534 195 521 202.5 c 128,-1,207
 508 210 508 210 493 207 c 0,183,184
EndSplineSet
Validated: 553
EndChar

StartChar: fold-vertical
Encoding: 58432 58432 25
Width: 1000
GlyphClass: 1
Flags: W
LayerCount: 2
Fore
SplineSet
493 957 m 0,0,1
 486 956 486 956 480.5 953.5 c 128,-1,2
 475 951 475 951 469.5 944.5 c 128,-1,3
 464 938 464 938 461.5 932.5 c 128,-1,4
 459 927 459 927 459 915 c 2,5,-1
 459 767 l 1,6,-1
 429 796 l 2,7,8
 399 826 399 826 394 829 c 0,9,10
 386 833 386 833 375 833 c 128,-1,11
 364 833 364 833 356 829 c 0,12,13
 350 826 350 826 344.5 819.5 c 128,-1,14
 339 813 339 813 336.5 806 c 128,-1,15
 334 799 334 799 334 790 c 2,16,-1
 334 789 l 2,17,18
 334 780 334 780 337.5 774.5 c 128,-1,19
 341 769 341 769 355 754 c 0,20,21
 365 743 365 743 403 705 c 2,22,-1
 417 691 l 2,23,24
 453 655 453 655 464 645 c 0,25,26
 478 631 478 631 483.5 628.5 c 128,-1,27
 489 626 489 626 498 626 c 2,28,-1
 502 626 l 2,29,30
 511 626 511 626 516.5 628.5 c 128,-1,31
 522 631 522 631 536 645 c 0,32,33
 547 655 547 655 583 691 c 2,34,-1
 597 705 l 2,35,36
 635 743 635 743 645 754 c 0,37,38
 659 769 659 769 662.5 774.5 c 128,-1,39
 666 780 666 780 666 789 c 2,40,-1
 666 790 l 2,41,42
 666 799 666 799 663.5 806 c 128,-1,43
 661 813 661 813 655.5 819.5 c 128,-1,44
 650 826 650 826 644 829 c 0,45,46
 636 833 636 833 625 833 c 128,-1,47
 614 833 614 833 606 829 c 0,48,49
 601 826 601 826 571 796 c 2,50,-1
 541 767 l 1,51,-1
 541 914 l 2,52,53
 541 927 541 927 539 931 c 0,54,55
 534 945 534 945 521 952.5 c 128,-1,56
 508 960 508 960 493 957 c 0,0,1
70 539 m 0,57,58
 57 535 57 535 49.5 524 c 128,-1,59
 42 513 42 513 42 500 c 0,60,61
 42 483 42 483 55 470 c 0,62,63
 61 464 61 464 66 462 c 128,-1,64
 71 460 71 460 84 459 c 0,65,66
 93 459 93 459 125 459 c 128,-1,67
 157 459 157 459 166 459 c 0,68,69
 179 460 179 460 184 462 c 128,-1,70
 189 464 189 464 195 470 c 0,71,72
 208 483 208 483 208 500 c 128,-1,73
 208 517 208 517 196 529 c 0,74,75
 191 534 191 534 184 538 c 2,76,-1
 178 541 l 1,77,-1
 126 541 l 2,78,79
 74 541 74 541 70 539 c 0,57,58
320 539 m 0,80,81
 307 535 307 535 299.5 524 c 128,-1,82
 292 513 292 513 292 500 c 0,83,84
 292 483 292 483 305 470 c 0,85,86
 311 464 311 464 316 462 c 128,-1,87
 321 460 321 460 334 459 c 0,88,89
 343 459 343 459 375 459 c 128,-1,90
 407 459 407 459 416 459 c 0,91,92
 429 460 429 460 434 462 c 128,-1,93
 439 464 439 464 445 470 c 0,94,95
 458 483 458 483 458 500 c 128,-1,96
 458 517 458 517 446 529 c 0,97,98
 441 534 441 534 434 538 c 2,99,-1
 428 541 l 1,100,-1
 376 541 l 2,101,102
 324 541 324 541 320 539 c 0,80,81
570 539 m 0,103,104
 557 535 557 535 549.5 524 c 128,-1,105
 542 513 542 513 542 500 c 0,106,107
 542 483 542 483 555 470 c 0,108,109
 561 464 561 464 566 462 c 128,-1,110
 571 460 571 460 584 459 c 0,111,112
 593 459 593 459 625 459 c 128,-1,113
 657 459 657 459 666 459 c 0,114,115
 679 460 679 460 684 462 c 128,-1,116
 689 464 689 464 695 470 c 0,117,118
 708 483 708 483 708 500 c 128,-1,119
 708 517 708 517 696 529 c 0,120,121
 691 534 691 534 684 538 c 2,122,-1
 678 541 l 1,123,-1
 626 541 l 2,124,125
 574 541 574 541 570 539 c 0,103,104
820 539 m 0,126,127
 807 535 807 535 799.5 524 c 128,-1,128
 792 513 792 513 792 500 c 0,129,130
 792 483 792 483 805 470 c 0,131,132
 811 464 811 464 816 462 c 128,-1,133
 821 460 821 460 834 459 c 0,134,135
 843 459 843 459 875 459 c 128,-1,136
 907 459 907 459 916 459 c 0,137,138
 929 460 929 460 934 462 c 128,-1,139
 939 464 939 464 945 470 c 0,140,141
 958 483 958 483 958 500 c 128,-1,142
 958 517 958 517 946 529 c 0,143,144
 941 534 941 534 934 538 c 2,145,-1
 928 541 l 1,146,-1
 876 541 l 2,147,148
 824 541 824 541 820 539 c 0,126,127
484 372 m 0,149,150
 477 369 477 369 477 369 c 1,151,-1
 403 295 l 2,152,153
 365 257 365 257 355 246 c 0,154,155
 341 231 341 231 337 225 c 0,156,157
 334 220 334 220 334 211 c 2,158,-1
 334 210 l 2,159,160
 333 192 333 192 345.5 179.5 c 128,-1,161
 358 167 358 167 375 167 c 0,162,163
 384 167 384 167 389.5 169 c 128,-1,164
 395 171 395 171 403 179 c 0,165,166
 410 185 410 185 429 203 c 2,167,-1
 459 233 l 1,168,-1
 459 85 l 2,169,170
 459 73 459 73 461.5 67 c 128,-1,171
 464 61 464 61 470 55 c 128,-1,172
 476 49 476 49 483.5 45.5 c 128,-1,173
 491 42 491 42 500 42 c 128,-1,174
 509 42 509 42 516.5 45.5 c 128,-1,175
 524 49 524 49 530 55 c 128,-1,176
 536 61 536 61 538.5 67 c 128,-1,177
 541 73 541 73 541 85 c 2,178,-1
 541 233 l 1,179,-1
 571 203 l 2,180,181
 590 185 590 185 597 179 c 0,182,183
 605 171 605 171 610.5 169 c 128,-1,184
 616 167 616 167 625 167 c 0,185,186
 642 167 642 167 654.5 179.5 c 128,-1,187
 667 192 667 192 666 210 c 2,188,-1
 666 211 l 2,189,190
 666 220 666 220 662.5 225.5 c 128,-1,191
 659 231 659 231 645 246 c 0,192,193
 635 257 635 257 597 295 c 2,194,-1
 584 308 l 2,195,196
 547 344 547 344 537 354 c 0,197,198
 522 368 522 368 516.5 371 c 128,-1,199
 511 374 511 374 503 375 c 2,200,-1
 501 375 l 2,201,202
 492 375 492 375 484 372 c 0,149,150
EndSplineSet
Validated: 553
EndChar

StartChar: folder-down
Encoding: 58165 58165 26
Width: 1000
GlyphClass: 1
Flags: W
LayerCount: 2
Fore
SplineSet
141 914 m 0,0,1
 107 907 107 907 81.5 882.5 c 128,-1,2
 56 858 56 858 46 825 c 0,3,4
 43 815 43 815 43 800 c 0,5,6
 42 781 42 781 41 719 c 2,7,-1
 42 274 l 2,8,9
 43 230 43 230 44 224 c 0,10,11
 54 185 54 185 81 159.5 c 128,-1,12
 108 134 108 134 146 127 c 0,13,14
 158 125 158 125 500 125 c 128,-1,15
 842 125 842 125 854 127 c 0,16,17
 892 134 892 134 919.5 159.5 c 128,-1,18
 947 185 947 185 956 224 c 0,19,20
 957 230 957 230 958 265 c 2,21,-1
 958 450 l 2,22,23
 959 667 959 667 958 679 c 0,24,25
 953 715 953 715 933 742 c 0,26,27
 907 776 907 776 864 788 c 2,28,-1
 854 791 l 1,29,-1
 494 792 l 1,30,-1
 487 795 l 2,31,32
 479 799 479 799 475 803 c 128,-1,33
 471 807 471 807 451 837 c 0,34,35
 435 860 435 860 426 871 c 128,-1,36
 417 882 417 882 408 889 c 0,37,38
 400 895 400 895 389 901.5 c 128,-1,39
 378 908 378 908 370 910 c 0,40,41
 355 915 355 915 339.5 915.5 c 128,-1,42
 324 916 324 916 248 916 c 2,43,-1
 165 916 l 2,44,45
 148 915 148 915 141 914 c 0,0,1
347 830 m 2,46,47
 355 826 355 826 359.5 821 c 128,-1,48
 364 816 364 816 383.5 787 c 128,-1,49
 403 758 403 758 415 746 c 0,50,51
 439 722 439 722 472 712 c 2,52,-1
 482 709 l 1,53,-1
 662 709 l 2,54,55
 842 708 842 708 846 706.5 c 128,-1,56
 850 705 850 705 856 701 c 128,-1,57
 862 697 862 697 865 694 c 128,-1,58
 868 691 868 691 871 684 c 2,59,-1
 874 677 l 1,60,-1
 874 239 l 1,61,-1
 871 232 l 2,62,63
 863 217 863 217 848 211 c 2,64,-1
 841 209 l 1,65,-1
 159 209 l 1,66,-1
 152 211 l 2,67,68
 137 217 137 217 129 232 c 2,69,-1
 126 239 l 1,70,-1
 126 802 l 1,71,-1
 129 809 l 2,72,73
 133 818 133 818 141 824.5 c 128,-1,74
 149 831 149 831 159 832 c 0,75,76
 166 833 166 833 252 833 c 2,77,-1
 339 833 l 1,78,-1
 347 830 l 2,46,47
490 624 m 0,79,80
 481 622 481 622 473 614.5 c 128,-1,81
 465 607 465 607 461 598 c 0,82,83
 459 593 459 593 459 582 c 2,84,-1
 459 513 l 2,85,86
 459 435 459 435 458 435 c 128,-1,87
 457 435 457 435 428 464 c 0,88,89
 409 483 409 483 402 488 c 0,90,91
 394 496 394 496 389 497.5 c 128,-1,92
 384 499 384 499 374 499 c 128,-1,93
 364 499 364 499 357 496 c 0,94,95
 343 489 343 489 337 473.5 c 128,-1,96
 331 458 331 458 336 443 c 0,97,98
 338 438 338 438 348.5 427 c 128,-1,99
 359 416 359 416 407 368 c 0,100,101
 474 300 474 300 480 297 c 0,102,103
 489 292 489 292 500 292 c 128,-1,104
 511 292 511 292 520 297 c 0,105,106
 526 300 526 300 593 368 c 0,107,108
 641 416 641 416 651.5 427 c 128,-1,109
 662 438 662 438 664 443 c 0,110,111
 669 458 669 458 663.5 473 c 128,-1,112
 658 488 658 488 643 496 c 0,113,114
 638 498 638 498 635 498.5 c 128,-1,115
 632 499 632 499 625 499 c 0,116,117
 616 499 616 499 611 497.5 c 128,-1,118
 606 496 606 496 597 488 c 0,119,120
 591 483 591 483 572 464 c 0,121,122
 543 435 543 435 542 435 c 128,-1,123
 541 435 541 435 541 513 c 2,124,-1
 541 582 l 2,125,126
 541 593 541 593 539 598 c 0,127,128
 533 612 533 612 519 619.5 c 128,-1,129
 505 627 505 627 490 624 c 0,79,80
EndSplineSet
Validated: 553
EndChar

StartChar: folder-open-dot
Encoding: 58570 58570 27
Width: 1000
GlyphClass: 1
Flags: W
LayerCount: 2
Fore
SplineSet
143 914 m 0,0,1
 114 909 114 909 91 891 c 128,-1,2
 68 873 68 873 55 847 c 0,3,4
 45 827 45 827 43 804 c 0,5,6
 41 792 41 792 42 513 c 2,7,-1
 42 293 l 2,8,9
 42 244 42 244 44 229 c 0,10,11
 45 219 45 219 48 211 c 2,12,-1
 50 207 l 1,13,14
 61 175 61 175 88.5 153 c 128,-1,15
 116 131 116 131 149 126 c 0,16,17
 159 125 159 125 474 125 c 2,18,-1
 789 126 l 1,19,-1
 799 128 l 2,20,21
 833 138 833 138 857 162 c 0,22,23
 878 183 878 183 887 209 c 0,24,25
 889 216 889 216 921 339.5 c 128,-1,26
 953 463 953 463 956 474 c 0,27,28
 961 499 961 499 955.5 525 c 128,-1,29
 950 551 950 551 935 572 c 0,30,31
 926 585 926 585 912.5 596.5 c 128,-1,32
 899 608 899 608 884 614 c 2,33,-1
 875 618 l 1,34,-1
 875 652 l 2,35,36
 874 677 874 677 873.5 683.5 c 128,-1,37
 873 690 873 690 871 698 c 0,38,39
 861 733 861 733 837 756 c 0,40,41
 825 768 825 768 812 775 c 128,-1,42
 799 782 799 782 781 788 c 0,43,44
 774 790 774 790 755 790 c 2,45,-1
 512 792 l 2,46,47
 493 793 493 793 488 794 c 0,48,49
 481 797 481 797 474.5 804 c 128,-1,50
 468 811 468 811 456 830 c 2,51,-1
 432 864 l 2,52,53
 402 904 402 904 354 914 c 0,54,55
 347 916 347 916 330 916 c 2,56,-1
 248 916 l 2,57,58
 152 916 152 916 143 914 c 0,0,1
346 830 m 2,59,60
 353 827 353 827 357 823.5 c 128,-1,61
 361 820 361 820 379 794 c 128,-1,62
 397 768 397 768 402.5 760.5 c 128,-1,63
 408 753 408 753 415 745 c 0,64,65
 438 722 438 722 472 712 c 2,66,-1
 482 709 l 1,67,-1
 737 708 l 2,68,69
 760 707 760 707 764 706 c 0,70,71
 776 701 776 701 783 691 c 0,72,73
 789 684 789 684 790 677 c 128,-1,74
 791 670 791 670 791 650 c 2,75,-1
 791 625 l 1,76,-1
 366 624 l 1,77,-1
 354 621 l 2,78,79
 333 615 333 615 315 604 c 0,80,81
 307 598 307 598 296.5 587.5 c 128,-1,82
 286 577 286 577 280.5 569 c 128,-1,83
 275 561 275 561 242 495 c 2,84,-1
 209 429 l 1,85,-1
 209 417 l 2,86,87
 209 404 209 404 212 399 c 0,88,89
 219 385 219 385 232 379 c 0,90,91
 239 376 239 376 250 376 c 128,-1,92
 261 376 261 376 268 379.5 c 128,-1,93
 275 383 275 383 279 387.5 c 128,-1,94
 283 392 283 392 292 408 c 0,95,96
 298 420 298 420 317 458 c 0,97,98
 350 523 350 523 353.5 527.5 c 128,-1,99
 357 532 357 532 365 536 c 2,100,-1
 373 541 l 1,101,-1
 846 541 l 1,102,-1
 852 538 l 2,103,104
 858 534 858 534 864 527.5 c 128,-1,105
 870 521 870 521 872.5 514 c 128,-1,106
 875 507 875 507 874.5 499 c 128,-1,107
 874 491 874 491 841.5 364 c 128,-1,108
 809 237 809 237 806 231.5 c 128,-1,109
 803 226 803 226 797.5 220.5 c 128,-1,110
 792 215 792 215 787 212 c 2,111,-1
 781 209 l 1,112,-1
 159 209 l 1,113,-1
 152 211 l 2,114,115
 137 217 137 217 129 232 c 2,116,-1
 126 239 l 1,117,-1
 126 802 l 1,118,-1
 129 808 l 2,119,120
 132 817 132 817 141 824 c 128,-1,121
 150 831 150 831 160 833 c 0,122,123
 166 833 166 833 252 833 c 2,124,-1
 339 833 l 1,125,-1
 346 830 l 2,59,60
EndSplineSet
Validated: 553
EndChar

StartChar: folder-plus
Encoding: 57563 57563 28
Width: 1000
GlyphClass: 1
Flags: W
LayerCount: 2
Fore
SplineSet
141 914 m 0,0,1
 107 907 107 907 81.5 882.5 c 128,-1,2
 56 858 56 858 46 825 c 0,3,4
 43 815 43 815 43 800 c 0,5,6
 42 781 42 781 41 719 c 2,7,-1
 42 274 l 2,8,9
 43 230 43 230 44 224 c 0,10,11
 54 185 54 185 81 159.5 c 128,-1,12
 108 134 108 134 146 127 c 0,13,14
 158 125 158 125 500 125 c 128,-1,15
 842 125 842 125 854 127 c 0,16,17
 892 134 892 134 919.5 159.5 c 128,-1,18
 947 185 947 185 956 224 c 0,19,20
 957 230 957 230 958 265 c 2,21,-1
 958 450 l 2,22,23
 959 667 959 667 958 679 c 0,24,25
 953 715 953 715 933 742 c 0,26,27
 907 776 907 776 864 788 c 2,28,-1
 854 791 l 1,29,-1
 494 792 l 1,30,-1
 487 795 l 2,31,32
 479 799 479 799 475 803 c 128,-1,33
 471 807 471 807 451 837 c 0,34,35
 435 860 435 860 426 871 c 128,-1,36
 417 882 417 882 408 889 c 0,37,38
 400 895 400 895 389 901.5 c 128,-1,39
 378 908 378 908 370 910 c 0,40,41
 355 915 355 915 339.5 915.5 c 128,-1,42
 324 916 324 916 248 916 c 2,43,-1
 165 916 l 2,44,45
 148 915 148 915 141 914 c 0,0,1
347 830 m 2,46,47
 355 826 355 826 359.5 821 c 128,-1,48
 364 816 364 816 383.5 787 c 128,-1,49
 403 758 403 758 415 746 c 0,50,51
 439 722 439 722 472 712 c 2,52,-1
 482 709 l 1,53,-1
 662 709 l 2,54,55
 842 708 842 708 846 706.5 c 128,-1,56
 850 705 850 705 856 701 c 128,-1,57
 862 697 862 697 865 694 c 128,-1,58
 868 691 868 691 871 684 c 2,59,-1
 874 677 l 1,60,-1
 874 239 l 1,61,-1
 871 232 l 2,62,63
 863 217 863 217 848 211 c 2,64,-1
 841 209 l 1,65,-1
 159 209 l 1,66,-1
 152 211 l 2,67,68
 137 217 137 217 129 232 c 2,69,-1
 126 239 l 1,70,-1
 126 802 l 1,71,-1
 129 809 l 2,72,73
 133 818 133 818 141 824.5 c 128,-1,74
 149 831 149 831 159 832 c 0,75,76
 166 833 166 833 252 833 c 2,77,-1
 339 833 l 1,78,-1
 347 830 l 2,46,47
490 624 m 0,79,80
 481 622 481 622 473 614.5 c 128,-1,81
 465 607 465 607 461 598 c 0,82,83
 460 593 460 593 459.5 585.5 c 128,-1,84
 459 578 459 578 459 546 c 2,85,-1
 459 500 l 1,86,-1
 364 499 l 1,87,-1
 357 496 l 2,88,89
 338 487 338 487 334.5 466 c 128,-1,90
 331 445 331 445 345 430 c 0,91,92
 351 424 351 424 358 420 c 2,93,-1
 366 417 l 1,94,-1
 459 416 l 1,95,-1
 459 371 l 2,96,97
 459 342 459 342 459 333 c 0,98,99
 460 321 460 321 462 316 c 128,-1,100
 464 311 464 311 470 305 c 0,101,102
 483 292 483 292 500 292 c 128,-1,103
 517 292 517 292 530 305 c 0,104,105
 536 311 536 311 538 316 c 128,-1,106
 540 321 540 321 541 333 c 0,107,108
 541 342 541 342 541 371 c 2,109,-1
 541 416 l 1,110,-1
 634 417 l 1,111,-1
 642 420 l 2,112,113
 657 428 657 428 663 443 c 128,-1,114
 669 458 669 458 663.5 473 c 128,-1,115
 658 488 658 488 643 496 c 2,116,-1
 636 499 l 1,117,-1
 541 500 l 1,118,-1
 541 546 l 2,119,120
 541 578 541 578 540.5 585.5 c 128,-1,121
 540 593 540 593 539 598 c 0,122,123
 533 612 533 612 519 619.5 c 128,-1,124
 505 627 505 627 490 624 c 0,79,80
EndSplineSet
Validated: 553
EndChar

StartChar: folder
Encoding: 57561 57561 29
Width: 1000
GlyphClass: 1
Flags: W
LayerCount: 2
Fore
SplineSet
141 914 m 0,0,1
 107 907 107 907 81.5 882.5 c 128,-1,2
 56 858 56 858 46 825 c 0,3,4
 43 815 43 815 43 800 c 0,5,6
 42 781 42 781 41 719 c 2,7,-1
 42 274 l 2,8,9
 43 230 43 230 44 224 c 0,10,11
 54 185 54 185 81 159.5 c 128,-1,12
 108 134 108 134 146 127 c 0,13,14
 158 125 158 125 500 125 c 128,-1,15
 842 125 842 125 854 127 c 0,16,17
 892 134 892 134 919.5 159.5 c 128,-1,18
 947 185 947 185 956 224 c 0,19,20
 957 230 957 230 958 265 c 2,21,-1
 958 450 l 2,22,23
 959 667 959 667 958 679 c 0,24,25
 953 715 953 715 933 742 c 0,26,27
 907 776 907 776 864 788 c 2,28,-1
 854 791 l 1,29,-1
 494 792 l 1,30,-1
 487 795 l 2,31,32
 479 799 479 799 475 803 c 128,-1,33
 471 807 471 807 451 837 c 0,34,35
 435 860 435 860 426 871 c 128,-1,36
 417 882 417 882 408 889 c 0,37,38
 400 895 400 895 389 901.5 c 128,-1,39
 378 908 378 908 370 910 c 0,40,41
 355 915 355 915 339.5 915.5 c 128,-1,42
 324 916 324 916 248 916 c 2,43,-1
 165 916 l 2,44,45
 148 915 148 915 141 914 c 0,0,1
347 830 m 2,46,47
 355 826 355 826 359.5 821 c 128,-1,48
 364 816 364 816 383.5 787 c 128,-1,49
 403 758 403 758 415 746 c 0,50,51
 439 722 439 722 472 712 c 2,52,-1
 482 709 l 1,53,-1
 662 709 l 2,54,55
 842 708 842 708 846 706.5 c 128,-1,56
 850 705 850 705 856 701 c 128,-1,57
 862 697 862 697 865 694 c 128,-1,58
 868 691 868 691 871 684 c 2,59,-1
 874 677 l 1,60,-1
 874 239 l 1,61,-1
 871 232 l 2,62,63
 863 217 863 217 848 211 c 2,64,-1
 841 209 l 1,65,-1
 159 209 l 1,66,-1
 152 211 l 2,67,68
 137 217 137 217 129 232 c 2,69,-1
 126 239 l 1,70,-1
 126 802 l 1,71,-1
 129 809 l 2,72,73
 133 818 133 818 141 824.5 c 128,-1,74
 149 831 149 831 159 832 c 0,75,76
 166 833 166 833 252 833 c 2,77,-1
 339 833 l 1,78,-1
 347 830 l 2,46,47
EndSplineSet
Validated: 41
EndChar

StartChar: frame
Encoding: 58000 58000 30
Width: 1000
GlyphClass: 1
LayerCount: 2
Fore
SplineSet
243 957 m 0,0,1
 236 956 236 956 230.5 953.5 c 128,-1,2
 225 951 225 951 219.5 944.5 c 128,-1,3
 214 938 214 938 211.5 932.5 c 128,-1,4
 209 927 209 927 209 917 c 2,5,-1
 209 791 l 1,6,-1
 72 791 l 1,7,-1
 66 788 l 2,8,9
 50 780 50 780 44.5 764 c 128,-1,10
 39 748 39 748 45 733 c 0,11,12
 49 726 49 726 55 720 c 128,-1,13
 61 714 61 714 67 711.5 c 128,-1,14
 73 709 73 709 83 709 c 2,15,-1
 209 709 l 1,16,-1
 209 291 l 1,17,-1
 72 291 l 1,18,-1
 66 288 l 2,19,20
 50 280 50 280 44.5 264 c 128,-1,21
 39 248 39 248 45 233 c 0,22,23
 49 226 49 226 55 220 c 128,-1,24
 61 214 61 214 67 211.5 c 128,-1,25
 73 209 73 209 83 209 c 2,26,-1
 209 209 l 1,27,-1
 209 83 l 2,28,29
 209 73 209 73 211.5 67 c 128,-1,30
 214 61 214 61 220 55 c 128,-1,31
 226 49 226 49 233.5 45.5 c 128,-1,32
 241 42 241 42 250 42 c 128,-1,33
 259 42 259 42 266.5 45.5 c 128,-1,34
 274 49 274 49 280 55 c 128,-1,35
 286 61 286 61 288.5 67 c 128,-1,36
 291 73 291 73 291 83 c 2,37,-1
 291 209 l 1,38,-1
 709 209 l 1,39,-1
 709 83 l 2,40,41
 709 73 709 73 711.5 67 c 128,-1,42
 714 61 714 61 720 55 c 128,-1,43
 726 49 726 49 733.5 45.5 c 128,-1,44
 741 42 741 42 750 42 c 128,-1,45
 759 42 759 42 766.5 45.5 c 128,-1,46
 774 49 774 49 780 55 c 128,-1,47
 786 61 786 61 788.5 67 c 128,-1,48
 791 73 791 73 791 83 c 2,49,-1
 791 209 l 1,50,-1
 917 209 l 2,51,52
 927 209 927 209 933 211.5 c 128,-1,53
 939 214 939 214 945 220 c 128,-1,54
 951 226 951 226 954.5 233.5 c 128,-1,55
 958 241 958 241 958 250 c 128,-1,56
 958 259 958 259 955 267 c 0,57,58
 948 281 948 281 934 288 c 2,59,-1
 928 291 l 1,60,-1
 791 291 l 1,61,-1
 791 709 l 1,62,-1
 917 709 l 2,63,64
 927 709 927 709 933 711.5 c 128,-1,65
 939 714 939 714 945 720 c 128,-1,66
 951 726 951 726 954.5 733.5 c 128,-1,67
 958 741 958 741 958 750 c 128,-1,68
 958 759 958 759 955 767 c 0,69,70
 948 781 948 781 934 788 c 2,71,-1
 928 791 l 1,72,-1
 791 791 l 1,73,-1
 791 917 l 2,74,75
 791 927 791 927 788.5 932.5 c 128,-1,76
 786 938 786 938 780.5 944.5 c 128,-1,77
 775 951 775 951 769 954 c 0,78,79
 761 958 761 958 750 958 c 128,-1,80
 739 958 739 958 731 954 c 0,81,82
 725 951 725 951 719.5 944.5 c 128,-1,83
 714 938 714 938 711.5 932.5 c 128,-1,84
 709 927 709 927 709 917 c 2,85,-1
 709 791 l 1,86,-1
 291 791 l 1,87,-1
 291 916 l 2,88,89
 291 927 291 927 289 931 c 0,90,91
 284 945 284 945 271 952.5 c 128,-1,92
 258 960 258 960 243 957 c 0,0,1
709 500 m 1,93,-1
 709 291 l 1,94,-1
 291 291 l 1,95,-1
 291 709 l 1,96,-1
 709 709 l 1,97,-1
 709 500 l 1,93,-1
EndSplineSet
Validated: 9
EndChar

StartChar: grid-3x3
Encoding: 57577 57577 31
Width: 1000
GlyphClass: 1
LayerCount: 2
Fore
SplineSet
186 914 m 0,0,1
 150 908 150 908 123.5 883 c 128,-1,2
 97 858 97 858 87 821 c 0,3,4
 85 815 85 815 85 770 c 2,5,-1
 84 500 l 1,6,-1
 85 230 l 2,7,8
 85 185 85 185 87 179 c 0,9,10
 97 144 97 144 120.5 120.5 c 128,-1,11
 144 97 144 97 179 87 c 0,12,13
 185 85 185 85 230 85 c 2,14,-1
 500 84 l 1,15,-1
 770 85 l 2,16,17
 815 85 815 85 821 87 c 0,18,19
 856 97 856 97 879.5 120.5 c 128,-1,20
 903 144 903 144 913 179 c 0,21,22
 915 185 915 185 915 230 c 2,23,-1
 916 500 l 1,24,-1
 915 770 l 2,25,26
 915 815 915 815 913 821 c 0,27,28
 904 856 904 856 880.5 879.5 c 128,-1,29
 857 903 857 903 823 913 c 2,30,-1
 813 916 l 1,31,-1
 504 916 l 2,32,33
 194 916 194 916 186 914 c 0,0,1
334 750 m 1,34,-1
 334 666 l 1,35,-1
 166 666 l 1,36,-1
 167 801 l 1,37,-1
 170 808 l 2,38,39
 175 818 175 818 183.5 824.5 c 128,-1,40
 192 831 192 831 202 833 c 0,41,42
 208 833 208 833 271 834 c 2,43,-1
 334 834 l 1,44,-1
 334 750 l 1,34,-1
584 750 m 1,45,-1
 584 666 l 1,46,-1
 416 666 l 1,47,-1
 416 834 l 1,48,-1
 584 834 l 1,49,-1
 584 750 l 1,45,-1
808 830 m 2,50,51
 823 823 823 823 830 808 c 2,52,-1
 833 801 l 1,53,-1
 834 666 l 1,54,-1
 666 666 l 1,55,-1
 666 834 l 1,56,-1
 801 833 l 1,57,-1
 808 830 l 2,50,51
334 500 m 1,58,-1
 334 416 l 1,59,-1
 166 416 l 1,60,-1
 166 584 l 1,61,-1
 334 584 l 1,62,-1
 334 500 l 1,58,-1
584 500 m 1,63,-1
 584 416 l 1,64,-1
 416 416 l 1,65,-1
 416 584 l 1,66,-1
 584 584 l 1,67,-1
 584 500 l 1,63,-1
834 500 m 1,68,-1
 834 416 l 1,69,-1
 666 416 l 1,70,-1
 666 584 l 1,71,-1
 834 584 l 1,72,-1
 834 500 l 1,68,-1
334 250 m 1,73,-1
 334 166 l 1,74,-1
 271 166 l 2,75,76
 208 166 208 166 201 168 c 0,77,78
 180 172 180 172 170 192 c 2,79,-1
 167 199 l 1,80,-1
 166 334 l 1,81,-1
 334 334 l 1,82,-1
 334 250 l 1,73,-1
584 250 m 1,83,-1
 584 166 l 1,84,-1
 416 166 l 1,85,-1
 416 334 l 1,86,-1
 584 334 l 1,87,-1
 584 250 l 1,83,-1
834 267 m 1,88,-1
 833 199 l 1,89,-1
 830 192 l 2,90,91
 820 172 820 172 799 168 c 0,92,93
 792 166 792 166 729 166 c 2,94,-1
 666 166 l 1,95,-1
 666 334 l 1,96,-1
 834 334 l 1,97,-1
 834 267 l 1,88,-1
EndSplineSet
Validated: 521
EndChar

StartChar: image-minus
Encoding: 57844 57844 32
Width: 1000
GlyphClass: 1
Flags: W
LayerCount: 2
Fore
SplineSet
186 914 m 0,0,1
 150 908 150 908 123.5 883 c 128,-1,2
 97 858 97 858 87 821 c 0,3,4
 85 815 85 815 85 770 c 2,5,-1
 84 500 l 1,6,-1
 85 230 l 2,7,8
 85 185 85 185 87 179 c 0,9,10
 97 144 97 144 120.5 120.5 c 128,-1,11
 144 97 144 97 179 87 c 0,12,13
 185 85 185 85 230 85 c 2,14,-1
 500 84 l 1,15,-1
 770 85 l 2,16,17
 815 85 815 85 821 87 c 0,18,19
 856 97 856 97 879.5 120.5 c 128,-1,20
 903 144 903 144 913 179 c 0,21,22
 915 185 915 185 915 218 c 2,23,-1
 916 637 l 1,24,-1
 913 643 l 2,25,26
 906 655 906 655 893 662 c 0,27,28
 889 664 889 664 886 665 c 128,-1,29
 883 666 883 666 875 666 c 128,-1,30
 867 666 867 666 864 665 c 128,-1,31
 861 664 861 664 857 662 c 0,32,33
 844 655 844 655 837 643 c 2,34,-1
 834 637 l 1,35,-1
 834 476 l 1,36,-1
 801 508 l 2,37,38
 768 541 768 541 757 548 c 0,39,40
 738 561 738 561 719 566 c 0,41,42
 707 569 707 569 689 569 c 128,-1,43
 671 569 671 569 658 566 c 0,44,45
 634 561 634 561 612 544 c 0,46,47
 604 538 604 538 418 352 c 2,48,-1
 232 166 l 1,49,-1
 220 166 l 2,50,51
 204 166 204 166 195.5 169 c 128,-1,52
 187 172 187 172 179 179 c 0,53,54
 174 184 174 184 170 192 c 2,55,-1
 167 199 l 1,56,-1
 167 801 l 1,57,-1
 170 808 l 2,58,59
 177 823 177 823 192 830 c 2,60,-1
 199 833 l 1,61,-1
 512 834 l 1,62,-1
 518 837 l 2,63,64
 523 840 523 840 529 846 c 128,-1,65
 535 852 535 852 538 857.5 c 128,-1,66
 541 863 541 863 541 875 c 128,-1,67
 541 887 541 887 538 893 c 0,68,69
 531 905 531 905 518 912 c 2,70,-1
 512 916 l 1,71,-1
 353 916 l 2,72,73
 194 916 194 916 186 914 c 0,0,1
659 832 m 0,74,75
 645 830 645 830 635.5 819 c 128,-1,76
 626 808 626 808 625 794 c 0,77,78
 625 784 625 784 629.5 774 c 128,-1,79
 634 764 634 764 643 758 c 2,80,-1
 644 757 l 2,81,82
 650 753 650 753 656 752 c 0,83,84
 664 751 664 751 690 750 c 2,85,-1
 927 751 l 1,86,-1
 934 754 l 2,87,88
 940 757 940 757 945.5 762 c 128,-1,89
 951 767 951 767 953.5 772 c 128,-1,90
 956 777 956 777 957 785 c 0,91,92
 960 799 960 799 953.5 811 c 128,-1,93
 947 823 947 823 933 830 c 2,94,-1
 926 833 l 1,95,-1
 796 833 l 2,96,97
 665 833 665 833 659 832 c 0,74,75
355 748 m 0,98,99
 329 744 329 744 305.5 728 c 128,-1,100
 282 712 282 712 268 690 c 0,101,102
 249 657 249 657 250.5 620.5 c 128,-1,103
 252 584 252 584 273 553.5 c 128,-1,104
 294 523 294 523 329 509 c 0,105,106
 360 497 360 497 393 501.5 c 128,-1,107
 426 506 426 506 452 526.5 c 128,-1,108
 478 547 478 547 491 578 c 0,109,110
 500 601 500 601 500 625 c 128,-1,111
 500 649 500 649 491 671 c 0,112,113
 478 702 478 702 452.5 722.5 c 128,-1,114
 427 743 427 743 394 748 c 0,115,116
 374 751 374 751 355 748 c 0,98,99
393 662 m 0,117,118
 406 656 406 656 412 643 c 0,119,120
 414 639 414 639 415 636 c 128,-1,121
 416 633 416 633 416 625 c 128,-1,122
 416 617 416 617 415 614 c 128,-1,123
 414 611 414 611 412 607 c 0,124,125
 405 594 405 594 393 587 c 0,126,127
 387 584 387 584 375 584 c 128,-1,128
 363 584 363 584 357 587 c 0,129,130
 345 594 345 594 338 607 c 0,131,132
 336 611 336 611 335 614 c 128,-1,133
 334 617 334 617 334 625 c 128,-1,134
 334 633 334 633 335 636 c 128,-1,135
 336 639 336 639 338 643 c 0,136,137
 346 659 346 659 364 665 c 0,138,139
 367 666 367 666 377 665.5 c 128,-1,140
 387 665 387 665 393 662 c 0,117,118
705 483 m 0,141,142
 711 480 711 480 772 418 c 2,143,-1
 834 357 l 1,144,-1
 833 199 l 1,145,-1
 830 192 l 2,146,147
 820 172 820 172 799 168 c 0,148,149
 792 166 792 166 571 166 c 2,150,-1
 351 166 l 1,151,-1
 506 322 l 2,152,153
 662 478 662 478 666 480 c 0,154,155
 674 485 674 485 685 485.5 c 128,-1,156
 696 486 696 486 705 483 c 0,141,142
EndSplineSet
Validated: 553
EndChar

StartChar: image-up
Encoding: 58831 58831 33
Width: 1000
GlyphClass: 1
Flags: W
LayerCount: 2
Fore
SplineSet
186 914 m 0,0,1
 150 908 150 908 123.5 883 c 128,-1,2
 97 858 97 858 87 821 c 0,3,4
 85 815 85 815 85 770 c 2,5,-1
 84 500 l 1,6,-1
 85 230 l 2,7,8
 85 185 85 185 87 179 c 0,9,10
 106 109 106 109 177 87 c 0,11,12
 183 85 183 85 201 85 c 2,13,-1
 311 84 l 1,14,-1
 422 84 l 2,15,16
 439 84 439 84 445 86.5 c 128,-1,17
 451 89 451 89 457.5 95 c 128,-1,18
 464 101 464 101 467.5 108.5 c 128,-1,19
 471 116 471 116 471 125 c 128,-1,20
 471 134 471 134 467 142 c 0,21,22
 461 156 461 156 447 163 c 0,23,24
 442 165 442 165 435.5 165.5 c 128,-1,25
 429 166 429 166 396 166 c 2,26,-1
 351 167 l 1,27,-1
 634 449 l 2,28,29
 661 475 661 475 670 482 c 0,30,31
 677 486 677 486 684 486 c 2,32,-1
 690 486 l 2,33,34
 698 486 698 486 703.5 483 c 128,-1,35
 709 480 709 480 723 467 c 0,36,37
 733 457 733 457 770 421 c 2,38,-1
 789 402 l 2,39,40
 826 364 826 364 837 354 c 0,41,42
 852 340 852 340 859 337 c 0,43,44
 864 334 864 334 873 334 c 2,45,-1
 876 334 l 2,46,47
 887 334 887 334 892.5 337 c 128,-1,48
 898 340 898 340 904 346 c 128,-1,49
 910 352 910 352 913 357 c 2,50,-1
 916 363 l 1,51,-1
 915 782 l 2,52,53
 915 815 915 815 913 821 c 0,54,55
 904 856 904 856 880.5 879.5 c 128,-1,56
 857 903 857 903 823 913 c 2,57,-1
 813 916 l 1,58,-1
 504 916 l 2,59,60
 194 916 194 916 186 914 c 0,0,1
808 830 m 2,61,62
 823 823 823 823 830 808 c 2,63,-1
 833 801 l 1,64,-1
 834 476 l 1,65,-1
 802 507 l 2,66,67
 776 533 776 533 765.5 542 c 128,-1,68
 755 551 755 551 742 557 c 0,69,70
 722 567 722 567 700 569 c 0,71,72
 651 573 651 573 612 544 c 0,73,74
 604 538 604 538 418 352 c 2,75,-1
 232 166 l 1,76,-1
 220 166 l 2,77,78
 204 166 204 166 195.5 169 c 128,-1,79
 187 172 187 172 179 179 c 0,80,81
 174 184 174 184 170 192 c 2,82,-1
 167 199 l 1,83,-1
 167 801 l 1,84,-1
 170 808 l 2,85,86
 175 818 175 818 183.5 824.5 c 128,-1,87
 192 831 192 831 202 833 c 0,88,89
 208 833 208 833 504 833 c 2,90,-1
 801 833 l 1,91,-1
 808 830 l 2,61,62
355 748 m 0,92,93
 329 744 329 744 305.5 728 c 128,-1,94
 282 712 282 712 268 690 c 0,95,96
 249 657 249 657 250.5 620.5 c 128,-1,97
 252 584 252 584 273 553.5 c 128,-1,98
 294 523 294 523 329 509 c 0,99,100
 360 497 360 497 393 501.5 c 128,-1,101
 426 506 426 506 452 526.5 c 128,-1,102
 478 547 478 547 491 578 c 0,103,104
 500 601 500 601 500 625 c 128,-1,105
 500 649 500 649 491 671 c 0,106,107
 478 702 478 702 452.5 722.5 c 128,-1,108
 427 743 427 743 394 748 c 0,109,110
 374 751 374 751 355 748 c 0,92,93
393 662 m 0,111,112
 406 656 406 656 412 643 c 0,113,114
 414 639 414 639 415 636 c 128,-1,115
 416 633 416 633 416 625 c 128,-1,116
 416 617 416 617 415 614 c 128,-1,117
 414 611 414 611 412 607 c 0,118,119
 405 594 405 594 393 587 c 0,120,121
 387 584 387 584 375 584 c 128,-1,122
 363 584 363 584 357 587 c 0,123,124
 345 594 345 594 338 607 c 0,125,126
 336 611 336 611 335 614 c 128,-1,127
 334 617 334 617 334 625 c 128,-1,128
 334 633 334 633 335 636 c 128,-1,129
 336 639 336 639 338 643 c 0,130,131
 346 659 346 659 364 665 c 0,132,133
 367 666 367 666 377 665.5 c 128,-1,134
 387 665 387 665 393 662 c 0,111,112
691 350 m 0,135,136
 686 348 686 348 672.5 335 c 128,-1,137
 659 322 659 322 616 279 c 2,138,-1
 610 273 l 2,139,140
 572 235 572 235 562 225 c 0,141,142
 548 210 548 210 545 203 c 0,143,144
 542 198 542 198 542 189 c 2,145,-1
 542 187 l 2,146,147
 542 170 542 170 555 158 c 0,148,149
 563 149 563 149 575 147 c 128,-1,150
 587 145 587 145 598 149 c 0,151,152
 603 151 603 151 609 156 c 128,-1,153
 615 161 615 161 636 182 c 2,154,-1
 666 212 l 1,155,-1
 666 147 l 2,156,157
 666 83 666 83 668 76 c 0,158,159
 671 59 671 59 685 49.5 c 128,-1,160
 699 40 699 40 716 43 c 0,161,162
 723 44 723 44 728 46.5 c 128,-1,163
 733 49 733 49 738 54.5 c 128,-1,164
 743 60 743 60 746 66 c 2,165,-1
 749 73 l 1,166,-1
 750 212 l 1,167,-1
 780 182 l 2,168,169
 801 161 801 161 807 156 c 128,-1,170
 813 151 813 151 818 149 c 0,171,172
 833 143 833 143 848.5 149 c 128,-1,173
 864 155 864 155 871 170 c 0,174,175
 874 177 874 177 874 188 c 2,176,-1
 874 189 l 2,177,178
 874 198 874 198 871 204 c 128,-1,179
 868 210 868 210 854 225 c 0,180,181
 844 235 844 235 807 273 c 1,182,-1
 800 279 l 1,183,184
 733 347 733 347 727 350 c 128,-1,185
 721 353 721 353 709 354 c 0,186,187
 701 354 701 354 698.5 353.5 c 128,-1,188
 696 353 696 353 691 350 c 0,135,136
EndSplineSet
Validated: 553
EndChar

StartChar: image
Encoding: 57590 57590 34
Width: 1000
GlyphClass: 1
Flags: W
LayerCount: 2
Fore
SplineSet
186 914 m 0,0,1
 150 908 150 908 123.5 883 c 128,-1,2
 97 858 97 858 87 821 c 0,3,4
 85 815 85 815 85 770 c 2,5,-1
 84 500 l 1,6,-1
 85 230 l 2,7,8
 85 185 85 185 87 179 c 0,9,10
 97 144 97 144 120.5 120.5 c 128,-1,11
 144 97 144 97 179 87 c 0,12,13
 185 85 185 85 230 85 c 2,14,-1
 500 84 l 1,15,-1
 770 85 l 2,16,17
 815 85 815 85 821 87 c 0,18,19
 856 97 856 97 879.5 120.5 c 128,-1,20
 903 144 903 144 913 179 c 0,21,22
 915 185 915 185 915 230 c 2,23,-1
 916 500 l 1,24,-1
 915 770 l 2,25,26
 915 815 915 815 913 821 c 0,27,28
 904 856 904 856 880.5 879.5 c 128,-1,29
 857 903 857 903 823 913 c 2,30,-1
 813 916 l 1,31,-1
 504 916 l 2,32,33
 194 916 194 916 186 914 c 0,0,1
808 830 m 2,34,35
 823 823 823 823 830 808 c 2,36,-1
 833 801 l 1,37,-1
 834 476 l 1,38,-1
 801 508 l 2,39,40
 768 541 768 541 757 548 c 0,41,42
 738 561 738 561 719 566 c 0,43,44
 707 569 707 569 689 569 c 128,-1,45
 671 569 671 569 658 566 c 0,46,47
 634 561 634 561 612 544 c 0,48,49
 604 538 604 538 418 352 c 2,50,-1
 232 166 l 1,51,-1
 220 166 l 2,52,53
 204 166 204 166 195.5 169 c 128,-1,54
 187 172 187 172 179 179 c 0,55,56
 174 184 174 184 170 192 c 2,57,-1
 167 199 l 1,58,-1
 167 801 l 1,59,-1
 170 808 l 2,60,61
 175 818 175 818 183.5 824.5 c 128,-1,62
 192 831 192 831 202 833 c 0,63,64
 208 833 208 833 504 833 c 2,65,-1
 801 833 l 1,66,-1
 808 830 l 2,34,35
355 748 m 0,67,68
 329 744 329 744 305.5 728 c 128,-1,69
 282 712 282 712 268 690 c 0,70,71
 249 657 249 657 250.5 620.5 c 128,-1,72
 252 584 252 584 273 553.5 c 128,-1,73
 294 523 294 523 329 509 c 0,74,75
 360 497 360 497 393 501.5 c 128,-1,76
 426 506 426 506 452 526.5 c 128,-1,77
 478 547 478 547 491 578 c 0,78,79
 500 601 500 601 500 625 c 128,-1,80
 500 649 500 649 491 671 c 0,81,82
 478 702 478 702 452.5 722.5 c 128,-1,83
 427 743 427 743 394 748 c 0,84,85
 374 751 374 751 355 748 c 0,67,68
393 662 m 0,86,87
 406 656 406 656 412 643 c 0,88,89
 414 639 414 639 415 636 c 128,-1,90
 416 633 416 633 416 625 c 128,-1,91
 416 617 416 617 415 614 c 128,-1,92
 414 611 414 611 412 607 c 0,93,94
 405 594 405 594 393 587 c 0,95,96
 387 584 387 584 375 584 c 128,-1,97
 363 584 363 584 357 587 c 0,98,99
 345 594 345 594 338 607 c 0,100,101
 336 611 336 611 335 614 c 128,-1,102
 334 617 334 617 334 625 c 128,-1,103
 334 633 334 633 335 636 c 128,-1,104
 336 639 336 639 338 643 c 0,105,106
 346 659 346 659 364 665 c 0,107,108
 367 666 367 666 377 665.5 c 128,-1,109
 387 665 387 665 393 662 c 0,86,87
705 483 m 0,110,111
 711 480 711 480 772 418 c 2,112,-1
 834 357 l 1,113,-1
 833 199 l 1,114,-1
 830 192 l 2,115,116
 820 172 820 172 799 168 c 0,117,118
 792 166 792 166 571 166 c 2,119,-1
 351 166 l 1,120,-1
 506 322 l 2,121,122
 662 478 662 478 666 480 c 0,123,124
 674 485 674 485 685 485.5 c 128,-1,125
 696 486 696 486 705 483 c 0,110,111
EndSplineSet
Validated: 41
EndChar

StartChar: layers-2
Encoding: 58669 58669 35
Width: 1000
GlyphClass: 1
Flags: W
LayerCount: 2
Fore
SplineSet
489 958 m 0,0,1
 465 956 465 956 446 946 c 0,2,3
 437 942 437 942 260 840.5 c 128,-1,4
 83 739 83 739 77 735 c 0,5,6
 54 719 54 719 45 692 c 0,7,8
 42 682 42 682 42 667 c 128,-1,9
 42 652 42 652 45 642 c 0,10,11
 55 613 55 613 79 597 c 0,12,13
 86 593 86 593 165 547.5 c 128,-1,14
 244 502 244 502 245.5 500.5 c 128,-1,15
 247 499 247 499 164.5 452 c 128,-1,16
 82 405 82 405 74 399 c 0,17,18
 51 382 51 382 44 351 c 0,19,20
 40 336 40 336 43 319 c 128,-1,21
 46 302 46 302 55 289 c 0,22,23
 66 272 66 272 80 263 c 0,24,25
 88 258 88 258 263 158 c 128,-1,26
 438 58 438 58 444 55 c 0,27,28
 470 42 470 42 499.5 42 c 128,-1,29
 529 42 529 42 556 55 c 0,30,31
 563 59 563 59 738.5 159 c 128,-1,32
 914 259 914 259 921 264 c 0,33,34
 932 271 932 271 941 283 c 128,-1,35
 950 295 950 295 955 308 c 0,36,37
 958 318 958 318 958 333 c 128,-1,38
 958 348 958 348 955 358 c 0,39,40
 945 386 945 386 922 402 c 0,41,42
 916 406 916 406 834.5 452.5 c 128,-1,43
 753 499 753 499 754.5 500.5 c 128,-1,44
 756 502 756 502 835 547.5 c 128,-1,45
 914 593 914 593 921 597 c 0,46,47
 945 612 945 612 955 642 c 0,48,49
 958 652 958 652 958 667 c 128,-1,50
 958 682 958 682 955 692 c 0,51,52
 946 719 946 719 922 735 c 0,53,54
 917 739 917 739 740.5 840 c 128,-1,55
 564 941 564 941 555 946 c 0,56,57
 542 952 542 952 526 956 c 0,58,59
 520 957 520 957 507.5 958 c 128,-1,60
 495 959 495 959 489 958 c 0,0,1
519 871 m 0,61,62
 534 863 534 863 704.5 765 c 128,-1,63
 875 667 875 667 874 666 c 2,64,-1
 579 497 l 2,65,66
 520 463 520 463 514.5 460.5 c 128,-1,67
 509 458 509 458 500 458 c 128,-1,68
 491 458 491 458 485 460.5 c 128,-1,69
 479 463 479 463 421 497 c 2,70,-1
 126 666 l 2,71,72
 125 667 125 667 222 722 c 2,73,-1
 402 825 l 2,74,75
 484 873 484 873 488 874 c 128,-1,76
 492 875 492 875 502 874.5 c 128,-1,77
 512 874 512 874 519 871 c 0,61,62
390 418 m 256,78,79
 446 386 446 386 454 384 c 0,80,81
 467 379 467 379 475.5 377.5 c 128,-1,82
 484 376 484 376 500 376 c 128,-1,83
 516 376 516 376 524.5 377.5 c 128,-1,84
 533 379 533 379 546 384 c 0,85,86
 554 386 554 386 610 418 c 2,87,-1
 667 451 l 2,88,89
 668 451 668 451 772 392 c 2,90,-1
 875 333 l 1,91,-1
 872 331 l 2,92,93
 856 322 856 322 687.5 225.5 c 128,-1,94
 519 129 519 129 514 128 c 0,95,96
 507 125 507 125 498 125 c 128,-1,97
 489 125 489 125 482 129 c 2,98,-1
 125 333 l 2,99,100
 125 334 125 334 228 392.5 c 128,-1,101
 331 451 331 451 332.5 450.5 c 128,-1,102
 334 450 334 450 390 418 c 256,78,79
EndSplineSet
Validated: 553
EndChar

StartChar: layers-3
Encoding: 58670 58670 36
Width: 1000
GlyphClass: 1
Flags: W
LayerCount: 2
Fore
SplineSet
489 957 m 0,0,1
 470 956 470 956 453 949 c 0,2,3
 443 945 443 945 269 865.5 c 128,-1,4
 95 786 95 786 86.5 782 c 128,-1,5
 78 778 78 778 68 768 c 128,-1,6
 58 758 58 758 53 750 c 0,7,8
 38 723 38 723 44 692.5 c 128,-1,9
 50 662 50 662 74 643 c 0,10,11
 84 636 84 636 133 613 c 0,12,13
 152 604 152 604 151.5 603.5 c 128,-1,14
 151 603 151 603 124 591 c 0,15,16
 95 577 95 577 85.5 572 c 128,-1,17
 76 567 76 567 68 560 c 0,18,19
 42 536 42 536 42 500 c 0,20,21
 42 474 42 474 56 453 c 0,22,23
 65 440 65 440 76 433 c 128,-1,24
 87 426 87 426 119.5 411 c 128,-1,25
 152 396 152 396 152 396 c 1,26,-1
 120 381 l 2,27,28
 95 369 95 369 85 364 c 128,-1,29
 75 359 75 359 69 353 c 0,30,31
 64 348 64 348 58 339.5 c 128,-1,32
 52 331 52 331 49 324 c 0,33,34
 43 310 43 310 42.5 293.5 c 128,-1,35
 42 277 42 277 47 263 c 128,-1,36
 52 249 52 249 63.5 236 c 128,-1,37
 75 223 75 223 89 217 c 0,38,39
 113 205 113 205 285.5 127 c 128,-1,40
 458 49 458 49 465 47 c 0,41,42
 507 35 507 35 548 52 c 0,43,44
 556 55 556 55 737 137 c 2,45,-1
 873 199 l 2,46,47
 912 217 912 217 924 225 c 0,48,49
 933 230 933 230 939 238 c 1,50,-1
 939 238 l 1,51,52
 948 249 948 249 953.5 264 c 128,-1,53
 959 279 959 279 959 291 c 0,54,55
 959 307 959 307 952 323 c 128,-1,56
 945 339 945 339 933 351 c 0,57,58
 926 358 926 358 915.5 363.5 c 128,-1,59
 905 369 905 369 873 384 c 0,60,61
 848 395 848 395 848 396 c 2,62,-1
 879 410 l 2,63,64
 908 423 908 423 917 428 c 128,-1,65
 926 433 926 433 934 441 c 0,66,67
 958 466 958 466 958 500 c 128,-1,68
 958 534 958 534 934 559 c 0,69,70
 927 566 927 566 916.5 571.5 c 128,-1,71
 906 577 906 577 879 589 c 0,72,73
 849 603 849 603 849 603.5 c 128,-1,74
 849 604 849 604 879 618 c 0,75,76
 912 633 912 633 922 639.5 c 128,-1,77
 932 646 932 646 941 656 c 0,78,79
 959 680 959 680 959 708.5 c 128,-1,80
 959 737 959 737 940 761 c 0,81,82
 930 774 930 774 913 782 c 2,83,-1
 731 866 l 1,84,-1
 547 949 l 2,85,86
 531 956 531 956 515 957 c 2,87,-1
 503 958 l 2,88,89
 499 958 499 958 489 957 c 0,0,1
512 873 m 0,90,91
 516 871 516 871 689.5 792.5 c 128,-1,92
 863 714 863 714 872 709 c 0,93,94
 874 708 874 708 863.5 703 c 128,-1,95
 853 698 853 698 804 676 c 2,96,-1
 718 636 l 2,97,98
 662 611 662 611 586.5 577 c 128,-1,99
 511 543 511 543 507 542 c 0,100,101
 500 541 500 541 492.5 543 c 128,-1,102
 485 545 485 545 305.5 626.5 c 128,-1,103
 126 708 126 708 127 709 c 128,-1,104
 128 710 128 710 305 790.5 c 128,-1,105
 482 871 482 871 488 873 c 0,106,107
 500 877 500 877 512 873 c 0,90,91
358 511 m 2,108,109
 456 466 456 466 467 463 c 0,110,111
 483 458 483 458 502.5 458.5 c 128,-1,112
 522 459 522 459 539 465 c 0,113,114
 548 468 548 468 647 513 c 128,-1,115
 746 558 746 558 747 558 c 128,-1,116
 748 558 748 558 809 530 c 2,117,-1
 872 501 l 2,118,119
 874 500 874 500 864 495 c 128,-1,120
 854 490 854 490 814 472 c 2,121,-1
 621 384 l 2,122,123
 520 338 520 338 514 336 c 128,-1,124
 508 334 508 334 500.5 334 c 128,-1,125
 493 334 493 334 488.5 335.5 c 128,-1,126
 484 337 484 337 382 383 c 2,127,-1
 258 439 l 2,128,129
 126 499 126 499 127 500 c 128,-1,130
 128 501 128 501 191 530 c 0,131,132
 235 550 235 550 244.5 554 c 128,-1,133
 254 558 254 558 257 557 c 2,134,-1
 358 511 l 2,108,109
353 305 m 2,135,136
 451 260 451 260 461 257 c 0,137,138
 500 243 500 243 540 257 c 0,139,140
 548 259 548 259 646.5 304 c 128,-1,141
 745 349 745 349 746.5 349 c 128,-1,142
 748 349 748 349 811 320.5 c 128,-1,143
 874 292 874 292 874 291.5 c 128,-1,144
 874 291 874 291 698 211 c 128,-1,145
 522 131 522 131 514 128 c 0,146,147
 500 123 500 123 487 127 c 0,148,149
 482 129 482 129 305 209.5 c 128,-1,150
 128 290 128 290 127 291 c 128,-1,151
 126 292 126 292 189.5 321 c 128,-1,152
 253 350 253 350 254 349 c 2,153,-1
 353 305 l 2,135,136
EndSplineSet
Validated: 553
EndChar

StartChar: minus
Encoding: 57629 57629 37
Width: 1000
GlyphClass: 1
LayerCount: 2
Fore
SplineSet
195 539 m 0,0,1
 178 533 178 533 170.5 516 c 128,-1,2
 163 499 163 499 170 483 c 0,3,4
 174 476 174 476 180 470 c 128,-1,5
 186 464 186 464 193 461 c 2,6,-1
 200 459 l 1,7,-1
 800 459 l 1,8,-1
 807 461 l 2,9,10
 814 464 814 464 820 470 c 128,-1,11
 826 476 826 476 829.5 483.5 c 128,-1,12
 833 491 833 491 833 500 c 128,-1,13
 833 509 833 509 830 517 c 0,14,15
 823 531 823 531 809 538 c 2,16,-1
 803 541 l 1,17,-1
 501 541 l 2,18,19
 199 541 199 541 195 539 c 0,0,1
EndSplineSet
Validated: 41
EndChar

StartChar: mouse
Encoding: 57997 57997 38
Width: 1000
GlyphClass: 1
Flags: W
LayerCount: 2
Fore
SplineSet
481 957 m 0,0,1
 418 954 418 954 360 927 c 128,-1,2
 302 900 302 900 258 854 c 128,-1,3
 214 808 214 808 190 748 c 0,4,5
 174 709 174 709 169 662 c 0,6,7
 167 648 167 648 167 500 c 128,-1,8
 167 352 167 352 169 338 c 0,9,10
 185 212 185 212 276 128 c 0,11,12
 344 66 344 66 435 48 c 0,13,14
 466 42 466 42 500 42 c 0,15,16
 581 42 581 42 653 79 c 0,17,18
 720 114 720 114 766 174.5 c 128,-1,19
 812 235 812 235 827 310 c 1,20,-1
 827 310 l 1,21,22
 832 333 832 333 832.5 356.5 c 128,-1,23
 833 380 833 380 833 497 c 2,24,-1
 833 503 l 2,25,26
 833 620 833 620 832.5 643.5 c 128,-1,27
 832 667 832 667 827 690 c 1,28,-1
 827 690 l 1,29,30
 814 755 814 755 777 810 c 128,-1,31
 740 865 740 865 685 902 c 128,-1,32
 630 939 630 939 565 952 c 0,33,34
 526 959 526 959 481 957 c 0,0,1
523 874 m 0,35,36
 610 865 610 865 674 804 c 0,37,38
 706 773 706 773 725 733 c 128,-1,39
 744 693 744 693 749 648 c 0,40,41
 750 634 750 634 750 500 c 128,-1,42
 750 366 750 366 749 352 c 0,43,44
 741 274 741 274 692 216 c 0,45,46
 657 173 657 173 608 150 c 0,47,48
 557 125 557 125 500 125 c 128,-1,49
 443 125 443 125 391 150 c 0,50,51
 356 167 356 167 328 194 c 0,52,53
 260 259 260 259 251 352 c 0,54,55
 250 366 250 366 250 500 c 128,-1,56
 250 634 250 634 251 648 c 0,57,58
 259 726 259 726 308 784 c 0,59,60
 343 826 343 826 391 849 c 0,61,62
 453 880 453 880 523 874 c 0,35,36
489 790 m 0,63,64
 471 784 471 784 462 768 c 2,65,-1
 459 762 l 1,66,-1
 459 586 l 2,67,68
 459 573 459 573 461.5 567 c 128,-1,69
 464 561 464 561 470 555 c 128,-1,70
 476 549 476 549 483.5 545.5 c 128,-1,71
 491 542 491 542 500 542 c 128,-1,72
 509 542 509 542 516.5 545.5 c 128,-1,73
 524 549 524 549 530 555 c 128,-1,74
 536 561 536 561 538.5 567 c 128,-1,75
 541 573 541 573 541 586 c 2,76,-1
 541 762 l 1,77,-1
 538 768 l 2,78,79
 531 781 531 781 518 787 c 0,80,81
 512 790 512 790 502 790.5 c 128,-1,82
 492 791 492 791 489 790 c 0,63,64
EndSplineSet
Validated: 41
EndChar

StartChar: move-3d
Encoding: 58084 58084 39
Width: 1000
GlyphClass: 1
Flags: W
LayerCount: 2
Fore
SplineSet
191 913 m 0,0,1
 186 910 186 910 172.5 897 c 128,-1,2
 159 884 159 884 116 842 c 2,3,-1
 110 836 l 2,4,5
 72 798 72 798 62 787 c 0,6,7
 48 772 48 772 45 765 c 0,8,9
 42 760 42 760 42 751 c 2,10,-1
 42 750 l 2,11,12
 42 733 42 733 55 720 c 0,13,14
 63 712 63 712 75 709.5 c 128,-1,15
 87 707 87 707 98 711 c 0,16,17
 103 713 103 713 109 718.5 c 128,-1,18
 115 724 115 724 136 744 c 2,19,-1
 166 774 l 1,20,-1
 167 198 l 1,21,-1
 170 192 l 2,22,23
 173 186 173 186 179.5 179 c 128,-1,24
 186 172 186 172 192 170 c 2,25,-1
 198 167 l 1,26,-1
 774 166 l 1,27,-1
 744 136 l 2,28,29
 724 115 724 115 718.5 109 c 128,-1,30
 713 103 713 103 711 98 c 0,31,32
 707 87 707 87 709.5 75 c 128,-1,33
 712 63 712 63 720 55 c 0,34,35
 733 42 733 42 750 42 c 2,36,-1
 751 42 l 2,37,38
 760 42 760 42 765 45 c 0,39,40
 772 48 772 48 787 62 c 0,41,42
 798 72 798 72 836 110 c 1,43,-1
 841 116 l 1,44,45
 909 183 909 183 912 189 c 0,46,47
 914 194 914 194 915 197 c 128,-1,48
 916 200 916 200 916 208 c 0,49,50
 916 221 916 221 913 226.5 c 128,-1,51
 910 232 910 232 842 300 c 2,52,-1
 837 305 l 2,53,54
 798 344 798 344 787 354 c 0,55,56
 772 368 772 368 765 372 c 0,57,58
 760 374 760 374 751 374 c 2,59,-1
 750 374 l 2,60,61
 739 374 739 374 732 371 c 0,62,63
 718 364 718 364 712 348.5 c 128,-1,64
 706 333 706 333 711 318 c 0,65,66
 713 313 713 313 718.5 307 c 128,-1,67
 724 301 724 301 744 280 c 2,68,-1
 774 250 l 1,69,-1
 309 250 l 1,70,-1
 401 342 l 2,71,72
 463 403 463 403 478 419.5 c 128,-1,73
 493 436 493 436 496 441 c 0,74,75
 503 457 503 457 497 473 c 128,-1,76
 491 489 491 489 474 497 c 0,77,78
 468 499 468 499 458 499 c 2,79,-1
 456 499 l 2,80,81
 447 499 447 499 442 496 c 0,82,83
 434 492 434 492 416 474 c 0,84,85
 402 462 402 462 355 414 c 2,86,-1
 250 309 l 1,87,-1
 250 774 l 1,88,-1
 280 744 l 2,89,90
 301 724 301 724 307 718.5 c 128,-1,91
 313 713 313 713 318 711 c 0,92,93
 333 706 333 706 348.5 712 c 128,-1,94
 364 718 364 718 371 732 c 0,95,96
 374 739 374 739 374 750 c 2,97,-1
 374 752 l 2,98,99
 374 760 374 760 371 766 c 128,-1,100
 368 772 368 772 354 787 c 0,101,102
 344 798 344 798 307 835 c 2,103,-1
 300 842 l 2,104,105
 233 909 233 909 227 912.5 c 128,-1,106
 221 916 221 916 209 916 c 0,107,108
 201 916 201 916 198.5 915.5 c 128,-1,109
 196 915 196 915 191 913 c 0,0,1
EndSplineSet
Validated: 553
EndChar

StartChar: palette
Encoding: 57819 57819 40
Width: 1000
GlyphClass: 1
LayerCount: 2
Fore
SplineSet
478 957 m 0,0,1
 382 953 382 953 296 910 c 0,2,3
 228 876 228 876 172 819 c 0,4,5
 120 766 120 766 87 698 c 0,6,7
 55 632 55 632 45.5 561 c 128,-1,8
 36 490 36 490 49 417 c 0,9,10
 60 359 60 359 87 303 c 0,11,12
 105 265 105 265 126 236 c 128,-1,13
 147 207 147 207 177 177 c 128,-1,14
 207 147 207 147 236 126 c 128,-1,15
 265 105 265 105 303 87 c 0,16,17
 368 55 368 55 440 46 c 0,18,19
 455 44 455 44 477 42.5 c 128,-1,20
 499 41 499 41 507 42 c 0,21,22
 541 45 541 45 567 65 c 128,-1,23
 593 85 593 85 604 115 c 0,24,25
 610 133 610 133 610 154 c 128,-1,26
 610 175 610 175 603.5 192 c 128,-1,27
 597 209 597 209 583 226 c 0,28,29
 573 239 573 239 574.5 250.5 c 128,-1,30
 576 262 576 262 583 268 c 0,31,32
 588 273 588 273 596.5 274 c 128,-1,33
 605 275 605 275 645 275 c 0,34,35
 696 275 696 275 709 276 c 0,36,37
 772 282 772 282 825 314.5 c 128,-1,38
 878 347 878 347 912.5 398.5 c 128,-1,39
 947 450 947 450 956 512 c 0,40,41
 958 531 958 531 957.5 557 c 128,-1,42
 957 583 957 583 953 606 c 0,43,44
 946 649 946 649 927.5 692.5 c 128,-1,45
 909 736 909 736 882 773 c 0,46,47
 850 815 850 815 806 851 c 128,-1,48
 762 887 762 887 713 910 c 0,49,50
 622 953 622 953 530 957 c 2,51,-1
 505 958 l 2,52,53
 498 958 498 958 478 957 c 0,0,1
550 872 m 0,54,55
 675 856 675 856 765 777 c 0,56,57
 804 742 804 742 831 697.5 c 128,-1,58
 858 653 858 653 868 607 c 0,59,60
 879 553 879 553 871 510 c 0,61,62
 860 458 860 458 822.5 418.5 c 128,-1,63
 785 379 785 379 733 365 c 0,64,65
 720 361 720 361 707 360.5 c 128,-1,66
 694 360 694 360 647 359 c 2,67,-1
 592 358 l 2,68,69
 581 357 581 357 574 355 c 0,70,71
 543 347 543 347 520 323 c 0,72,73
 504 306 504 306 496.5 283.5 c 128,-1,74
 489 261 489 261 491 237 c 0,75,76
 493 219 493 219 498.5 205.5 c 128,-1,77
 504 192 504 192 514 179 c 0,78,79
 522 169 522 169 524 164.5 c 128,-1,80
 526 160 526 160 526 153 c 0,81,82
 526 140 526 140 517 132 c 0,83,84
 512 127 512 127 506 126 c 128,-1,85
 500 125 500 125 484 125 c 0,86,87
 400 129 400 129 325 169 c 128,-1,88
 250 209 250 209 199 277 c 0,89,90
 140 357 140 357 127 459 c 0,91,92
 126 471 126 471 126 500 c 128,-1,93
 126 529 126 529 127 541 c 0,94,95
 139 636 139 636 193 714 c 128,-1,96
 247 792 247 792 331 834 c 0,97,98
 365 852 365 852 399.5 861.5 c 128,-1,99
 434 871 434 871 475 874 c 0,100,101
 484 875 484 875 511.5 874 c 128,-1,102
 539 873 539 873 550 872 c 0,54,55
549 790 m 0,103,104
 534 787 534 787 521.5 776 c 128,-1,105
 509 765 509 765 504 751 c 0,106,107
 498 734 498 734 501.5 716.5 c 128,-1,108
 505 699 505 699 518 686 c 0,109,110
 537 667 537 667 562.5 667 c 128,-1,111
 588 667 588 667 607 686 c 0,112,113
 628 707 628 707 625 735.5 c 128,-1,114
 622 764 622 764 597 781 c 0,115,116
 589 786 589 786 582.5 788 c 128,-1,117
 576 790 576 790 564 790.5 c 128,-1,118
 552 791 552 791 549 790 c 0,103,104
340 748 m 0,119,120
 317 743 317 743 302.5 722 c 128,-1,121
 288 701 288 701 292 678 c 0,122,123
 297 651 297 651 320 635.5 c 128,-1,124
 343 620 343 620 369 627 c 0,125,126
 393 633 393 633 408 655 c 0,127,128
 416 668 416 668 416 687.5 c 128,-1,129
 416 707 416 707 408 720 c 0,130,131
 396 738 396 738 378 745.5 c 128,-1,132
 360 753 360 753 340 748 c 0,119,120
715 623 m 0,133,134
 692 618 692 618 677.5 597 c 128,-1,135
 663 576 663 576 667 553 c 0,136,137
 672 526 672 526 695 510.5 c 128,-1,138
 718 495 718 495 744 502 c 0,139,140
 760 506 760 506 772 517.5 c 128,-1,141
 784 529 784 529 789 544 c 0,142,143
 793 556 793 556 791 570.5 c 128,-1,144
 789 585 789 585 783 595 c 0,145,146
 771 613 771 613 753 620.5 c 128,-1,147
 735 628 735 628 715 623 c 0,133,134
254 539 m 0,148,149
 239 535 239 535 227.5 523.5 c 128,-1,150
 216 512 216 512 211 497 c 0,151,152
 208 489 208 489 209 476 c 0,153,154
 209 467 209 467 210 463.5 c 128,-1,155
 211 460 211 460 214 453 c 0,156,157
 219 444 219 444 227 435 c 0,158,159
 241 422 241 422 260.5 418 c 128,-1,160
 280 414 280 414 298.5 423.5 c 128,-1,161
 317 433 317 433 326.5 451.5 c 128,-1,162
 336 470 336 470 332 489.5 c 128,-1,163
 328 509 328 509 315 522 c 128,-1,164
 302 535 302 535 287 540 c 0,165,166
 281 541 281 541 270.5 541 c 128,-1,167
 260 541 260 541 254 539 c 0,148,149
EndSplineSet
Validated: 41
EndChar

StartChar: pentagon
Encoding: 58671 58671 41
Width: 1000
GlyphClass: 1
Flags: W
LayerCount: 2
Fore
SplineSet
475 913 m 0,0,1
 460 910 460 910 450 905 c 0,2,3
 438 899 438 899 412 882 c 0,4,5
 392 868 392 868 331 824 c 2,6,-1
 175 710 l 2,7,8
 131 678 131 678 115.5 665.5 c 128,-1,9
 100 653 100 653 93 643 c 0,10,11
 77 621 77 621 72 593.5 c 128,-1,12
 67 566 67 566 74 543 c 0,13,14
 78 530 78 530 136.5 348 c 128,-1,15
 195 166 195 166 201 154 c 0,16,17
 213 129 213 129 234.5 111.5 c 128,-1,18
 256 94 256 94 283 87 c 0,19,20
 289 85 289 85 320 85 c 2,21,-1
 713 84 l 1,22,-1
 723 87 l 2,23,24
 750 95 750 95 771.5 113.5 c 128,-1,25
 793 132 793 132 805 158 c 0,26,27
 809 166 809 166 869.5 353 c 128,-1,28
 930 540 930 540 932 551 c 128,-1,29
 934 562 934 562 933.5 577.5 c 128,-1,30
 933 593 933 593 929 604 c 0,31,32
 920 636 920 636 898 658 c 0,33,34
 890 666 890 666 865 684 c 2,35,-1
 648 839 l 2,36,37
 583 886 583 886 562 899 c 0,38,39
 547 908 547 908 533 911 c 0,40,41
 523 914 523 914 503.5 914.5 c 128,-1,42
 484 915 484 915 475 913 c 0,0,1
518 828 m 0,43,44
 525 825 525 825 680 714 c 128,-1,45
 835 603 835 603 840.5 597 c 128,-1,46
 846 591 846 591 848 585 c 2,47,-1
 848 584 l 2,48,49
 851 578 851 578 849 570 c 0,50,51
 847 559 847 559 836 522 c 2,52,-1
 790 381 l 2,53,54
 731 196 731 196 728.5 190.5 c 128,-1,55
 726 185 726 185 719.5 179 c 128,-1,56
 713 173 713 173 708 170 c 2,57,-1
 701 167 l 1,58,-1
 355 166 l 2,59,60
 317 167 317 167 306 168 c 0,61,62
 298 169 298 169 293 172 c 2,63,-1
 291 173 l 2,64,65
 282 179 282 179 275 192 c 0,66,67
 273 197 273 197 213.5 382 c 128,-1,68
 154 567 154 567 154 573 c 128,-1,69
 154 579 154 579 156.5 586 c 128,-1,70
 159 593 159 593 163 597 c 128,-1,71
 167 601 167 601 320.5 712.5 c 128,-1,72
 474 824 474 824 481 828 c 128,-1,73
 488 832 488 832 499 832 c 128,-1,74
 510 832 510 832 518 828 c 0,43,44
EndSplineSet
Validated: 41
EndChar

StartChar: plus
Encoding: 57663 57663 42
Width: 1000
GlyphClass: 1
Flags: W
LayerCount: 2
Fore
SplineSet
493 832 m 0,0,1
 486 831 486 831 480.5 828.5 c 128,-1,2
 475 826 475 826 469.5 819.5 c 128,-1,3
 464 813 464 813 461.5 807.5 c 128,-1,4
 459 802 459 802 459 784 c 2,5,-1
 459 541 l 1,6,-1
 197 541 l 1,7,-1
 191 538 l 2,8,9
 175 530 175 530 169.5 514 c 128,-1,10
 164 498 164 498 170 483 c 0,11,12
 174 476 174 476 180 470 c 128,-1,13
 186 464 186 464 192 461.5 c 128,-1,14
 198 459 198 459 216 459 c 2,15,-1
 459 459 l 1,16,-1
 459 216 l 2,17,18
 459 198 459 198 461.5 192 c 128,-1,19
 464 186 464 186 470 180 c 128,-1,20
 476 174 476 174 483.5 170.5 c 128,-1,21
 491 167 491 167 500 167 c 128,-1,22
 509 167 509 167 516.5 170.5 c 128,-1,23
 524 174 524 174 530 180 c 128,-1,24
 536 186 536 186 538.5 192 c 128,-1,25
 541 198 541 198 541 216 c 2,26,-1
 541 459 l 1,27,-1
 784 459 l 2,28,29
 802 459 802 459 808 461.5 c 128,-1,30
 814 464 814 464 820 470 c 128,-1,31
 826 476 826 476 829.5 483.5 c 128,-1,32
 833 491 833 491 833 500 c 128,-1,33
 833 509 833 509 830 517 c 0,34,35
 823 531 823 531 809 538 c 2,36,-1
 803 541 l 1,37,-1
 541 541 l 1,38,-1
 541 783 l 2,39,40
 541 802 541 802 539 806 c 0,41,42
 534 820 534 820 521 827.5 c 128,-1,43
 508 835 508 835 493 832 c 0,0,1
EndSplineSet
Validated: 9
EndChar

StartChar: pyramid
Encoding: 58672 58672 43
Width: 1000
GlyphClass: 1
Flags: W
LayerCount: 2
Fore
SplineSet
486 957 m 0,0,1
 459 952 459 952 441 933 c 0,2,3
 436 928 436 928 246 654 c 128,-1,4
 56 380 56 380 51 371 c 0,5,6
 42 354 42 354 42 333 c 0,7,8
 42 299 42 299 66 275 c 2,9,-1
 77 264 l 1,10,-1
 443 55 l 2,11,12
 464 45 464 45 493 42 c 0,13,14
 505 41 505 41 524 44.5 c 128,-1,15
 543 48 543 48 556 55 c 0,16,17
 562 58 562 58 742 161 c 2,18,-1
 923 264 l 1,19,-1
 934 275 l 2,20,21
 958 299 958 299 958 332 c 0,22,23
 958 351 958 351 951 367 c 0,24,25
 947 376 947 376 757 650.5 c 128,-1,26
 567 925 567 925 563 930 c 0,27,28
 550 945 550 945 528 953 c 128,-1,29
 506 961 506 961 486 957 c 0,0,1
458 311 m 2,30,-1
 458 142 l 1,31,-1
 125 333 l 1,32,-1
 458 814 l 1,33,-1
 458 647 l 2,34,35
 459 479 459 479 458 311 c 2,30,-1
709 573 m 0,36,37
 873 336 873 336 874 334.5 c 128,-1,38
 875 333 875 333 711 239 c 2,39,-1
 541 142 l 1,40,-1
 542 752 l 2,41,42
 542 814 542 814 543.5 812.5 c 128,-1,43
 545 811 545 811 709 573 c 0,36,37
EndSplineSet
Validated: 41
EndChar

StartChar: rotate-3d
Encoding: 58089 58089 44
Width: 1000
GlyphClass: 1
Flags: W
LayerCount: 2
Fore
SplineSet
487 957 m 0,0,1
 441 954 441 954 399.5 921.5 c 128,-1,2
 358 889 358 889 325 832 c 0,3,4
 303 792 303 792 286 740 c 2,5,-1
 279 720 l 1,6,-1
 268 717 l 2,7,8
 238 708 238 708 204.5 693 c 128,-1,9
 171 678 171 678 147 662 c 0,10,11
 106 635 106 635 82 605 c 0,12,13
 27 537 27 537 47 461 c 0,14,15
 56 428 56 428 81 396.5 c 128,-1,16
 106 365 106 365 145 340 c 0,17,18
 170 323 170 323 203 308 c 128,-1,19
 236 293 236 293 268 283 c 2,20,-1
 280 280 l 1,21,-1
 283 268 l 2,22,23
 293 236 293 236 308 202 c 0,24,25
 337 139 337 139 376.5 99 c 128,-1,26
 416 59 416 59 461 47 c 0,27,28
 488 40 488 40 513 42 c 0,29,30
 530 44 530 44 544.5 48.5 c 128,-1,31
 559 53 559 53 566.5 58.5 c 128,-1,32
 574 64 574 64 579 75.5 c 128,-1,33
 584 87 584 87 583 96 c 0,34,35
 582 102 582 102 578.5 109.5 c 128,-1,36
 575 117 575 117 570 122 c 0,37,38
 553 139 553 139 524 129 c 0,39,40
 513 126 513 126 504 125 c 0,41,42
 477 123 477 123 449 145.5 c 128,-1,43
 421 168 421 168 397 211 c 0,44,45
 390 224 390 224 382.5 240.5 c 128,-1,46
 375 257 375 257 375.5 258 c 128,-1,47
 376 259 376 259 395 256 c 0,48,49
 423 253 423 253 443.5 252 c 128,-1,50
 464 251 464 251 502.5 251 c 128,-1,51
 541 251 541 251 564.5 252.5 c 128,-1,52
 588 254 588 254 619 258 c 0,53,54
 635 261 635 261 660.5 265.5 c 128,-1,55
 686 270 686 270 699 274 c 0,56,57
 708 276 708 276 708.5 276 c 128,-1,58
 709 276 709 276 692 241 c 0,59,60
 679 215 679 215 675.5 205 c 128,-1,61
 672 195 672 195 673 188 c 128,-1,62
 674 181 674 181 678 173.5 c 128,-1,63
 682 166 682 166 687 161 c 0,64,65
 696 153 696 153 709 151.5 c 128,-1,66
 722 150 722 150 732.5 155.5 c 128,-1,67
 743 161 743 161 749 170 c 0,68,69
 751 173 751 173 784 240 c 2,70,-1
 829 331 l 2,71,72
 832 338 832 338 832.5 341 c 128,-1,73
 833 344 833 344 833 351 c 0,74,75
 833 362 833 362 830 369 c 1,76,-1
 830 369 l 1,77,78
 826 376 826 376 822 380 c 0,79,80
 816 385 816 385 797 395 c 2,81,-1
 733 427 l 2,82,83
 649 467 649 467 644 468.5 c 128,-1,84
 639 470 639 470 629.5 469.5 c 128,-1,85
 620 469 620 469 615 466 c 0,86,87
 605 461 605 461 598 450.5 c 128,-1,88
 591 440 591 440 591 429 c 0,89,90
 591 422 591 422 594.5 414 c 128,-1,91
 598 406 598 406 602.5 401 c 128,-1,92
 607 396 607 396 614.5 392 c 128,-1,93
 622 388 622 388 647 375 c 0,94,95
 685 357 685 357 683 356 c 0,96,97
 680 354 680 354 648.5 348 c 128,-1,98
 617 342 617 342 597 339 c 0,99,100
 552 334 552 334 499.5 334 c 128,-1,101
 447 334 447 334 403 339 c 0,102,103
 386 342 386 342 368 345 c 128,-1,104
 350 348 350 348 349 349.5 c 128,-1,105
 348 351 348 351 345 370 c 0,106,107
 322 500 322 500 345 630 c 0,108,109
 348 649 348 649 349.5 650.5 c 128,-1,110
 351 652 351 652 370 655 c 0,111,112
 439 667 439 667 511.5 666 c 128,-1,113
 584 665 584 665 650 652 c 0,114,115
 708 640 708 640 756 619 c 128,-1,116
 804 598 804 598 834 572 c 0,117,118
 856 553 856 553 868 529 c 0,119,120
 876 514 876 514 885 507.5 c 128,-1,121
 894 501 894 501 908 501 c 0,122,123
 915 501 915 501 918 501.5 c 128,-1,124
 921 502 921 502 927 505 c 0,125,126
 940 511 940 511 946 525 c 0,127,128
 950 532 950 532 949.5 541.5 c 128,-1,129
 949 551 949 551 946 560 c 0,130,131
 938 578 938 578 924 598 c 0,132,133
 917 607 917 607 899.5 624 c 128,-1,134
 882 641 882 641 871 649 c 0,135,136
 815 690 815 690 738 715 c 2,137,-1
 721 720 l 1,138,-1
 713 742 l 2,139,140
 689 819 689 819 648 873 c 0,141,142
 639 884 639 884 623.5 900.5 c 128,-1,143
 608 917 608 917 598 923 c 0,144,145
 546 962 546 962 487 957 c 0,0,1
523 871 m 0,146,147
 545 863 545 863 566.5 840 c 128,-1,148
 588 817 588 817 607 781 c 0,149,150
 613 770 613 770 619 756 c 128,-1,151
 625 742 625 742 624.5 741.5 c 128,-1,152
 624 741 624 741 602 744 c 0,153,154
 495 756 495 756 391 743 c 0,155,156
 376 741 376 741 375.5 742 c 128,-1,157
 375 743 375 743 382.5 759.5 c 128,-1,158
 390 776 390 776 397 789 c 0,159,160
 417 824 417 824 439.5 846 c 128,-1,161
 462 868 462 868 485 873 c 0,162,163
 493 875 493 875 503.5 874.5 c 128,-1,164
 514 874 514 874 523 871 c 0,146,147
259 624 m 256,165,166
 259 623 259 623 257 610 c 0,167,168
 251 566 251 566 251 502 c 0,169,170
 251 464 251 464 252 443.5 c 128,-1,171
 253 423 253 423 256 395 c 0,172,173
 259 376 259 376 258.5 375.5 c 128,-1,174
 258 375 258 375 243 381.5 c 128,-1,175
 228 388 228 388 218 393 c 0,176,177
 183 412 183 412 160 433.5 c 128,-1,178
 137 455 137 455 129 478 c 0,179,180
 125 488 125 488 125.5 500 c 128,-1,181
 126 512 126 512 129 522 c 0,182,183
 136 543 136 543 157 564 c 0,184,185
 188 594 188 594 240 618 c 1,186,-1
 256 624 l 2,187,188
 259 625 259 625 259 624 c 256,165,166
EndSplineSet
Validated: 553
EndChar

StartChar: save-all
Encoding: 58387 58387 45
Width: 1000
GlyphClass: 1
LayerCount: 2
Fore
SplineSet
321 957 m 0,0,1
 299 955 299 955 278 945 c 0,2,3
 255 933 255 933 238 913 c 128,-1,4
 221 893 221 893 213 867 c 2,5,-1
 209 856 l 1,6,-1
 210 349 l 2,7,8
 210 310 210 310 212 304 c 0,9,10
 222 269 222 269 245.5 245.5 c 128,-1,11
 269 222 269 222 304 212 c 0,12,13
 310 210 310 210 349 210 c 2,14,-1
 856 209 l 1,15,-1
 867 213 l 2,16,17
 905 225 905 225 929 253 c 128,-1,18
 953 281 953 281 957 320 c 0,19,20
 959 331 959 331 959 524.5 c 128,-1,21
 959 718 959 718 957 729 c 0,22,23
 953 764 953 764 933 791 c 0,24,25
 924 802 924 802 859 866.5 c 128,-1,26
 794 931 794 931 785 937 c 0,27,28
 758 954 758 954 726 957 c 0,29,30
 713 959 713 959 523 959 c 128,-1,31
 333 959 333 959 321 957 c 0,0,1
375 825 m 1,32,-1
 376 776 l 1,33,-1
 379 766 l 2,34,35
 385 747 385 747 399.5 732.5 c 128,-1,36
 414 718 414 718 432 712 c 2,37,-1
 441 709 l 1,38,-1
 661 709 l 2,39,40
 677 709 677 709 683 711.5 c 128,-1,41
 689 714 689 714 695 720 c 128,-1,42
 701 726 701 726 704.5 733.5 c 128,-1,43
 708 741 708 741 708 750 c 128,-1,44
 708 759 708 759 705 767 c 0,45,46
 698 781 698 781 684 788 c 2,47,-1
 678 791 l 1,48,-1
 459 791 l 1,49,-1
 459 875 l 1,50,-1
 726 874 l 1,51,-1
 733 871 l 2,52,53
 738 869 738 869 750 857.5 c 128,-1,54
 762 846 762 846 804 804 c 128,-1,55
 846 762 846 762 857.5 750 c 128,-1,56
 869 738 869 738 871 733 c 2,57,-1
 874 726 l 1,58,-1
 874 323 l 1,59,-1
 871 316 l 2,60,61
 868 310 868 310 863 304.5 c 128,-1,62
 858 299 858 299 853 296 c 0,63,64
 843 291 843 291 812 291 c 2,65,-1
 791 291 l 1,66,-1
 791 489 l 2,67,68
 791 512 791 512 789 521 c 0,69,70
 788 527 788 527 784 536 c 2,71,-1
 783 537 l 2,72,73
 778 547 778 547 767 558 c 128,-1,74
 756 569 756 569 746 574 c 2,75,-1
 743 576 l 2,76,77
 735 580 735 580 729 581 c 0,78,79
 720 582 720 582 696 583 c 2,80,-1
 593 583 l 2,81,82
 463 584 463 584 451 582.5 c 128,-1,83
 439 581 439 581 430 578 c 0,84,85
 416 573 416 573 403 562 c 128,-1,86
 390 551 390 551 384 537 c 1,87,-1
 383 536 l 2,88,89
 379 527 379 527 377 520 c 0,90,91
 376 511 376 511 375 487 c 2,92,-1
 375 291 l 1,93,-1
 354 291 l 2,94,95
 337 291 337 291 328.5 292 c 128,-1,96
 320 293 320 293 314 296 c 0,97,98
 302 303 302 303 295 317 c 2,99,-1
 292 324 l 1,100,-1
 292 578 l 2,101,102
 291 831 291 831 293 839 c 0,103,104
 294 852 294 852 302.5 861.5 c 128,-1,105
 311 871 311 871 323 874 c 0,106,107
 328 875 328 875 352 875 c 2,108,-1
 375 875 l 1,109,-1
 375 825 l 1,32,-1
70 789 m 0,110,111
 53 783 53 783 45 765 c 2,112,-1
 42 759 l 1,113,-1
 42 149 l 1,114,-1
 45 137 l 2,115,116
 50 119 50 119 58 105.5 c 128,-1,117
 66 92 66 92 79 79 c 128,-1,118
 92 66 92 66 105.5 58 c 128,-1,119
 119 50 119 50 137 45 c 2,120,-1
 149 42 l 1,121,-1
 759 42 l 1,122,-1
 767 45 l 2,123,124
 782 53 782 53 788 68 c 128,-1,125
 794 83 794 83 788.5 98 c 128,-1,126
 783 113 783 113 768 121 c 2,127,-1
 761 124 l 1,128,-1
 459 125 l 2,129,130
 157 126 157 126 153 127 c 0,131,132
 137 133 137 133 128 151 c 2,133,-1
 126 157 l 1,134,-1
 124 761 l 1,135,-1
 121 768 l 2,136,137
 118 774 118 774 111.5 780 c 128,-1,138
 105 786 105 786 98.5 788.5 c 128,-1,139
 92 791 92 791 83.5 791 c 128,-1,140
 75 791 75 791 70 789 c 0,110,111
709 396 m 1,141,-1
 709 291 l 1,142,-1
 459 291 l 1,143,-1
 459 500 l 1,144,-1
 709 500 l 1,145,-1
 709 396 l 1,141,-1
EndSplineSet
Validated: 553
EndChar

StartChar: save
Encoding: 57679 57679 46
Width: 1000
GlyphClass: 1
Flags: W
LayerCount: 2
Fore
SplineSet
186 914 m 0,0,1
 150 908 150 908 123.5 883 c 128,-1,2
 97 858 97 858 87 821 c 0,3,4
 85 815 85 815 85 770 c 2,5,-1
 84 500 l 1,6,-1
 85 230 l 2,7,8
 85 185 85 185 87 179 c 0,9,10
 97 144 97 144 120.5 120.5 c 128,-1,11
 144 97 144 97 179 87 c 0,12,13
 185 85 185 85 230 85 c 2,14,-1
 500 84 l 1,15,-1
 770 85 l 2,16,17
 815 85 815 85 821 87 c 0,18,19
 856 97 856 97 879.5 120.5 c 128,-1,20
 903 144 903 144 913 179 c 0,21,22
 915 185 915 185 915 219 c 2,23,-1
 916 654 l 1,24,-1
 912 666 l 2,25,26
 905 689 905 689 891 707 c 0,27,28
 884 717 884 717 797 803 c 2,29,-1
 731 869 l 2,30,31
 711 889 711 889 701 896 c 0,32,33
 694 901 694 901 682 906 c 0,34,35
 673 910 673 910 663 913 c 2,36,-1
 653 916 l 1,37,-1
 424 916 l 2,38,39
 194 916 194 916 186 914 c 0,0,1
250 767 m 2,40,41
 250 700 250 700 251 693 c 0,42,43
 256 668 256 668 275 649.5 c 128,-1,44
 294 631 294 631 319 626 c 0,45,46
 327 625 327 625 481 625 c 2,47,-1
 636 626 l 1,48,-1
 643 629 l 2,49,50
 662 638 662 638 666 659 c 128,-1,51
 670 680 670 680 655 695 c 0,52,53
 645 705 645 705 631 707 c 0,54,55
 623 709 623 709 478 709 c 2,56,-1
 334 709 l 1,57,-1
 334 834 l 1,58,-1
 482 834 l 2,59,60
 630 834 630 834 638 833 c 1,61,-1
 639 832 l 1,62,63
 646 831 646 831 652 828 c 0,64,65
 659 823 659 823 677 805 c 2,66,-1
 806 677 l 2,67,68
 823 659 823 659 828 651 c 0,69,70
 831 646 831 646 832 638 c 1,71,-1
 833 637 l 1,72,73
 834 629 834 629 833 414 c 2,74,-1
 833 199 l 1,75,-1
 830 192 l 2,76,77
 823 178 823 178 811 171 c 0,78,79
 805 168 805 168 796.5 167 c 128,-1,80
 788 166 788 166 771 166 c 2,81,-1
 750 166 l 1,82,-1
 750 295 l 2,83,84
 750 424 750 424 749 432 c 0,85,86
 745 454 745 454 728.5 472 c 128,-1,87
 712 490 712 490 689 497 c 0,88,89
 684 499 684 499 657 499 c 2,90,-1
 355 499 l 2,91,92
 323 499 323 499 313 497 c 0,93,94
 305 496 305 496 298 492 c 2,95,-1
 294 490 l 2,96,97
 285 486 285 486 274 475 c 128,-1,98
 263 464 263 464 259 455 c 2,99,-1
 257 451 l 2,100,101
 254 444 254 444 253 438 c 0,102,103
 251 429 251 429 251 405 c 2,104,-1
 250 166 l 1,105,-1
 229 166 l 2,106,107
 212 166 212 166 203.5 167 c 128,-1,108
 195 168 195 168 189 171 c 0,109,110
 177 178 177 178 170 192 c 2,111,-1
 167 199 l 1,112,-1
 167 801 l 1,113,-1
 170 808 l 2,114,115
 175 818 175 818 183.5 824.5 c 128,-1,116
 192 831 192 831 202 833 c 0,117,118
 208 833 208 833 229 834 c 2,119,-1
 250 834 l 1,120,-1
 250 767 l 2,40,41
666 291 m 1,121,-1
 666 166 l 1,122,-1
 334 166 l 1,123,-1
 334 416 l 1,124,-1
 666 416 l 1,125,-1
 666 291 l 1,121,-1
EndSplineSet
Validated: 41
EndChar

StartChar: scale-3d
Encoding: 58090 58090 47
Width: 1000
GlyphClass: 1
Flags: W
LayerCount: 2
Fore
SplineSet
186 914 m 0,0,1
 155 909 155 909 130 888.5 c 128,-1,2
 105 868 105 868 93 840 c 0,3,4
 87 825 87 825 85.5 817 c 128,-1,5
 84 809 84 809 85 791 c 0,6,7
 85 776 85 776 85.5 771 c 128,-1,8
 86 766 86 766 88 758 c 0,9,10
 96 732 96 732 113 711.5 c 128,-1,11
 130 691 130 691 153 680 c 2,12,-1
 166 674 l 1,13,-1
 167 198 l 1,14,-1
 170 192 l 2,15,16
 173 186 173 186 179.5 179 c 128,-1,17
 186 172 186 172 192 170 c 2,18,-1
 198 167 l 1,19,-1
 674 166 l 1,20,-1
 680 153 l 2,21,22
 691 130 691 130 711.5 113 c 128,-1,23
 732 96 732 96 758 88 c 0,24,25
 766 86 766 86 771 85.5 c 128,-1,26
 776 85 776 85 791 85 c 0,27,28
 809 84 809 84 817 85.5 c 128,-1,29
 825 87 825 87 840 93 c 0,30,31
 862 102 862 102 880 120 c 128,-1,32
 898 138 898 138 907 160 c 0,33,34
 913 175 913 175 914.5 183 c 128,-1,35
 916 191 916 191 916 209 c 0,36,37
 915 224 915 224 914.5 229 c 128,-1,38
 914 234 914 234 912 242 c 0,39,40
 904 268 904 268 887 288 c 128,-1,41
 870 308 870 308 847 320 c 0,42,43
 826 330 826 330 804 332 c 0,44,45
 774 335 774 335 747 325 c 128,-1,46
 720 315 720 315 701 294 c 0,47,48
 685 277 685 277 678 259 c 2,49,-1
 674 251 l 1,50,-1
 309 250 l 1,51,-1
 401 342 l 2,52,53
 463 403 463 403 478 419.5 c 128,-1,54
 493 436 493 436 496 441 c 0,55,56
 503 457 503 457 497 473 c 128,-1,57
 491 489 491 489 474 497 c 0,58,59
 468 499 468 499 458 499 c 2,60,-1
 456 499 l 2,61,62
 447 499 447 499 442 496 c 0,63,64
 434 492 434 492 416 474 c 0,65,66
 402 462 402 462 355 414 c 2,67,-1
 250 309 l 1,68,-1
 251 674 l 1,69,-1
 259 678 l 2,70,71
 278 686 278 686 295 702 c 128,-1,72
 312 718 312 718 321 737 c 0,73,74
 333 763 333 763 333 791 c 128,-1,75
 333 819 333 819 320.5 845.5 c 128,-1,76
 308 872 308 872 285 890 c 128,-1,77
 262 908 262 908 233 914 c 0,78,79
 223 916 223 916 209.5 916 c 128,-1,80
 196 916 196 916 186 914 c 0,0,1
218 832 m 2,81,82
 226 831 226 831 234 824 c 128,-1,83
 242 817 242 817 245.5 809.5 c 128,-1,84
 249 802 249 802 249.5 792.5 c 128,-1,85
 250 783 250 783 247 776 c 0,86,87
 239 760 239 760 224 753.5 c 128,-1,88
 209 747 209 747 194 753 c 0,89,90
 183 757 183 757 175 767 c 128,-1,91
 167 777 167 777 167 792 c 0,92,93
 167 804 167 804 173 813.5 c 128,-1,94
 179 823 179 823 189 828 c 0,95,96
 194 831 194 831 200.5 832.5 c 128,-1,97
 207 834 207 834 211 833 c 2,98,-1
 218 832 l 2,81,82
809 246 m 0,99,100
 833 235 833 235 833 208 c 0,101,102
 833 189 833 189 818 176.5 c 128,-1,103
 803 164 803 164 785 168 c 0,104,105
 772 170 772 170 763 179 c 0,106,107
 751 190 751 190 750.5 206.5 c 128,-1,108
 750 223 750 223 761 236 c 0,109,110
 769 246 769 246 783 248.5 c 128,-1,111
 797 251 797 251 809 246 c 0,99,100
EndSplineSet
Validated: 553
EndChar

StartChar: scan-line
Encoding: 57943 57943 48
Width: 1000
GlyphClass: 1
Flags: W
LayerCount: 2
Fore
SplineSet
186 914 m 0,0,1
 155 909 155 909 130.5 889 c 128,-1,2
 106 869 106 869 94 841 c 1,3,-1
 93 840 l 1,4,5
 87 825 87 825 85.5 815 c 128,-1,6
 84 805 84 805 84 761 c 2,7,-1
 84 757 l 2,8,9
 84 716 84 716 84 707.5 c 128,-1,10
 84 699 84 699 86.5 692.5 c 128,-1,11
 89 686 89 686 95 680 c 0,12,13
 108 667 108 667 125 667 c 128,-1,14
 142 667 142 667 154 679 c 2,15,-1
 155 680 l 2,16,17
 161 686 161 686 163 690 c 128,-1,18
 165 694 165 694 165 707 c 0,19,20
 166 715 166 715 166 746 c 2,21,-1
 167 801 l 1,22,-1
 170 808 l 2,23,24
 177 823 177 823 192 830 c 2,25,-1
 199 833 l 1,26,-1
 254 834 l 2,27,28
 285 834 285 834 293 835 c 0,29,30
 306 835 306 835 310 837 c 128,-1,31
 314 839 314 839 320 845 c 2,32,-1
 321 846 l 2,33,34
 333 858 333 858 333 875 c 128,-1,35
 333 892 333 892 321 904 c 0,36,37
 316 909 316 909 309 913 c 2,38,-1
 303 916 l 1,39,-1
 249 916 l 2,40,41
 194 916 194 916 186 914 c 0,0,1
695 914 m 0,42,43
 682 910 682 910 674.5 899 c 128,-1,44
 667 888 667 888 667 875 c 0,45,46
 667 858 667 858 679 846 c 2,47,-1
 680 845 l 2,48,49
 686 839 686 839 690 837 c 128,-1,50
 694 835 694 835 707 835 c 0,51,52
 715 834 715 834 746 834 c 2,53,-1
 801 833 l 1,54,-1
 808 830 l 2,55,56
 823 823 823 823 830 808 c 2,57,-1
 833 801 l 1,58,-1
 834 746 l 2,59,60
 834 715 834 715 835 707 c 0,61,62
 835 694 835 694 837 690 c 128,-1,63
 839 686 839 686 845 680 c 2,64,-1
 846 679 l 2,65,66
 855 670 855 670 867.5 667.5 c 128,-1,67
 880 665 880 665 892 670 c 0,68,69
 899 674 899 674 905 680 c 128,-1,70
 911 686 911 686 913.5 692.5 c 128,-1,71
 916 699 916 699 916 707.5 c 128,-1,72
 916 716 916 716 916 757 c 128,-1,73
 916 798 916 798 915.5 807.5 c 128,-1,74
 915 817 915 817 913 823 c 0,75,76
 895 881 895 881 843 905 c 0,77,78
 833 910 833 910 823 913 c 0,79,80
 816 915 816 915 806.5 915.5 c 128,-1,81
 797 916 797 916 756 916 c 0,82,83
 699 916 699 916 695 914 c 0,42,43
277 539 m 0,84,85
 270 536 270 536 263.5 530 c 128,-1,86
 257 524 257 524 254.5 518.5 c 128,-1,87
 252 513 252 513 251.5 510 c 128,-1,88
 251 507 251 507 251 500 c 0,89,90
 251 489 251 489 254 482 c 0,91,92
 262 467 262 467 277 461 c 2,93,-1
 284 459 l 1,94,-1
 716 459 l 1,95,-1
 723 461 l 2,96,97
 738 467 738 467 746 482 c 0,98,99
 749 489 749 489 749 500 c 0,100,101
 749 507 749 507 748.5 510 c 128,-1,102
 748 513 748 513 746 518 c 0,103,104
 743 524 743 524 736.5 530 c 128,-1,105
 730 536 730 536 724 538.5 c 128,-1,106
 718 541 718 541 690 541 c 2,107,-1
 500 541 l 1,108,-1
 311 541 l 2,109,110
 281 540 281 540 277 539 c 0,84,85
118 332 m 0,111,112
 107 331 107 331 98.5 323.5 c 128,-1,113
 90 316 90 316 86 307 c 0,114,115
 84 301 84 301 84 292.5 c 128,-1,116
 84 284 84 284 84 243 c 128,-1,117
 84 202 84 202 84.5 192.5 c 128,-1,118
 85 183 85 183 87 177 c 0,119,120
 108 108 108 108 177 87 c 0,121,122
 183 85 183 85 192.5 84.5 c 128,-1,123
 202 84 202 84 243 84 c 128,-1,124
 284 84 284 84 292.5 84 c 128,-1,125
 301 84 301 84 307.5 86.5 c 128,-1,126
 314 89 314 89 320 95 c 128,-1,127
 326 101 326 101 329.5 108.5 c 128,-1,128
 333 116 333 116 333 125 c 128,-1,129
 333 134 333 134 330 142 c 0,130,131
 323 156 323 156 309 163 c 0,132,133
 305 165 305 165 297.5 165.5 c 128,-1,134
 290 166 290 166 250 166.5 c 128,-1,135
 210 167 210 167 201.5 168 c 128,-1,136
 193 169 193 169 186 173 c 0,137,138
 176 180 176 180 170 192 c 2,139,-1
 167 199 l 1,140,-1
 165 295 l 2,141,142
 165 305 165 305 163 308 c 0,143,144
 157 321 157 321 144.5 328 c 128,-1,145
 132 335 132 335 118 332 c 0,111,112
868 332 m 0,146,147
 855 330 855 330 845 320 c 1,148,-1
 845 320 l 1,149,150
 839 314 839 314 837 309.5 c 128,-1,151
 835 305 835 305 835 293 c 0,152,153
 834 284 834 284 834 253 c 2,154,-1
 833 199 l 1,155,-1
 830 192 l 2,156,157
 824 180 824 180 814 173 c 0,158,159
 807 169 807 169 798.5 168 c 128,-1,160
 790 167 790 167 750 166.5 c 128,-1,161
 710 166 710 166 702.5 165.5 c 128,-1,162
 695 165 695 165 691 163 c 0,163,164
 675 155 675 155 669.5 139 c 128,-1,165
 664 123 664 123 670 108 c 0,166,167
 674 101 674 101 680 95 c 128,-1,168
 686 89 686 89 692.5 86.5 c 128,-1,169
 699 84 699 84 707.5 84 c 128,-1,170
 716 84 716 84 757 84 c 128,-1,171
 798 84 798 84 807.5 84.5 c 128,-1,172
 817 85 817 85 823 87 c 0,173,174
 892 108 892 108 913 177 c 0,175,176
 915 183 915 183 915.5 192.5 c 128,-1,177
 916 202 916 202 916 242 c 2,178,-1
 916 287 l 2,179,180
 916 301 916 301 914.5 306 c 128,-1,181
 913 311 913 311 908 317 c 0,182,183
 901 326 901 326 890.5 330 c 128,-1,184
 880 334 880 334 868 332 c 0,146,147
EndSplineSet
Validated: 521
EndChar

StartChar: settings
Encoding: 57686 57686 49
Width: 1000
GlyphClass: 1
LayerCount: 2
Fore
SplineSet
478 957 m 0,0,1
 447 954 447 954 420 936 c 128,-1,2
 393 918 393 918 379 890 c 0,3,4
 373 876 373 876 370 864.5 c 128,-1,5
 367 853 367 853 366 836 c 0,6,7
 365 816 365 816 362 809 c 128,-1,8
 359 802 359 802 353 796.5 c 128,-1,9
 347 791 347 791 336 784 c 0,10,11
 318 774 318 774 307.5 773.5 c 128,-1,12
 297 773 297 773 280 782 c 0,13,14
 261 792 261 792 246 795.5 c 128,-1,15
 231 799 231 799 211 798 c 0,16,17
 197 798 197 798 186.5 795.5 c 128,-1,18
 176 793 176 793 164 788 c 0,19,20
 142 777 142 777 126 760 c 128,-1,21
 110 743 110 743 96 714 c 0,22,23
 89 699 89 699 86 689 c 0,24,25
 79 657 79 657 87.5 625.5 c 128,-1,26
 96 594 96 594 119 571 c 0,27,28
 128 562 128 562 143 552 c 0,29,30
 161 540 161 540 166 532 c 128,-1,31
 171 524 171 524 172 507 c 0,32,33
 173 484 173 484 167.5 472 c 128,-1,34
 162 460 162 460 145 449 c 0,35,36
 122 435 122 435 107.5 416 c 128,-1,37
 93 397 93 397 86 370 c 0,38,39
 83 359 83 359 83 341.5 c 128,-1,40
 83 324 83 324 86 312 c 0,41,42
 90 296 90 296 102 274.5 c 128,-1,43
 114 253 114 253 126 240 c 0,44,45
 146 218 146 218 175 207.5 c 128,-1,46
 204 197 204 197 233 202 c 0,47,48
 255 205 255 205 280 218 c 0,49,50
 292 223 292 223 295 224.5 c 128,-1,51
 298 226 298 226 306 226 c 128,-1,52
 314 226 314 226 317 225 c 128,-1,53
 320 224 320 224 329 219 c 0,54,55
 346 210 346 210 352 205 c 128,-1,56
 358 200 358 200 362 191 c 0,57,58
 365 184 365 184 366 164 c 128,-1,59
 367 144 367 144 371 133 c 0,60,61
 381 96 381 96 410 71.5 c 128,-1,62
 439 47 439 47 477 43 c 0,63,64
 500 40 500 40 523 43 c 0,65,66
 561 47 561 47 590 71.5 c 128,-1,67
 619 96 619 96 629 133 c 0,68,69
 633 144 633 144 634 164 c 0,70,71
 635 188 635 188 641 197 c 128,-1,72
 647 206 647 206 671 219 c 0,73,74
 680 224 680 224 683 225 c 128,-1,75
 686 226 686 226 694 226 c 128,-1,76
 702 226 702 226 705 224.5 c 128,-1,77
 708 223 708 223 720 218 c 0,78,79
 745 205 745 205 765.5 202 c 128,-1,80
 786 199 786 199 810 204 c 0,81,82
 860 214 860 214 888 258 c 0,83,84
 912 295 912 295 916 326 c 0,85,86
 919 347 919 347 914 369.5 c 128,-1,87
 909 392 909 392 896 411 c 0,88,89
 889 422 889 422 875.5 434 c 128,-1,90
 862 446 862 446 851 452 c 0,91,92
 846 455 846 455 840.5 460.5 c 128,-1,93
 835 466 835 466 833 471 c 0,94,95
 827 482 827 482 828 506 c 0,96,97
 829 524 829 524 833.5 532 c 128,-1,98
 838 540 838 540 856 551 c 0,99,100
 882 568 882 568 895 587 c 0,101,102
 910 610 910 610 915 636.5 c 128,-1,103
 920 663 920 663 914 689 c 0,104,105
 911 699 911 699 904 714 c 0,106,107
 890 743 890 743 874 760 c 128,-1,108
 858 777 858 777 836 788 c 0,109,110
 824 793 824 793 813.5 795.5 c 128,-1,111
 803 798 803 798 789 798 c 0,112,113
 768 799 768 799 754 795.5 c 128,-1,114
 740 792 740 792 719 782 c 0,115,116
 708 776 708 776 705 775 c 128,-1,117
 702 774 702 774 694 774 c 0,118,119
 684 774 684 774 680 776 c 0,120,121
 673 779 673 779 661 786.5 c 128,-1,122
 649 794 649 794 646 798 c 0,123,124
 639 805 639 805 637 812 c 128,-1,125
 635 819 635 819 634 836 c 128,-1,126
 633 853 633 853 630 865 c 128,-1,127
 627 877 627 877 621 890 c 0,128,129
 609 912 609 912 587.5 929.5 c 128,-1,130
 566 947 566 947 542 954 c 0,131,132
 515 961 515 961 478 957 c 0,0,1
526 871 m 0,133,134
 532 868 532 868 538 862.5 c 128,-1,135
 544 857 544 857 546 852 c 0,136,137
 551 842 551 842 551 821 c 128,-1,138
 551 800 551 800 561 777.5 c 128,-1,139
 571 755 571 755 587 738 c 0,140,141
 596 729 596 729 611.5 719 c 128,-1,142
 627 709 627 709 642 702.5 c 128,-1,143
 657 696 657 696 668 693.5 c 128,-1,144
 679 691 679 691 695.5 691 c 128,-1,145
 712 691 712 691 724.5 694.5 c 128,-1,146
 737 698 737 698 757 708 c 0,147,148
 769 714 769 714 772.5 715 c 128,-1,149
 776 716 776 716 783 716 c 128,-1,150
 790 716 790 716 793 715 c 128,-1,151
 796 714 796 714 802.5 711 c 128,-1,152
 809 708 809 708 813.5 703 c 128,-1,153
 818 698 818 698 825 686 c 0,154,155
 831 675 831 675 832.5 669.5 c 128,-1,156
 834 664 834 664 833 656 c 0,157,158
 833 644 833 644 827 636 c 128,-1,159
 821 628 821 628 804 617 c 0,160,161
 759 587 759 587 747 536 c 0,162,163
 745 525 745 525 745 500 c 128,-1,164
 745 475 745 475 747 464 c 0,165,166
 753 440 753 440 765 422 c 0,167,168
 779 399 779 399 806 382 c 0,169,170
 822 371 822 371 824 369 c 0,171,172
 832 360 832 360 833 345 c 0,173,174
 834 337 834 337 832 330.5 c 128,-1,175
 830 324 830 324 824 313 c 128,-1,176
 818 302 818 302 813.5 297 c 128,-1,177
 809 292 809 292 802.5 289 c 128,-1,178
 796 286 796 286 793 285 c 128,-1,179
 790 284 790 284 783 284 c 128,-1,180
 776 284 776 284 772 285.5 c 128,-1,181
 768 287 768 287 754 293 c 0,182,183
 734 303 734 303 724 305.5 c 128,-1,184
 714 308 714 308 694 308 c 128,-1,185
 674 308 674 308 664 305.5 c 128,-1,186
 654 303 654 303 637 295 c 0,187,188
 591 273 591 273 573 245 c 0,189,190
 562 228 562 228 557 211.5 c 128,-1,191
 552 195 552 195 551 173 c 0,192,193
 550 161 550 161 548.5 154.5 c 128,-1,194
 547 148 547 148 542 142 c 0,195,196
 535 133 535 133 524 128 c 0,197,198
 519 126 519 126 515 125.5 c 128,-1,199
 511 125 511 125 500 125 c 128,-1,200
 489 125 489 125 485 125.5 c 128,-1,201
 481 126 481 126 476 128 c 0,202,203
 465 132 465 132 458 142 c 0,204,205
 453 148 453 148 451.5 154.5 c 128,-1,206
 450 161 450 161 449 177 c 0,207,208
 448 195 448 195 445 206 c 128,-1,209
 442 217 442 217 435 230 c 0,210,211
 425 251 425 251 408 266 c 128,-1,212
 391 281 391 281 363 295 c 0,213,214
 346 303 346 303 336 305.5 c 128,-1,215
 326 308 326 308 306 308 c 128,-1,216
 286 308 286 308 276 305.5 c 128,-1,217
 266 303 266 303 246 294 c 0,218,219
 230 286 230 286 222.5 284.5 c 128,-1,220
 215 283 215 283 205 285.5 c 128,-1,221
 195 288 195 288 188.5 295 c 128,-1,222
 182 302 182 302 172 320 c 0,223,224
 168 327 168 327 167.5 329.5 c 128,-1,225
 167 332 167 332 167 341 c 0,226,227
 167 355 167 355 172.5 363 c 128,-1,228
 178 371 178 371 195 383 c 0,229,230
 242 414 242 414 253 464 c 0,231,232
 255 474 255 474 255 498.5 c 128,-1,233
 255 523 255 523 253 534 c 0,234,235
 242 585 242 585 196 616 c 0,236,237
 183 625 183 625 178.5 629.5 c 128,-1,238
 174 634 174 634 171 640.5 c 128,-1,239
 168 647 168 647 167 655.5 c 128,-1,240
 166 664 166 664 167.5 669 c 128,-1,241
 169 674 169 674 175 685.5 c 128,-1,242
 181 697 181 697 185.5 702 c 128,-1,243
 190 707 190 707 198 712 c 0,244,245
 204 714 204 714 207 715 c 128,-1,246
 210 716 210 716 217 716 c 128,-1,247
 224 716 224 716 227.5 715 c 128,-1,248
 231 714 231 714 243 708 c 0,249,250
 263 698 263 698 275.5 694.5 c 128,-1,251
 288 691 288 691 305.5 691 c 128,-1,252
 323 691 323 691 335.5 694 c 128,-1,253
 348 697 348 697 366 706 c 0,254,255
 397 722 397 722 413 738 c 128,-1,256
 429 754 429 754 439 777 c 128,-1,257
 449 800 449 800 449 822 c 0,258,259
 449 837 449 837 452 846.5 c 128,-1,260
 455 856 455 856 462.5 863 c 128,-1,261
 470 870 470 870 477.5 872.5 c 128,-1,262
 485 875 485 875 502 875 c 0,263,264
 514 874 514 874 518 873.5 c 128,-1,265
 522 873 522 873 526 871 c 0,133,134
474 664 m 0,266,267
 410 653 410 653 371 605 c 0,268,269
 358 589 358 589 350.5 573 c 128,-1,270
 343 557 343 557 337 536 c 0,271,272
 335 528 335 528 334.5 522 c 128,-1,273
 334 516 334 516 334 500 c 0,274,275
 334 480 334 480 336 469 c 128,-1,276
 338 458 338 458 344 442 c 0,277,278
 356 408 356 408 382 382 c 128,-1,279
 408 356 408 356 442 344 c 0,280,281
 458 338 458 338 469 336 c 128,-1,282
 480 334 480 334 500 334 c 128,-1,283
 520 334 520 334 531 336 c 128,-1,284
 542 338 542 338 558 344 c 0,285,286
 592 356 592 356 618 382 c 128,-1,287
 644 408 644 408 656 442 c 0,288,289
 662 458 662 458 664 469 c 128,-1,290
 666 480 666 480 666 500 c 128,-1,291
 666 520 666 520 664 531 c 128,-1,292
 662 542 662 542 656 558 c 0,293,294
 641 598 641 598 608.5 626 c 128,-1,295
 576 654 576 654 534 663 c 0,296,297
 524 665 524 665 503.5 665.5 c 128,-1,298
 483 666 483 666 474 664 c 0,266,267
521 581 m 0,299,300
 541 576 541 576 558.5 558.5 c 128,-1,301
 576 541 576 541 581 521 c 0,302,303
 583 512 583 512 583 500 c 128,-1,304
 583 488 583 488 581 480 c 0,305,306
 576 459 576 459 559.5 442 c 128,-1,307
 543 425 543 425 521 419 c 0,308,309
 513 417 513 417 500 417 c 128,-1,310
 487 417 487 417 479 419 c 0,311,312
 457 425 457 425 440.5 442 c 128,-1,313
 424 459 424 459 419 480 c 0,314,315
 417 488 417 488 417 500 c 128,-1,316
 417 512 417 512 419 521 c 0,317,318
 423 537 423 537 435 552 c 128,-1,319
 447 567 447 567 464 575 c 0,320,321
 489 588 489 588 521 581 c 0,299,300
EndSplineSet
Validated: 41
EndChar

StartChar: sliders-vertical
Encoding: 57700 57700 50
Width: 1000
GlyphClass: 1
Flags: W
LayerCount: 2
Fore
SplineSet
152 914 m 0,0,1
 145 911 145 911 138.5 905 c 128,-1,2
 132 899 132 899 129 893 c 2,3,-1
 126 886 l 1,4,-1
 126 573 l 1,5,-1
 129 566 l 2,6,7
 132 560 132 560 137 554.5 c 128,-1,8
 142 549 142 549 147 546.5 c 128,-1,9
 152 544 152 544 160 543 c 0,10,11
 176 540 176 540 190 549.5 c 128,-1,12
 204 559 204 559 208 576 c 0,13,14
 209 584 209 584 208 734 c 2,15,-1
 208 884 l 1,16,-1
 205 892 l 2,17,18
 198 906 198 906 184 913 c 0,19,20
 178 916 178 916 168.5 916 c 128,-1,21
 159 916 159 916 152 914 c 0,0,1
489 915 m 0,22,23
 471 909 471 909 462 893 c 2,24,-1
 459 887 l 1,25,-1
 459 709 l 1,26,-1
 438 709 l 2,27,28
 406 709 406 709 397 703 c 0,29,30
 384 695 384 695 378.5 681.5 c 128,-1,31
 373 668 373 668 377 654.5 c 128,-1,32
 381 641 381 641 393 633 c 2,33,-1
 394 632 l 2,34,35
 399 628 399 628 405 627 c 128,-1,36
 411 626 411 626 430 625 c 2,37,-1
 570 625 l 2,38,39
 589 626 589 626 595 627 c 128,-1,40
 601 628 601 628 606 632 c 2,41,-1
 607 633 l 1,42,43
 623 643 623 643 624.5 662.5 c 128,-1,44
 626 682 626 682 613 695 c 0,45,46
 605 704 605 704 595 706.5 c 128,-1,47
 585 709 585 709 562 709 c 2,48,-1
 541 709 l 1,49,-1
 541 887 l 1,50,-1
 538 893 l 2,51,52
 531 906 531 906 518 912 c 0,53,54
 512 915 512 915 502 915.5 c 128,-1,55
 492 916 492 916 489 915 c 0,22,23
820 914 m 0,56,57
 803 908 803 908 795 890 c 2,58,-1
 792 884 l 1,59,-1
 792 491 l 1,60,-1
 795 483 l 2,61,62
 799 476 799 476 805 470 c 0,63,64
 820 456 820 456 841 459.5 c 128,-1,65
 862 463 862 463 871 482 c 2,66,-1
 874 489 l 1,67,-1
 874 886 l 1,68,-1
 871 893 l 2,69,70
 868 899 868 899 861.5 905 c 128,-1,71
 855 911 855 911 848.5 913.5 c 128,-1,72
 842 916 842 916 833.5 916 c 128,-1,73
 825 916 825 916 820 914 c 0,56,57
489 540 m 0,74,75
 471 534 471 534 462 518 c 2,76,-1
 459 512 l 1,77,-1
 459 113 l 1,78,-1
 462 107 l 2,79,80
 465 102 465 102 471 96 c 128,-1,81
 477 90 477 90 482.5 87 c 128,-1,82
 488 84 488 84 500 84 c 128,-1,83
 512 84 512 84 517.5 87 c 128,-1,84
 523 90 523 90 529 96 c 128,-1,85
 535 102 535 102 538 107 c 2,86,-1
 541 113 l 1,87,-1
 541 512 l 1,88,-1
 538 518 l 2,89,90
 531 531 531 531 518 537 c 0,91,92
 512 540 512 540 502 540.5 c 128,-1,93
 492 541 492 541 489 540 c 0,74,75
77 458 m 0,94,95
 60 455 60 455 49.5 440.5 c 128,-1,96
 39 426 39 426 43 409 c 0,97,98
 44 402 44 402 46.5 397 c 128,-1,99
 49 392 49 392 54.5 387 c 128,-1,100
 60 382 60 382 65.5 379.5 c 128,-1,101
 71 377 71 377 75.5 376.5 c 128,-1,102
 80 376 80 376 99 375 c 2,103,-1
 125 375 l 1,104,-1
 126 114 l 1,105,-1
 129 107 l 2,106,107
 138 88 138 88 159 84.5 c 128,-1,108
 180 81 180 81 195 95 c 0,109,110
 201 101 201 101 205 108 c 2,111,-1
 208 116 l 1,112,-1
 209 375 l 1,113,-1
 235 375 l 2,114,115
 254 376 254 376 258 376.5 c 128,-1,116
 262 377 262 377 268 379 c 0,117,118
 287 388 287 388 291 409 c 128,-1,119
 295 430 295 430 280 445 c 0,120,121
 270 455 270 455 256 457 c 0,122,123
 249 459 249 459 166.5 459 c 128,-1,124
 84 459 84 459 77 458 c 0,94,95
739 373 m 0,125,126
 721 369 721 369 713 352 c 128,-1,127
 705 335 705 335 711 318 c 0,128,129
 714 311 714 311 720 305 c 128,-1,130
 726 299 726 299 732.5 296 c 128,-1,131
 739 293 739 293 743.5 292.5 c 128,-1,132
 748 292 748 292 766 291 c 2,133,-1
 791 291 l 1,134,-1
 792 116 l 1,135,-1
 795 108 l 2,136,137
 799 101 799 101 805 95 c 0,138,139
 820 81 820 81 841 84.5 c 128,-1,140
 862 88 862 88 871 107 c 2,141,-1
 874 114 l 1,142,-1
 875 291 l 1,143,-1
 896 291 l 2,144,145
 919 291 919 291 928.5 293.5 c 128,-1,146
 938 296 938 296 946.5 304.5 c 128,-1,147
 955 313 955 313 957.5 327 c 128,-1,148
 960 341 960 341 954 353 c 0,149,150
 951 358 951 358 945.5 363 c 128,-1,151
 940 368 940 368 934 371 c 2,152,-1
 927 374 l 1,153,-1
 836 375 l 2,154,155
 744 375 744 375 739 373 c 0,125,126
EndSplineSet
Validated: 553
EndChar

StartChar: square-arrow-out-down-left
Encoding: 58789 58789 51
Width: 1000
GlyphClass: 1
Flags: W
LayerCount: 2
Fore
SplineSet
186 914 m 0,0,1
 150 908 150 908 124.5 884 c 128,-1,2
 99 860 99 860 87 823 c 0,3,4
 85 817 85 817 85 798 c 2,5,-1
 84 534 l 1,6,-1
 86 527 l 2,7,8
 92 512 92 512 107 504 c 0,9,10
 114 501 114 501 124.5 500.5 c 128,-1,11
 135 500 135 500 141.5 503 c 128,-1,12
 148 506 148 506 154 512 c 128,-1,13
 160 518 160 518 163 524 c 2,14,-1
 166 531 l 1,15,-1
 167 801 l 1,16,-1
 170 808 l 2,17,18
 177 823 177 823 192 830 c 2,19,-1
 199 833 l 1,20,-1
 801 833 l 1,21,-1
 808 830 l 2,22,23
 823 823 823 823 830 808 c 2,24,-1
 833 801 l 1,25,-1
 833 199 l 1,26,-1
 830 192 l 2,27,28
 820 172 820 172 799 168 c 0,29,30
 792 166 792 166 663 166 c 2,31,-1
 550 166 l 2,32,33
 532 166 532 166 526 163.5 c 128,-1,34
 520 161 520 161 513.5 155 c 128,-1,35
 507 149 507 149 504 143 c 0,36,37
 502 138 502 138 501.5 135 c 128,-1,38
 501 132 501 132 501 125 c 0,39,40
 501 114 501 114 504 107 c 0,41,42
 512 92 512 92 527 86 c 2,43,-1
 534 84 l 1,44,-1
 798 85 l 2,45,46
 817 85 817 85 823 87 c 0,47,48
 857 98 857 98 880 121 c 128,-1,49
 903 144 903 144 913 179 c 0,50,51
 915 185 915 185 915 230 c 2,52,-1
 916 500 l 1,53,-1
 915 770 l 2,54,55
 915 815 915 815 913 821 c 0,56,57
 904 856 904 856 880.5 879.5 c 128,-1,58
 857 903 857 903 823 913 c 2,59,-1
 813 916 l 1,60,-1
 504 916 l 2,61,62
 194 916 194 916 186 914 c 0,0,1
489 540 m 0,63,64
 483 538 483 538 474 531 c 0,65,66
 463 521 463 521 429 488 c 2,67,-1
 166 226 l 1,68,-1
 166 387 l 1,69,-1
 163 393 l 2,70,71
 156 405 156 405 143 412 c 0,72,73
 139 414 139 414 136 415 c 128,-1,74
 133 416 133 416 125 416 c 128,-1,75
 117 416 117 416 114 415 c 128,-1,76
 111 414 111 414 107 412 c 0,77,78
 94 405 94 405 87 393 c 2,79,-1
 84 387 l 1,80,-1
 84 112 l 1,81,-1
 87 106 l 2,82,83
 90 101 90 101 95.5 95.5 c 128,-1,84
 101 90 101 90 106 87 c 2,85,-1
 112 84 l 1,86,-1
 387 84 l 1,87,-1
 393 87 l 2,88,89
 398 90 398 90 404 96 c 128,-1,90
 410 102 410 102 413 107.5 c 128,-1,91
 416 113 416 113 416 125 c 128,-1,92
 416 137 416 137 413 143 c 0,93,94
 406 155 406 155 393 162 c 2,95,-1
 387 166 l 1,96,-1
 226 166 l 1,97,-1
 380 321 l 2,98,99
 534 476 534 476 537.5 482 c 128,-1,100
 541 488 541 488 541 499 c 128,-1,101
 541 510 541 510 538.5 516 c 128,-1,102
 536 522 536 522 530 529 c 0,103,104
 518 540 518 540 502 541 c 0,105,106
 492 541 492 541 489 540 c 0,63,64
EndSplineSet
Validated: 521
EndChar

StartChar: square-arrow-out-down-right
Encoding: 58790 58790 52
Width: 1000
GlyphClass: 1
Flags: W
LayerCount: 2
Fore
SplineSet
186 914 m 0,0,1
 150 908 150 908 123.5 883 c 128,-1,2
 97 858 97 858 87 821 c 0,3,4
 85 815 85 815 85 770 c 2,5,-1
 84 500 l 1,6,-1
 85 230 l 2,7,8
 85 185 85 185 87 179 c 0,9,10
 106 109 106 109 177 87 c 0,11,12
 183 85 183 85 202 85 c 2,13,-1
 466 84 l 1,14,-1
 473 86 l 2,15,16
 488 92 488 92 496 107 c 0,17,18
 499 114 499 114 499 125 c 0,19,20
 499 132 499 132 498.5 135 c 128,-1,21
 498 138 498 138 496 143 c 0,22,23
 493 149 493 149 486.5 155 c 128,-1,24
 480 161 480 161 474 163.5 c 128,-1,25
 468 166 468 166 450 166 c 2,26,-1
 337 166 l 2,27,28
 208 166 208 166 201 168 c 0,29,30
 180 172 180 172 170 192 c 2,31,-1
 167 199 l 1,32,-1
 167 801 l 1,33,-1
 170 808 l 2,34,35
 177 823 177 823 192 830 c 2,36,-1
 199 833 l 1,37,-1
 801 833 l 1,38,-1
 808 830 l 2,39,40
 823 823 823 823 830 808 c 2,41,-1
 833 801 l 1,42,-1
 834 531 l 1,43,-1
 837 524 l 2,44,45
 840 518 840 518 846 512 c 128,-1,46
 852 506 852 506 858.5 503 c 128,-1,47
 865 500 865 500 875.5 500.5 c 128,-1,48
 886 501 886 501 893 504 c 0,49,50
 908 512 908 512 914 527 c 2,51,-1
 916 534 l 1,52,-1
 915 798 l 2,53,54
 915 817 915 817 913 823 c 0,55,56
 895 881 895 881 844 905 c 0,57,58
 833 910 833 910 823 913 c 2,59,-1
 813 916 l 1,60,-1
 504 916 l 2,61,62
 194 916 194 916 186 914 c 0,0,1
489 540 m 0,63,64
 471 534 471 534 462 518 c 0,65,66
 459 512 459 512 459 500 c 128,-1,67
 459 488 459 488 462.5 482 c 128,-1,68
 466 476 466 476 620 321 c 2,69,-1
 774 166 l 1,70,-1
 613 166 l 1,71,-1
 607 162 l 2,72,73
 594 155 594 155 587 143 c 0,74,75
 584 137 584 137 584 125 c 128,-1,76
 584 113 584 113 587 107.5 c 128,-1,77
 590 102 590 102 596 96 c 128,-1,78
 602 90 602 90 607 87 c 2,79,-1
 613 84 l 1,80,-1
 888 84 l 1,81,-1
 894 87 l 2,82,83
 899 90 899 90 904.5 95.5 c 128,-1,84
 910 101 910 101 913 106 c 2,85,-1
 916 112 l 1,86,-1
 916 387 l 1,87,-1
 913 393 l 2,88,89
 906 405 906 405 893 412 c 0,90,91
 889 414 889 414 886 415 c 128,-1,92
 883 416 883 416 875 416 c 128,-1,93
 867 416 867 416 864 415 c 128,-1,94
 861 414 861 414 857 412 c 0,95,96
 844 405 844 405 837 393 c 2,97,-1
 834 387 l 1,98,-1
 834 226 l 1,99,-1
 680 380 l 2,100,101
 584 476 584 476 553.5 505.5 c 128,-1,102
 523 535 523 535 519 537 c 0,103,104
 512 540 512 540 502 540.5 c 128,-1,105
 492 541 492 541 489 540 c 0,63,64
EndSplineSet
Validated: 521
EndChar

StartChar: square-arrow-out-up-left
Encoding: 58791 58791 53
Width: 1000
GlyphClass: 1
Flags: W
LayerCount: 2
Fore
SplineSet
111 914 m 0,0,1
 96 909 96 909 87 893 c 0,2,3
 85 889 85 889 85 870 c 2,4,-1
 84 613 l 1,5,-1
 87 607 l 2,6,7
 90 602 90 602 96 596 c 128,-1,8
 102 590 102 590 107.5 587 c 128,-1,9
 113 584 113 584 125 584 c 128,-1,10
 137 584 137 584 142.5 587 c 128,-1,11
 148 590 148 590 154 596 c 128,-1,12
 160 602 160 602 163 607 c 2,13,-1
 166 613 l 1,14,-1
 166 774 l 1,15,-1
 321 620 l 2,16,17
 476 466 476 466 482 462.5 c 128,-1,18
 488 459 488 459 499 459 c 128,-1,19
 510 459 510 459 516 461.5 c 128,-1,20
 522 464 522 464 529 471 c 128,-1,21
 536 478 536 478 538.5 484 c 128,-1,22
 541 490 541 490 541 501 c 128,-1,23
 541 512 541 512 537.5 518 c 128,-1,24
 534 524 534 524 380 679 c 2,25,-1
 226 834 l 1,26,-1
 387 834 l 1,27,-1
 393 837 l 2,28,29
 398 840 398 840 404 846 c 128,-1,30
 410 852 410 852 413 857.5 c 128,-1,31
 416 863 416 863 416 875 c 128,-1,32
 416 887 416 887 413 893 c 0,33,34
 406 905 406 905 393 912 c 2,35,-1
 387 916 l 1,36,-1
 251 916 l 2,37,38
 116 916 116 916 111 914 c 0,0,1
527 914 m 0,39,40
 520 911 520 911 513.5 905 c 128,-1,41
 507 899 507 899 504 892.5 c 128,-1,42
 501 886 501 886 500.5 875.5 c 128,-1,43
 500 865 500 865 503 858.5 c 128,-1,44
 506 852 506 852 512 846 c 128,-1,45
 518 840 518 840 524 837 c 2,46,-1
 531 834 l 1,47,-1
 801 833 l 1,48,-1
 808 830 l 2,49,50
 823 823 823 823 830 808 c 2,51,-1
 833 801 l 1,52,-1
 833 199 l 1,53,-1
 830 192 l 2,54,55
 820 172 820 172 799 168 c 0,56,57
 792 166 792 166 500 166 c 128,-1,58
 208 166 208 166 201 168 c 0,59,60
 180 172 180 172 170 192 c 2,61,-1
 167 199 l 1,62,-1
 166 469 l 1,63,-1
 163 476 l 2,64,65
 160 482 160 482 154 487.5 c 128,-1,66
 148 493 148 493 142 496 c 128,-1,67
 136 499 136 499 125 499 c 128,-1,68
 114 499 114 499 107 496 c 0,69,70
 92 488 92 488 86 473 c 2,71,-1
 84 466 l 1,72,-1
 85 202 l 2,73,74
 85 183 85 183 87 177 c 0,75,76
 98 143 98 143 121 120 c 128,-1,77
 144 97 144 97 179 87 c 0,78,79
 185 85 185 85 230 85 c 2,80,-1
 500 84 l 1,81,-1
 770 85 l 2,82,83
 815 85 815 85 821 87 c 0,84,85
 856 97 856 97 879.5 120.5 c 128,-1,86
 903 144 903 144 913 179 c 0,87,88
 915 185 915 185 915 230 c 2,89,-1
 916 500 l 1,90,-1
 915 770 l 2,91,92
 915 815 915 815 913 821 c 0,93,94
 904 856 904 856 880.5 879.5 c 128,-1,95
 857 903 857 903 823 913 c 2,96,-1
 813 916 l 1,97,-1
 551 916 l 2,98,99
 531 916 531 916 527 914 c 0,39,40
EndSplineSet
Validated: 521
EndChar

StartChar: square-arrow-out-up-right
Encoding: 58792 58792 54
Width: 1000
GlyphClass: 1
Flags: W
LayerCount: 2
Fore
SplineSet
186 914 m 0,0,1
 150 908 150 908 123.5 883 c 128,-1,2
 97 858 97 858 87 821 c 0,3,4
 85 815 85 815 85 770 c 2,5,-1
 84 500 l 1,6,-1
 85 230 l 2,7,8
 85 185 85 185 87 179 c 0,9,10
 97 144 97 144 120.5 120.5 c 128,-1,11
 144 97 144 97 179 87 c 0,12,13
 185 85 185 85 230 85 c 2,14,-1
 500 84 l 1,15,-1
 770 85 l 2,16,17
 815 85 815 85 821 87 c 0,18,19
 891 106 891 106 913 177 c 0,20,21
 915 183 915 183 915 202 c 2,22,-1
 916 466 l 1,23,-1
 914 473 l 2,24,25
 908 488 908 488 893 496 c 0,26,27
 888 498 888 498 885 498.5 c 128,-1,28
 882 499 882 499 875 499 c 0,29,30
 864 499 864 499 858 496.5 c 128,-1,31
 852 494 852 494 846 488 c 128,-1,32
 840 482 840 482 837 476 c 2,33,-1
 834 469 l 1,34,-1
 833 199 l 1,35,-1
 830 192 l 2,36,37
 820 172 820 172 799 168 c 0,38,39
 792 166 792 166 500 166 c 128,-1,40
 208 166 208 166 201 168 c 0,41,42
 180 172 180 172 170 192 c 2,43,-1
 167 199 l 1,44,-1
 167 801 l 1,45,-1
 170 808 l 2,46,47
 177 823 177 823 192 830 c 2,48,-1
 199 833 l 1,49,-1
 469 834 l 1,50,-1
 476 837 l 2,51,52
 482 840 482 840 488 846 c 128,-1,53
 494 852 494 852 497 858.5 c 128,-1,54
 500 865 500 865 499.5 875.5 c 128,-1,55
 499 886 499 886 496 892.5 c 128,-1,56
 493 899 493 899 486.5 905 c 128,-1,57
 480 911 480 911 474 913.5 c 128,-1,58
 468 916 468 916 449 916 c 2,59,-1
 330 916 l 2,60,61
 194 916 194 916 186 914 c 0,0,1
614 915 m 0,62,63
 606 913 606 913 598.5 906.5 c 128,-1,64
 591 900 591 900 587.5 893.5 c 128,-1,65
 584 887 584 887 584 875 c 128,-1,66
 584 863 584 863 587 857.5 c 128,-1,67
 590 852 590 852 596 846 c 128,-1,68
 602 840 602 840 607 837 c 2,69,-1
 613 834 l 1,70,-1
 774 834 l 1,71,-1
 620 679 l 2,72,73
 466 524 466 524 462.5 518 c 128,-1,74
 459 512 459 512 459 501 c 128,-1,75
 459 490 459 490 461.5 484 c 128,-1,76
 464 478 464 478 471 471 c 128,-1,77
 478 464 478 464 484 461.5 c 128,-1,78
 490 459 490 459 501 459 c 128,-1,79
 512 459 512 459 518 462.5 c 128,-1,80
 524 466 524 466 679 620 c 2,81,-1
 834 774 l 1,82,-1
 834 613 l 1,83,-1
 837 607 l 2,84,85
 840 602 840 602 846 596 c 128,-1,86
 852 590 852 590 857.5 587 c 128,-1,87
 863 584 863 584 875 584 c 128,-1,88
 887 584 887 584 892.5 587 c 128,-1,89
 898 590 898 590 904 596 c 128,-1,90
 910 602 910 602 913 607 c 2,91,-1
 916 613 l 1,92,-1
 916 888 l 1,93,-1
 913 894 l 2,94,95
 910 899 910 899 904.5 904.5 c 128,-1,96
 899 910 899 910 894 913 c 2,97,-1
 888 916 l 1,98,-1
 752 916 l 2,99,100
 617 916 617 916 614 915 c 0,62,63
EndSplineSet
Validated: 521
EndChar

StartChar: square-dot
Encoding: 57711 57711 55
Width: 1000
GlyphClass: 1
Flags: W
LayerCount: 2
Fore
SplineSet
186 914 m 0,0,1
 150 908 150 908 123.5 883 c 128,-1,2
 97 858 97 858 87 821 c 0,3,4
 85 815 85 815 85 770 c 2,5,-1
 84 500 l 1,6,-1
 85 230 l 2,7,8
 85 185 85 185 87 179 c 0,9,10
 97 144 97 144 120.5 120.5 c 128,-1,11
 144 97 144 97 179 87 c 0,12,13
 185 85 185 85 230 85 c 2,14,-1
 500 84 l 1,15,-1
 770 85 l 2,16,17
 815 85 815 85 821 87 c 0,18,19
 856 97 856 97 879.5 120.5 c 128,-1,20
 903 144 903 144 913 179 c 0,21,22
 915 185 915 185 915 230 c 2,23,-1
 916 500 l 1,24,-1
 915 770 l 2,25,26
 915 815 915 815 913 821 c 0,27,28
 904 856 904 856 880.5 879.5 c 128,-1,29
 857 903 857 903 823 913 c 2,30,-1
 813 916 l 1,31,-1
 504 916 l 2,32,33
 194 916 194 916 186 914 c 0,0,1
808 830 m 2,34,35
 823 823 823 823 830 808 c 2,36,-1
 833 801 l 1,37,-1
 833 199 l 1,38,-1
 830 192 l 2,39,40
 820 172 820 172 799 168 c 0,41,42
 792 166 792 166 500 166 c 128,-1,43
 208 166 208 166 201 168 c 0,44,45
 180 172 180 172 170 192 c 2,46,-1
 167 199 l 1,47,-1
 167 801 l 1,48,-1
 170 808 l 2,49,50
 175 818 175 818 183.5 824.5 c 128,-1,51
 192 831 192 831 202 833 c 0,52,53
 208 833 208 833 504 833 c 2,54,-1
 801 833 l 1,55,-1
 808 830 l 2,34,35
491 582 m 0,56,57
 476 581 476 581 464 575 c 0,58,59
 447 567 447 567 435.5 552.5 c 128,-1,60
 424 538 424 538 419 521 c 0,61,62
 417 513 417 513 417 500 c 128,-1,63
 417 487 417 487 419 479 c 0,64,65
 425 457 425 457 441 441 c 128,-1,66
 457 425 457 425 479 419 c 0,67,68
 487 417 487 417 500 417 c 128,-1,69
 513 417 513 417 521 419 c 0,70,71
 543 425 543 425 559 441 c 128,-1,72
 575 457 575 457 581 479 c 0,73,74
 583 487 583 487 583 500 c 128,-1,75
 583 513 583 513 581 521 c 0,76,77
 576 538 576 538 564.5 552.5 c 128,-1,78
 553 567 553 567 536 575 c 0,79,80
 517 585 517 585 491 582 c 0,56,57
EndSplineSet
Validated: 553
EndChar

StartChar: square-minus
Encoding: 57715 57715 56
Width: 1000
GlyphClass: 1
Flags: W
LayerCount: 2
Fore
SplineSet
186 914 m 0,0,1
 150 908 150 908 123.5 883 c 128,-1,2
 97 858 97 858 87 821 c 0,3,4
 85 815 85 815 85 770 c 2,5,-1
 84 500 l 1,6,-1
 85 230 l 2,7,8
 85 185 85 185 87 179 c 0,9,10
 97 144 97 144 120.5 120.5 c 128,-1,11
 144 97 144 97 179 87 c 0,12,13
 185 85 185 85 230 85 c 2,14,-1
 500 84 l 1,15,-1
 770 85 l 2,16,17
 815 85 815 85 821 87 c 0,18,19
 856 97 856 97 879.5 120.5 c 128,-1,20
 903 144 903 144 913 179 c 0,21,22
 915 185 915 185 915 230 c 2,23,-1
 916 500 l 1,24,-1
 915 770 l 2,25,26
 915 815 915 815 913 821 c 0,27,28
 904 856 904 856 880.5 879.5 c 128,-1,29
 857 903 857 903 823 913 c 2,30,-1
 813 916 l 1,31,-1
 504 916 l 2,32,33
 194 916 194 916 186 914 c 0,0,1
808 830 m 2,34,35
 823 823 823 823 830 808 c 2,36,-1
 833 801 l 1,37,-1
 833 199 l 1,38,-1
 830 192 l 2,39,40
 820 172 820 172 799 168 c 0,41,42
 792 166 792 166 500 166 c 128,-1,43
 208 166 208 166 201 168 c 0,44,45
 180 172 180 172 170 192 c 2,46,-1
 167 199 l 1,47,-1
 167 801 l 1,48,-1
 170 808 l 2,49,50
 175 818 175 818 183.5 824.5 c 128,-1,51
 192 831 192 831 202 833 c 0,52,53
 208 833 208 833 504 833 c 2,54,-1
 801 833 l 1,55,-1
 808 830 l 2,34,35
320 539 m 0,56,57
 303 533 303 533 295.5 516 c 128,-1,58
 288 499 288 499 295 483 c 0,59,60
 299 476 299 476 305 470 c 128,-1,61
 311 464 311 464 317 461.5 c 128,-1,62
 323 459 323 459 346 459 c 2,63,-1
 500 459 l 1,64,-1
 654 459 l 2,65,66
 677 459 677 459 683 461.5 c 128,-1,67
 689 464 689 464 695 470 c 128,-1,68
 701 476 701 476 704.5 483.5 c 128,-1,69
 708 491 708 491 708 500 c 128,-1,70
 708 509 708 509 705 517 c 0,71,72
 698 531 698 531 684 538 c 2,73,-1
 678 541 l 1,74,-1
 501 541 l 2,75,76
 324 541 324 541 320 539 c 0,56,57
EndSplineSet
Validated: 553
EndChar

StartChar: square-plus
Encoding: 57717 57717 57
Width: 1000
GlyphClass: 1
Flags: W
LayerCount: 2
Fore
SplineSet
186 914 m 0,0,1
 150 908 150 908 123.5 883 c 128,-1,2
 97 858 97 858 87 821 c 0,3,4
 85 815 85 815 85 770 c 2,5,-1
 84 500 l 1,6,-1
 85 230 l 2,7,8
 85 185 85 185 87 179 c 0,9,10
 97 144 97 144 120.5 120.5 c 128,-1,11
 144 97 144 97 179 87 c 0,12,13
 185 85 185 85 230 85 c 2,14,-1
 500 84 l 1,15,-1
 770 85 l 2,16,17
 815 85 815 85 821 87 c 0,18,19
 856 97 856 97 879.5 120.5 c 128,-1,20
 903 144 903 144 913 179 c 0,21,22
 915 185 915 185 915 230 c 2,23,-1
 916 500 l 1,24,-1
 915 770 l 2,25,26
 915 815 915 815 913 821 c 0,27,28
 904 856 904 856 880.5 879.5 c 128,-1,29
 857 903 857 903 823 913 c 2,30,-1
 813 916 l 1,31,-1
 504 916 l 2,32,33
 194 916 194 916 186 914 c 0,0,1
808 830 m 2,34,35
 823 823 823 823 830 808 c 2,36,-1
 833 801 l 1,37,-1
 833 199 l 1,38,-1
 830 192 l 2,39,40
 820 172 820 172 799 168 c 0,41,42
 792 166 792 166 500 166 c 128,-1,43
 208 166 208 166 201 168 c 0,44,45
 180 172 180 172 170 192 c 2,46,-1
 167 199 l 1,47,-1
 167 801 l 1,48,-1
 170 808 l 2,49,50
 175 818 175 818 183.5 824.5 c 128,-1,51
 192 831 192 831 202 833 c 0,52,53
 208 833 208 833 504 833 c 2,54,-1
 801 833 l 1,55,-1
 808 830 l 2,34,35
493 707 m 0,56,57
 486 706 486 706 480.5 703.5 c 128,-1,58
 475 701 475 701 469.5 694.5 c 128,-1,59
 464 688 464 688 461.5 682.5 c 128,-1,60
 459 677 459 677 459 667 c 2,61,-1
 459 541 l 1,62,-1
 322 541 l 1,63,-1
 316 538 l 2,64,65
 300 530 300 530 294.5 514 c 128,-1,66
 289 498 289 498 295 483 c 0,67,68
 299 476 299 476 305 470 c 128,-1,69
 311 464 311 464 317 461.5 c 128,-1,70
 323 459 323 459 333 459 c 2,71,-1
 459 459 l 1,72,-1
 459 333 l 2,73,74
 459 323 459 323 461.5 317 c 128,-1,75
 464 311 464 311 470 305 c 128,-1,76
 476 299 476 299 483.5 295.5 c 128,-1,77
 491 292 491 292 500 292 c 128,-1,78
 509 292 509 292 516.5 295.5 c 128,-1,79
 524 299 524 299 530 305 c 128,-1,80
 536 311 536 311 538.5 317 c 128,-1,81
 541 323 541 323 541 333 c 2,82,-1
 541 459 l 1,83,-1
 667 459 l 2,84,85
 677 459 677 459 683 461.5 c 128,-1,86
 689 464 689 464 695 470 c 128,-1,87
 701 476 701 476 704.5 483.5 c 128,-1,88
 708 491 708 491 708 500 c 128,-1,89
 708 509 708 509 705 517 c 0,90,91
 698 531 698 531 684 538 c 2,92,-1
 678 541 l 1,93,-1
 541 541 l 1,94,-1
 541 666 l 2,95,96
 541 677 541 677 539 681 c 0,97,98
 534 695 534 695 521 702.5 c 128,-1,99
 508 710 508 710 493 707 c 0,56,57
EndSplineSet
Validated: 521
EndChar

StartChar: square-slash
Encoding: 57718 57718 58
Width: 1000
GlyphClass: 1
Flags: W
LayerCount: 2
Fore
SplineSet
186 914 m 0,0,1
 150 908 150 908 123.5 883 c 128,-1,2
 97 858 97 858 87 821 c 0,3,4
 85 815 85 815 85 770 c 2,5,-1
 84 500 l 1,6,-1
 85 230 l 2,7,8
 85 185 85 185 87 179 c 0,9,10
 97 144 97 144 120.5 120.5 c 128,-1,11
 144 97 144 97 179 87 c 0,12,13
 185 85 185 85 230 85 c 2,14,-1
 500 84 l 1,15,-1
 770 85 l 2,16,17
 815 85 815 85 821 87 c 0,18,19
 856 97 856 97 879.5 120.5 c 128,-1,20
 903 144 903 144 913 179 c 0,21,22
 915 185 915 185 915 230 c 2,23,-1
 916 500 l 1,24,-1
 915 770 l 2,25,26
 915 815 915 815 913 821 c 0,27,28
 904 856 904 856 880.5 879.5 c 128,-1,29
 857 903 857 903 823 913 c 2,30,-1
 813 916 l 1,31,-1
 504 916 l 2,32,33
 194 916 194 916 186 914 c 0,0,1
808 830 m 2,34,35
 823 823 823 823 830 808 c 2,36,-1
 833 801 l 1,37,-1
 833 199 l 1,38,-1
 830 192 l 2,39,40
 820 172 820 172 799 168 c 0,41,42
 792 166 792 166 500 166 c 128,-1,43
 208 166 208 166 201 168 c 0,44,45
 180 172 180 172 170 192 c 2,46,-1
 167 199 l 1,47,-1
 167 801 l 1,48,-1
 170 808 l 2,49,50
 175 818 175 818 183.5 824.5 c 128,-1,51
 192 831 192 831 202 833 c 0,52,53
 208 833 208 833 504 833 c 2,54,-1
 801 833 l 1,55,-1
 808 830 l 2,34,35
614 665 m 0,56,57
 608 663 608 663 600 657 c 0,58,59
 590 648 590 648 562 620 c 2,60,-1
 470 529 l 2,61,62
 340 399 340 399 337 393 c 128,-1,63
 334 387 334 387 334 376 c 128,-1,64
 334 365 334 365 336.5 359 c 128,-1,65
 339 353 339 353 346 346 c 128,-1,66
 353 339 353 339 359 336.5 c 128,-1,67
 365 334 365 334 376 334 c 128,-1,68
 387 334 387 334 393.5 337.5 c 128,-1,69
 400 341 400 341 529.5 470.5 c 128,-1,70
 659 600 659 600 662.5 606.5 c 128,-1,71
 666 613 666 613 666 624 c 128,-1,72
 666 635 666 635 663.5 641 c 128,-1,73
 661 647 661 647 655 654 c 0,74,75
 643 665 643 665 627 666 c 0,76,77
 617 666 617 666 614 665 c 0,56,57
EndSplineSet
Validated: 521
EndChar

StartChar: squircle
Encoding: 58750 58750 59
Width: 1000
GlyphClass: 1
Flags: W
LayerCount: 2
Fore
SplineSet
441 916 m 1,0,1
 356 911 356 911 304.5 899 c 128,-1,2
 253 887 253 887 212 862 c 0,3,4
 161 831 161 831 131.5 776.5 c 128,-1,5
 102 722 102 722 91 642 c 0,6,7
 87 607 87 607 85.5 583 c 128,-1,8
 84 559 84 559 84 500 c 128,-1,9
 84 441 84 441 85.5 417 c 128,-1,10
 87 393 87 393 91 358 c 0,11,12
 103 271 103 271 136.5 215 c 128,-1,13
 170 159 170 159 230 128 c 0,14,15
 263 111 263 111 302.5 101.5 c 128,-1,16
 342 92 342 92 401 87 c 0,17,18
 428 84 428 84 500 84 c 128,-1,19
 572 84 572 84 599 87 c 0,20,21
 658 92 658 92 697.5 101.5 c 128,-1,22
 737 111 737 111 770 128 c 0,23,24
 830 159 830 159 863.5 215 c 128,-1,25
 897 271 897 271 909 358 c 0,26,27
 913 393 913 393 914.5 417 c 128,-1,28
 916 441 916 441 916 500 c 128,-1,29
 916 559 916 559 914.5 583 c 128,-1,30
 913 607 913 607 909 642 c 0,31,32
 898 719 898 719 870.5 772 c 128,-1,33
 843 825 843 825 796 856 c 0,34,35
 759 881 759 881 713 894 c 128,-1,36
 667 907 667 907 596 913 c 0,37,38
 580 915 580 915 519 915.5 c 128,-1,39
 458 916 458 916 441 915 c 1,40,-1
 441 916 l 1,0,1
571 831 m 0,41,42
 647 827 647 827 694.5 812.5 c 128,-1,43
 742 798 742 798 770 770 c 0,44,45
 796 744 796 744 810.5 701.5 c 128,-1,46
 825 659 825 659 830 591 c 0,47,48
 833 559 833 559 833 499.5 c 128,-1,49
 833 440 833 440 830 409 c 0,50,51
 825 340 825 340 810.5 298 c 128,-1,52
 796 256 796 256 769 229 c 128,-1,53
 742 202 742 202 697 188 c 128,-1,54
 652 174 652 174 575 169 c 0,55,56
 553 167 553 167 500 167 c 0,57,58
 449 167 449 167 415.5 169 c 128,-1,59
 382 171 382 171 350 177 c 0,60,61
 291 187 291 187 256 209 c 128,-1,62
 221 231 221 231 202 269 c 0,63,64
 183 306 183 306 175 360 c 128,-1,65
 167 414 167 414 167 500 c 0,66,67
 167 613 167 613 182 675 c 0,68,69
 198 741 198 741 234 775 c 0,70,71
 270 807 270 807 336 821 c 0,72,73
 377 829 377 829 440 832 c 128,-1,74
 503 835 503 835 571 831 c 0,41,42
EndSplineSet
Validated: 41
EndChar

StartChar: sun
Encoding: 57722 57722 60
Width: 1000
GlyphClass: 1
Flags: W
LayerCount: 2
Fore
SplineSet
493 957 m 0,0,1
 480 955 480 955 470 945 c 0,2,3
 464 939 464 939 462 934 c 128,-1,4
 460 929 460 929 459 916 c 0,5,6
 459 907 459 907 459 875 c 128,-1,7
 459 843 459 843 459 834 c 0,8,9
 460 821 460 821 462 816 c 128,-1,10
 464 811 464 811 470 805 c 0,11,12
 483 792 483 792 500 792 c 128,-1,13
 517 792 517 792 530 805 c 0,14,15
 536 811 536 811 538 816 c 128,-1,16
 540 821 540 821 541 834 c 0,17,18
 541 843 541 843 541 875 c 2,19,-1
 541 918 l 2,20,21
 541 927 541 927 539 931 c 0,22,23
 534 945 534 945 521 952.5 c 128,-1,24
 508 960 508 960 493 957 c 0,0,1
196 835 m 0,25,26
 181 832 181 832 172 819.5 c 128,-1,27
 163 807 163 807 164 792 c 0,28,29
 165 781 165 781 171 772.5 c 128,-1,30
 177 764 177 764 205 735 c 0,31,32
 239 701 239 701 244 699 c 0,33,34
 263 689 263 689 282 698.5 c 128,-1,35
 301 708 301 708 305 729 c 0,36,37
 308 743 308 743 301 756 c 0,38,39
 299 761 299 761 265 795 c 0,40,41
 243 816 243 816 235.5 823 c 128,-1,42
 228 830 228 830 223 832.5 c 128,-1,43
 218 835 218 835 209.5 835.5 c 128,-1,44
 201 836 201 836 196 835 c 0,25,26
785 835 m 256,45,46
 780 834 780 834 774.5 831 c 128,-1,47
 769 828 769 828 735.5 794.5 c 128,-1,48
 702 761 702 761 699 756 c 0,49,50
 689 736 689 736 698.5 717.5 c 128,-1,51
 708 699 708 699 729 695 c 0,52,53
 742 692 742 692 756 699 c 0,54,55
 761 701 761 701 795 735 c 0,56,57
 816 757 816 757 823 764.5 c 128,-1,58
 830 772 830 772 832 777 c 0,59,60
 840 793 840 793 833.5 809 c 128,-1,61
 827 825 827 825 811 833 c 0,62,63
 806 835 806 835 798 835.5 c 128,-1,64
 790 836 790 836 785 835 c 256,45,46
486 707 m 0,65,66
 445 705 445 705 409 687 c 0,67,68
 362 664 362 664 332.5 624 c 128,-1,69
 303 584 303 584 294 532 c 0,70,71
 292 521 292 521 292 500 c 128,-1,72
 292 479 292 479 294 468 c 0,73,74
 304 410 304 410 340.5 366.5 c 128,-1,75
 377 323 377 323 431 304 c 0,76,77
 449 297 449 297 464 294.5 c 128,-1,78
 479 292 479 292 500 292 c 128,-1,79
 521 292 521 292 536 294.5 c 128,-1,80
 551 297 551 297 569 304 c 0,81,82
 624 323 624 323 661 368.5 c 128,-1,83
 698 414 698 414 706 472 c 0,84,85
 708 483 708 483 708 502 c 128,-1,86
 708 521 708 521 706 532 c 0,87,88
 697 583 697 583 667.5 623.5 c 128,-1,89
 638 664 638 664 591 687.5 c 128,-1,90
 544 711 544 711 486 707 c 0,65,66
519 623 m 0,91,92
 548 619 548 619 572.5 601.5 c 128,-1,93
 597 584 597 584 610 558 c 0,94,95
 620 538 620 538 623 519 c 128,-1,96
 626 500 626 500 623 481 c 0,97,98
 617 442 617 442 590 414 c 128,-1,99
 563 386 563 386 524 378 c 0,100,101
 490 371 490 371 458 382.5 c 128,-1,102
 426 394 426 394 404 420.5 c 128,-1,103
 382 447 382 447 377 481 c 0,104,105
 374 500 374 500 377 519 c 0,106,107
 383 559 383 559 411.5 588 c 128,-1,108
 440 617 440 617 480 623 c 0,109,110
 499 626 499 626 519 623 c 0,91,92
70 539 m 0,111,112
 57 535 57 535 49.5 524 c 128,-1,113
 42 513 42 513 42 500 c 0,114,115
 42 483 42 483 55 470 c 0,116,117
 61 464 61 464 66 462 c 128,-1,118
 71 460 71 460 84 459 c 0,119,120
 93 459 93 459 125 459 c 128,-1,121
 157 459 157 459 166 459 c 0,122,123
 179 460 179 460 184 462 c 128,-1,124
 189 464 189 464 195 470 c 0,125,126
 208 483 208 483 208 500 c 128,-1,127
 208 517 208 517 196 529 c 0,128,129
 191 534 191 534 184 538 c 2,130,-1
 178 541 l 1,131,-1
 126 541 l 2,132,133
 74 541 74 541 70 539 c 0,111,112
820 539 m 0,134,135
 807 535 807 535 799.5 524 c 128,-1,136
 792 513 792 513 792 500 c 0,137,138
 792 483 792 483 805 470 c 0,139,140
 811 464 811 464 816 462 c 128,-1,141
 821 460 821 460 834 459 c 0,142,143
 843 459 843 459 875 459 c 128,-1,144
 907 459 907 459 916 459 c 0,145,146
 929 460 929 460 934 462 c 128,-1,147
 939 464 939 464 945 470 c 0,148,149
 958 483 958 483 958 500 c 128,-1,150
 958 517 958 517 946 529 c 0,151,152
 941 534 941 534 934 538 c 2,153,-1
 928 541 l 1,154,-1
 876 541 l 2,155,156
 824 541 824 541 820 539 c 0,134,135
256 305 m 0,157,158
 249 304 249 304 243.5 300.5 c 128,-1,159
 238 297 238 297 205 264 c 0,160,161
 183 243 183 243 176.5 235.5 c 128,-1,162
 170 228 170 228 168 223 c 0,163,164
 160 206 160 206 167 190 c 128,-1,165
 174 174 174 174 190 167 c 128,-1,166
 206 160 206 160 223 168 c 0,167,168
 228 170 228 170 235.5 177 c 128,-1,169
 243 184 243 184 265 205 c 0,170,171
 299 239 299 239 301 244 c 0,172,173
 308 257 308 257 305 271 c 0,174,175
 302 289 302 289 288 298 c 128,-1,176
 274 307 274 307 256 305 c 0,157,158
729 305 m 0,177,178
 709 302 709 302 699 283 c 128,-1,179
 689 264 689 264 699 244 c 0,180,181
 701 239 701 239 735 205 c 0,182,183
 757 184 757 184 764.5 177 c 128,-1,184
 772 170 772 170 777 168 c 0,185,186
 794 160 794 160 810 167 c 128,-1,187
 826 174 826 174 833 190 c 128,-1,188
 840 206 840 206 832 223 c 0,189,190
 830 228 830 228 823.5 235 c 128,-1,191
 817 242 817 242 798 261 c 0,192,193
 768 291 768 291 761 297 c 0,194,195
 747 307 747 307 729 305 c 0,177,178
493 207 m 0,196,197
 480 205 480 205 470 195 c 0,198,199
 464 189 464 189 462 184 c 128,-1,200
 460 179 460 179 459 166 c 0,201,202
 459 157 459 157 459 125 c 128,-1,203
 459 93 459 93 459 84 c 0,204,205
 460 71 460 71 462 66 c 128,-1,206
 464 61 464 61 470 55 c 0,207,208
 483 42 483 42 500 42 c 128,-1,209
 517 42 517 42 530 55 c 0,210,211
 536 61 536 61 538 66 c 128,-1,212
 540 71 540 71 541 84 c 0,213,214
 541 93 541 93 541 125 c 2,215,-1
 541 168 l 2,216,217
 541 177 541 177 539 181 c 0,218,219
 534 195 534 195 521 202.5 c 128,-1,220
 508 210 508 210 493 207 c 0,196,197
EndSplineSet
Validated: 41
EndChar

StartChar: text-cursor-input
Encoding: 57956 57956 61
Width: 1000
GlyphClass: 1
LayerCount: 2
Fore
SplineSet
198 874 m 0,0,1
 188 871 188 871 179 862 c 0,2,3
 167 851 167 851 166.5 835.5 c 128,-1,4
 166 820 166 820 175.5 808 c 128,-1,5
 185 796 185 796 201 792 c 0,6,7
 208 791 208 791 234 791 c 0,8,9
 257 791 257 791 266.5 789.5 c 128,-1,10
 276 788 276 788 286.5 783 c 128,-1,11
 297 778 297 778 308 767 c 128,-1,12
 319 756 319 756 324 746 c 2,13,-1
 326 743 l 2,14,15
 330 735 330 735 331 726 c 0,16,17
 333 714 333 714 333 676 c 2,18,-1
 333 324 l 2,19,20
 333 286 333 286 331 274 c 0,21,22
 330 265 330 265 326 257 c 2,23,-1
 324 254 l 2,24,25
 320 245 320 245 309.5 234.5 c 128,-1,26
 299 224 299 224 291 219 c 0,27,28
 280 213 280 213 271 211 c 128,-1,29
 262 209 262 209 234 209 c 0,30,31
 208 208 208 208 202.5 207.5 c 128,-1,32
 197 207 197 207 192 205 c 0,33,34
 175 197 175 197 169 180 c 128,-1,35
 163 163 163 163 171 147 c 0,36,37
 174 142 174 142 179.5 137 c 128,-1,38
 185 132 185 132 190.5 129.5 c 128,-1,39
 196 127 196 127 201 126.5 c 128,-1,40
 206 126 206 126 229 125.5 c 128,-1,41
 252 125 252 125 264.5 126 c 128,-1,42
 277 127 277 127 290 130 c 0,43,44
 334 141 334 141 367 173 c 2,45,-1
 375 181 l 1,46,-1
 383 173 l 2,47,48
 402 154 402 154 427 142 c 0,49,50
 449 132 449 132 468 128.5 c 128,-1,51
 487 125 487 125 521 125 c 0,52,53
 544 126 544 126 549 126 c 128,-1,54
 554 126 554 126 559.5 129 c 128,-1,55
 565 132 565 132 570.5 137 c 128,-1,56
 576 142 576 142 578.5 147 c 128,-1,57
 581 152 581 152 582 160 c 0,58,59
 585 174 585 174 578.5 186 c 128,-1,60
 572 198 572 198 558 205 c 0,61,62
 553 207 553 207 547.5 207.5 c 128,-1,63
 542 208 542 208 516 209 c 0,64,65
 488 209 488 209 479 211 c 128,-1,66
 470 213 470 213 459 219 c 0,67,68
 451 224 451 224 440.5 234.5 c 128,-1,69
 430 245 430 245 426 254 c 2,70,-1
 424 257 l 2,71,72
 420 265 420 265 419 274 c 0,73,74
 417 286 417 286 417 324 c 2,75,-1
 417 676 l 2,76,77
 417 714 417 714 419 726 c 0,78,79
 420 735 420 735 424 743 c 2,80,-1
 426 746 l 2,81,82
 431 756 431 756 442 767 c 128,-1,83
 453 778 453 778 463.5 783 c 128,-1,84
 474 788 474 788 483.5 789.5 c 128,-1,85
 493 791 493 791 516 791 c 0,86,87
 543 791 543 791 552.5 793.5 c 128,-1,88
 562 796 562 796 571 804.5 c 128,-1,89
 580 813 580 813 582.5 827 c 128,-1,90
 585 841 585 841 579 852 c 0,91,92
 576 858 576 858 570.5 863 c 128,-1,93
 565 868 565 868 559 871 c 2,94,-1
 552 874 l 1,95,-1
 516 874 l 2,96,97
 491 874 491 874 483 873.5 c 128,-1,98
 475 873 475 873 467 871 c 0,99,100
 418 861 418 861 383 827 c 2,101,-1
 375 819 l 1,102,-1
 367 827 l 2,103,104
 332 861 332 861 284 871 c 0,105,106
 272 874 272 874 237.5 874.5 c 128,-1,107
 203 875 203 875 198 874 c 0,0,1
154 707 m 0,108,109
 133 705 133 705 112 695 c 128,-1,110
 91 685 91 685 76 668 c 0,111,112
 54 645 54 645 45 611 c 0,113,114
 43 602 43 602 42 588 c 2,115,-1
 42 399 l 1,116,-1
 45 387 l 2,117,118
 50 369 50 369 58 355.5 c 128,-1,119
 66 342 66 342 79 329 c 128,-1,120
 92 316 92 316 105.5 308 c 128,-1,121
 119 300 119 300 137 295 c 0,122,123
 145 293 145 293 152 292.5 c 128,-1,124
 159 292 159 292 178 292 c 0,125,126
 207 291 207 291 218 293 c 128,-1,127
 229 295 229 295 237 304 c 0,128,129
 253 320 253 320 249 341 c 128,-1,130
 245 362 245 362 224 372 c 0,131,132
 220 373 220 373 214.5 374 c 128,-1,133
 209 375 209 375 187 375 c 0,134,135
 157 376 157 376 153 377 c 0,136,137
 137 383 137 383 128 401 c 2,138,-1
 126 407 l 1,139,-1
 126 593 l 1,140,-1
 130 602 l 2,141,142
 136 615 136 615 150 621 c 0,143,144
 155 623 155 623 160 624 c 128,-1,145
 165 625 165 625 188 625 c 0,146,147
 218 626 218 626 222.5 627.5 c 128,-1,148
 227 629 227 629 232.5 633.5 c 128,-1,149
 238 638 238 638 242 642 c 0,150,151
 251 654 251 654 250 668.5 c 128,-1,152
 249 683 249 683 239.5 694 c 128,-1,153
 230 705 230 705 215 707 c 0,154,155
 208 709 208 709 187.5 709 c 128,-1,156
 167 709 167 709 154 707 c 0,108,109
534 707 m 0,157,158
 516 704 516 704 506.5 688 c 128,-1,159
 497 672 497 672 502 655 c 0,160,161
 504 646 504 646 511.5 638 c 128,-1,162
 519 630 519 630 528 627 c 0,163,164
 532 626 532 626 687 625 c 2,165,-1
 843 624 l 1,166,-1
 850 621 l 2,167,168
 864 614 864 614 871 600 c 2,169,-1
 874 593 l 1,170,-1
 874 407 l 1,171,-1
 872 401 l 2,172,173
 866 389 866 389 857 382 c 2,174,-1
 855 381 l 2,175,176
 850 378 850 378 844 377 c 0,177,178
 835 376 835 376 807 375 c 2,179,-1
 689 375 l 2,180,181
 539 375 539 375 533 374 c 0,182,183
 514 370 514 370 505 352 c 128,-1,184
 496 334 496 334 504 316 c 0,185,186
 507 310 507 310 512 304.5 c 128,-1,187
 517 299 517 299 522.5 296.5 c 128,-1,188
 528 294 528 294 537 293 c 0,189,190
 548 292 548 292 583 291 c 2,191,-1
 851 292 l 1,192,-1
 863 295 l 2,193,194
 881 300 881 300 894.5 308 c 128,-1,195
 908 316 908 316 921 329 c 128,-1,196
 934 342 934 342 942 355.5 c 128,-1,197
 950 369 950 369 955 387 c 2,198,-1
 958 399 l 1,199,-1
 958 601 l 1,200,-1
 955 613 l 2,201,202
 946 646 946 646 924 669 c 0,203,204
 892 703 892 703 843 708 c 0,205,206
 830 709 830 709 685.5 708.5 c 128,-1,207
 541 708 541 708 534 707 c 0,157,158
EndSplineSet
Validated: 553
EndChar

StartChar: torus
Encoding: 58675 58675 62
Width: 1000
GlyphClass: 1
Flags: W
LayerCount: 2
Fore
SplineSet
463 874 m 0,0,1
 386 868 386 868 316 841.5 c 128,-1,2
 246 815 246 815 188 769 c 0,3,4
 175 759 175 759 156 740.5 c 128,-1,5
 137 722 137 722 128 710 c 0,6,7
 58 625 58 625 44 522 c 0,8,9
 42 507 42 507 42 481.5 c 128,-1,10
 42 456 42 456 44 441 c 0,11,12
 54 355 54 355 103.5 281 c 128,-1,13
 153 207 153 207 234 157 c 0,14,15
 283 127 283 127 339.5 108.5 c 128,-1,16
 396 90 396 90 457 85 c 0,17,18
 471 84 471 84 500 84 c 128,-1,19
 529 84 529 84 543 85 c 0,20,21
 648 94 648 94 737.5 141 c 128,-1,22
 827 188 827 188 884 263 c 0,23,24
 937 334 937 334 952.5 416.5 c 128,-1,25
 968 499 968 499 943 581 c 0,26,27
 934 612 934 612 916.5 645 c 128,-1,28
 899 678 899 678 877 705 c 0,29,30
 861 724 861 724 833.5 749.5 c 128,-1,31
 806 775 806 775 784 790 c 0,32,33
 715 837 715 837 632 858.5 c 128,-1,34
 549 880 549 880 463 874 c 0,0,1
537 790 m 0,35,36
 600 785 600 785 656.5 763 c 128,-1,37
 713 741 713 741 759 704.5 c 128,-1,38
 805 668 805 668 833.5 621.5 c 128,-1,39
 862 575 862 575 871 522 c 0,40,41
 874 506 874 506 874.5 481 c 128,-1,42
 875 456 875 456 872 441 c 0,43,44
 860 365 860 365 808 301 c 0,45,46
 801 292 801 292 784 275.5 c 128,-1,47
 767 259 767 259 756 251 c 0,48,49
 697 205 697 205 620 183 c 0,50,51
 587 174 587 174 549 169.5 c 128,-1,52
 511 165 511 165 477 167 c 0,53,54
 429 170 429 170 389 180.5 c 128,-1,55
 349 191 349 191 309 211 c 0,56,57
 256 237 256 237 215 277 c 0,58,59
 194 297 194 297 180 316.5 c 128,-1,60
 166 336 166 336 154 360 c 0,61,62
 113 442 113 442 131 533 c 0,63,64
 142 588 142 588 177.5 638 c 128,-1,65
 213 688 213 688 268 724 c 0,66,67
 309 752 309 752 359 768.5 c 128,-1,68
 409 785 409 785 461 790 c 0,69,70
 474 791 474 791 499 791 c 128,-1,71
 524 791 524 791 537 790 c 0,35,36
472 665 m 0,72,73
 443 662 443 662 416.5 650.5 c 128,-1,74
 390 639 390 639 371 621 c 0,75,76
 342 595 342 595 335.5 559.5 c 128,-1,77
 329 524 329 524 346 493 c 0,78,79
 357 473 357 473 377 457 c 128,-1,80
 397 441 397 441 421 431 c 0,81,82
 441 423 441 423 458.5 420 c 128,-1,83
 476 417 476 417 500 417 c 128,-1,84
 524 417 524 417 541.5 420 c 128,-1,85
 559 423 559 423 579 431 c 0,86,87
 609 443 609 443 630.5 463.5 c 128,-1,88
 652 484 652 484 660 508 c 0,89,90
 667 526 667 526 666 547 c 0,91,92
 665 578 665 578 643 606 c 0,93,94
 628 625 628 625 602 640.5 c 128,-1,95
 576 656 576 656 547 662 c 0,96,97
 532 665 532 665 510 666 c 128,-1,98
 488 667 488 667 472 665 c 0,72,73
528 580 m 0,99,100
 550 576 550 576 566 565 c 128,-1,101
 582 554 582 554 583 543.5 c 128,-1,102
 584 533 584 533 572 522 c 0,103,104
 549 503 549 503 509 500.5 c 128,-1,105
 469 498 469 498 440 514 c 0,106,107
 434 517 434 517 427.5 523 c 128,-1,108
 421 529 421 529 419 533 c 128,-1,109
 417 537 417 537 417.5 542.5 c 128,-1,110
 418 548 418 548 420 552 c 0,111,112
 425 559 425 559 437.5 567 c 128,-1,113
 450 575 450 575 463.5 578.5 c 128,-1,114
 477 582 477 582 495 582.5 c 128,-1,115
 513 583 513 583 528 580 c 0,99,100
EndSplineSet
Validated: 41
EndChar

StartChar: trash-2
Encoding: 57740 57740 63
Width: 1000
GlyphClass: 1
LayerCount: 2
Fore
SplineSet
405 957 m 0,0,1
 369 954 369 954 338 927.5 c 128,-1,2
 307 901 307 901 296 864 c 0,3,4
 291 847 291 847 291 813 c 2,5,-1
 291 791 l 1,6,-1
 113 791 l 1,7,-1
 107 787 l 2,8,9
 94 780 94 780 87 768 c 0,10,11
 84 762 84 762 84 750 c 128,-1,12
 84 738 84 738 87 732.5 c 128,-1,13
 90 727 90 727 96 721 c 128,-1,14
 102 715 102 715 106.5 712.5 c 128,-1,15
 111 710 111 710 116 709.5 c 128,-1,16
 121 709 121 709 140 709 c 2,17,-1
 166 709 l 1,18,-1
 166 437 l 2,19,20
 166 165 166 165 168 155 c 0,21,22
 173 112 173 112 205 80 c 128,-1,23
 237 48 237 48 280 43 c 0,24,25
 291 41 291 41 500 41 c 128,-1,26
 709 41 709 41 720 43 c 0,27,28
 763 48 763 48 795 80 c 128,-1,29
 827 112 827 112 832 155 c 0,30,31
 834 165 834 165 834 437 c 2,32,-1
 834 709 l 1,33,-1
 860 709 l 2,34,35
 879 709 879 709 884 709.5 c 128,-1,36
 889 710 889 710 893.5 712.5 c 128,-1,37
 898 715 898 715 904 721 c 128,-1,38
 910 727 910 727 913 732.5 c 128,-1,39
 916 738 916 738 916 750 c 128,-1,40
 916 762 916 762 913 768 c 0,41,42
 906 780 906 780 893 787 c 2,43,-1
 887 791 l 1,44,-1
 709 791 l 1,45,-1
 709 813 l 2,46,47
 709 847 709 847 704 864 c 0,48,49
 694 896 694 896 668.5 921 c 128,-1,50
 643 946 643 946 610 955 c 2,51,-1
 598 958 l 1,52,-1
 507 958 l 2,53,54
 415 958 415 958 405 957 c 0,0,1
597 872 m 0,55,56
 603 869 603 869 610.5 861.5 c 128,-1,57
 618 854 618 854 620.5 848.5 c 128,-1,58
 623 843 623 843 623.5 838.5 c 128,-1,59
 624 834 624 834 625 816 c 2,60,-1
 625 791 l 1,61,-1
 375 791 l 1,62,-1
 375 816 l 2,63,64
 375 833 375 833 376 838 c 128,-1,65
 377 843 377 843 379 847.5 c 128,-1,66
 381 852 381 852 387.5 859 c 128,-1,67
 394 866 394 866 398 869 c 2,68,-1
 399 869 l 2,69,70
 404 872 404 872 409.5 873 c 128,-1,71
 415 874 415 874 435 875 c 2,72,-1
 580 874 l 2,73,74
 592 874 592 874 597 872 c 0,55,56
750 434 m 1,75,-1
 749 159 l 1,76,-1
 746 152 l 2,77,78
 742 145 742 145 734 137.5 c 128,-1,79
 726 130 726 130 719 128 c 2,80,-1
 712 125 l 1,81,-1
 288 125 l 1,82,-1
 281 128 l 2,83,84
 274 130 274 130 266 137.5 c 128,-1,85
 258 145 258 145 254 152 c 2,86,-1
 251 159 l 1,87,-1
 250 709 l 1,88,-1
 750 709 l 1,89,-1
 750 434 l 1,75,-1
409 582 m 0,90,91
 400 581 400 581 391.5 574.5 c 128,-1,92
 383 568 383 568 379 559 c 2,93,-1
 376 552 l 1,94,-1
 375 314 l 2,95,96
 376 288 376 288 377 280 c 0,97,98
 378 274 378 274 382 269 c 2,99,-1
 383 267 l 2,100,101
 394 252 394 252 413 250.5 c 128,-1,102
 432 249 432 249 446 263 c 0,103,104
 455 272 455 272 457 284 c 0,105,106
 459 292 459 292 459 417 c 128,-1,107
 459 542 459 542 457 549 c 0,108,109
 454 566 454 566 440.5 575.5 c 128,-1,110
 427 585 427 585 409 582 c 0,90,91
577 582 m 0,111,112
 564 581 564 581 554.5 571.5 c 128,-1,113
 545 562 545 562 543 549 c 0,114,115
 541 542 541 542 541 416 c 128,-1,116
 541 290 541 290 543 283 c 0,117,118
 545 271 545 271 554 263 c 0,119,120
 568 249 568 249 587 250.5 c 128,-1,121
 606 252 606 252 617 268 c 2,122,-1
 618 269 l 2,123,124
 622 275 622 275 623 280 c 0,125,126
 624 289 624 289 625 314 c 2,127,-1
 625 549 l 1,128,-1
 622 556 l 2,129,130
 616 571 616 571 604 578 c 128,-1,131
 592 585 592 585 577 582 c 0,111,112
EndSplineSet
Validated: 553
EndChar

StartChar: trash
Encoding: 57739 57739 64
Width: 1000
GlyphClass: 1
LayerCount: 2
Fore
SplineSet
405 957 m 0,0,1
 369 954 369 954 338 927.5 c 128,-1,2
 307 901 307 901 296 864 c 0,3,4
 291 847 291 847 291 813 c 2,5,-1
 291 791 l 1,6,-1
 113 791 l 1,7,-1
 107 787 l 2,8,9
 94 780 94 780 87 768 c 0,10,11
 84 762 84 762 84 750 c 128,-1,12
 84 738 84 738 87 732.5 c 128,-1,13
 90 727 90 727 96 721 c 128,-1,14
 102 715 102 715 106.5 712.5 c 128,-1,15
 111 710 111 710 116 709.5 c 128,-1,16
 121 709 121 709 140 709 c 2,17,-1
 166 709 l 1,18,-1
 166 437 l 2,19,20
 166 165 166 165 168 155 c 0,21,22
 173 112 173 112 205 80 c 128,-1,23
 237 48 237 48 280 43 c 0,24,25
 291 41 291 41 500 41 c 128,-1,26
 709 41 709 41 720 43 c 0,27,28
 763 48 763 48 795 80 c 128,-1,29
 827 112 827 112 832 155 c 0,30,31
 834 165 834 165 834 437 c 2,32,-1
 834 709 l 1,33,-1
 860 709 l 2,34,35
 879 709 879 709 884 709.5 c 128,-1,36
 889 710 889 710 893.5 712.5 c 128,-1,37
 898 715 898 715 904 721 c 128,-1,38
 910 727 910 727 913 732.5 c 128,-1,39
 916 738 916 738 916 750 c 128,-1,40
 916 762 916 762 913 768 c 0,41,42
 906 780 906 780 893 787 c 2,43,-1
 887 791 l 1,44,-1
 709 791 l 1,45,-1
 709 813 l 2,46,47
 709 847 709 847 704 864 c 0,48,49
 694 896 694 896 668.5 921 c 128,-1,50
 643 946 643 946 610 955 c 2,51,-1
 598 958 l 1,52,-1
 507 958 l 2,53,54
 415 958 415 958 405 957 c 0,0,1
597 872 m 0,55,56
 603 869 603 869 610.5 861.5 c 128,-1,57
 618 854 618 854 620.5 848.5 c 128,-1,58
 623 843 623 843 623.5 838.5 c 128,-1,59
 624 834 624 834 625 816 c 2,60,-1
 625 791 l 1,61,-1
 375 791 l 1,62,-1
 375 816 l 2,63,64
 375 833 375 833 376 838 c 128,-1,65
 377 843 377 843 379 847.5 c 128,-1,66
 381 852 381 852 387.5 859 c 128,-1,67
 394 866 394 866 398 869 c 2,68,-1
 399 869 l 2,69,70
 404 872 404 872 409.5 873 c 128,-1,71
 415 874 415 874 435 875 c 2,72,-1
 580 874 l 2,73,74
 592 874 592 874 597 872 c 0,55,56
750 434 m 1,75,-1
 749 159 l 1,76,-1
 746 152 l 2,77,78
 742 145 742 145 734 137.5 c 128,-1,79
 726 130 726 130 719 128 c 2,80,-1
 712 125 l 1,81,-1
 288 125 l 1,82,-1
 281 128 l 2,83,84
 274 130 274 130 266 137.5 c 128,-1,85
 258 145 258 145 254 152 c 2,86,-1
 251 159 l 1,87,-1
 250 709 l 1,88,-1
 750 709 l 1,89,-1
 750 434 l 1,75,-1
EndSplineSet
Validated: 9
EndChar

StartChar: unfold-horizontal
Encoding: 58433 58433 65
Width: 1000
GlyphClass: 1
Flags: W
LayerCount: 2
Fore
SplineSet
493 957 m 0,0,1
 480 955 480 955 470 945 c 0,2,3
 464 939 464 939 462 934 c 128,-1,4
 460 929 460 929 459 916 c 0,5,6
 459 907 459 907 459 875 c 128,-1,7
 459 843 459 843 459 834 c 0,8,9
 460 821 460 821 462 816 c 128,-1,10
 464 811 464 811 470 805 c 0,11,12
 483 792 483 792 500 792 c 128,-1,13
 517 792 517 792 530 805 c 0,14,15
 536 811 536 811 538 816 c 128,-1,16
 540 821 540 821 541 834 c 0,17,18
 541 843 541 843 541 875 c 2,19,-1
 541 918 l 2,20,21
 541 927 541 927 539 931 c 0,22,23
 534 945 534 945 521 952.5 c 128,-1,24
 508 960 508 960 493 957 c 0,0,1
493 707 m 0,25,26
 480 705 480 705 470 695 c 0,27,28
 464 689 464 689 462 684 c 128,-1,29
 460 679 460 679 459 666 c 0,30,31
 459 657 459 657 459 625 c 128,-1,32
 459 593 459 593 459 584 c 0,33,34
 460 571 460 571 462 566 c 128,-1,35
 464 561 464 561 470 555 c 0,36,37
 483 542 483 542 500 542 c 128,-1,38
 517 542 517 542 530 555 c 0,39,40
 536 561 536 561 538 566 c 128,-1,41
 540 571 540 571 541 584 c 0,42,43
 541 593 541 593 541 625 c 2,44,-1
 541 668 l 2,45,46
 541 677 541 677 539 681 c 0,47,48
 534 695 534 695 521 702.5 c 128,-1,49
 508 710 508 710 493 707 c 0,25,26
195 664 m 0,50,51
 190 663 190 663 184.5 659 c 128,-1,52
 179 655 179 655 114 589.5 c 128,-1,53
 49 524 49 524 46.5 520 c 128,-1,54
 44 516 44 516 42 508 c 0,55,56
 39 492 39 492 47 479 c 0,57,58
 50 474 50 474 118 407 c 0,59,60
 166 359 166 359 177 348.5 c 128,-1,61
 188 338 188 338 193 336 c 0,62,63
 208 331 208 331 223.5 337 c 128,-1,64
 239 343 239 343 246 357 c 0,65,66
 249 364 249 364 249 374 c 128,-1,67
 249 384 249 384 247.5 389 c 128,-1,68
 246 394 246 394 239 402 c 0,69,70
 234 408 234 408 215 427 c 0,71,72
 185 457 185 457 185 458 c 128,-1,73
 185 459 185 459 263 459 c 2,74,-1
 332 459 l 2,75,76
 343 459 343 459 348 461 c 0,77,78
 363 467 363 467 371 482 c 0,79,80
 374 489 374 489 374 500 c 0,81,82
 374 507 374 507 373.5 510 c 128,-1,83
 373 513 373 513 371 518 c 0,84,85
 368 524 368 524 361.5 530 c 128,-1,86
 355 536 355 536 349 538.5 c 128,-1,87
 343 541 343 541 331 541 c 2,88,-1
 263 541 l 2,89,90
 185 541 185 541 185 542 c 128,-1,91
 185 543 185 543 215 573 c 0,92,93
 234 592 234 592 239 598 c 0,94,95
 246 606 246 606 247.5 611 c 128,-1,96
 249 616 249 616 249 626 c 128,-1,97
 249 636 249 636 246 642.5 c 128,-1,98
 243 649 243 649 236.5 655 c 128,-1,99
 230 661 230 661 223.5 663.5 c 128,-1,100
 217 666 217 666 208.5 666 c 128,-1,101
 200 666 200 666 195 664 c 0,50,51
777 664 m 0,102,103
 770 661 770 661 763.5 655 c 128,-1,104
 757 649 757 649 754 642.5 c 128,-1,105
 751 636 751 636 751 626 c 128,-1,106
 751 616 751 616 752.5 611 c 128,-1,107
 754 606 754 606 761 598 c 0,108,109
 766 592 766 592 785 573 c 0,110,111
 815 543 815 543 815 542 c 128,-1,112
 815 541 815 541 737 541 c 2,113,-1
 669 541 l 2,114,115
 657 541 657 541 651 538.5 c 128,-1,116
 645 536 645 536 638.5 530 c 128,-1,117
 632 524 632 524 629 518 c 0,118,119
 627 513 627 513 626.5 510 c 128,-1,120
 626 507 626 507 626 500 c 0,121,122
 626 489 626 489 629 482 c 0,123,124
 637 467 637 467 652 461 c 0,125,126
 657 459 657 459 668 459 c 2,127,-1
 737 459 l 2,128,129
 815 459 815 459 815 458 c 128,-1,130
 815 457 815 457 785 427 c 0,131,132
 766 408 766 408 761 402 c 0,133,134
 754 394 754 394 752.5 389 c 128,-1,135
 751 384 751 384 751 374 c 128,-1,136
 751 364 751 364 754 357 c 0,137,138
 761 343 761 343 776.5 337 c 128,-1,139
 792 331 792 331 807 336 c 0,140,141
 812 338 812 338 823 348.5 c 128,-1,142
 834 359 834 359 882 407 c 0,143,144
 950 474 950 474 953 480 c 0,145,146
 958 489 958 489 958 500 c 128,-1,147
 958 511 958 511 953 520 c 0,148,149
 950 526 950 526 883 593 c 128,-1,150
 816 660 816 660 809.5 663 c 128,-1,151
 803 666 803 666 793 666 c 128,-1,152
 783 666 783 666 777 664 c 0,102,103
493 457 m 0,153,154
 480 455 480 455 470 445 c 0,155,156
 464 439 464 439 462 434 c 128,-1,157
 460 429 460 429 459 416 c 0,158,159
 459 407 459 407 459 375 c 128,-1,160
 459 343 459 343 459 334 c 0,161,162
 460 321 460 321 462 316 c 128,-1,163
 464 311 464 311 470 305 c 0,164,165
 483 292 483 292 500 292 c 128,-1,166
 517 292 517 292 530 305 c 0,167,168
 536 311 536 311 538 316 c 128,-1,169
 540 321 540 321 541 334 c 0,170,171
 541 343 541 343 541 375 c 2,172,-1
 541 418 l 2,173,174
 541 427 541 427 539 431 c 0,175,176
 534 445 534 445 521 452.5 c 128,-1,177
 508 460 508 460 493 457 c 0,153,154
493 207 m 0,178,179
 480 205 480 205 470 195 c 0,180,181
 464 189 464 189 462 184 c 128,-1,182
 460 179 460 179 459 166 c 0,183,184
 459 157 459 157 459 125 c 128,-1,185
 459 93 459 93 459 84 c 0,186,187
 460 71 460 71 462 66 c 128,-1,188
 464 61 464 61 470 55 c 0,189,190
 483 42 483 42 500 42 c 128,-1,191
 517 42 517 42 530 55 c 0,192,193
 536 61 536 61 538 66 c 128,-1,194
 540 71 540 71 541 84 c 0,195,196
 541 93 541 93 541 125 c 2,197,-1
 541 168 l 2,198,199
 541 177 541 177 539 181 c 0,200,201
 534 195 534 195 521 202.5 c 128,-1,202
 508 210 508 210 493 207 c 0,178,179
EndSplineSet
Validated: 521
EndChar

